{"glyphs":{"0":{"ha":833,"x_min":0,"x_max":0,"o":"m 417 -22 b 767 492 632 -22 767 176 b 417 1008 767 810 632 1008 b 67 492 201 1008 67 810 b 417 -22 67 176 201 -22 z m 192 492 b 417 892 192 738 279 892 b 546 832 467 892 511 871 l 228 257 b 192 492 204 321 192 400 z m 286 156 l 606 731 b 642 492 629 667 642 586 b 417 94 642 249 554 94 b 286 156 365 94 321 115 z "},"1":{"ha":833,"x_min":0,"x_max":0,"o":"m 81 117 l 81 0 l 776 0 l 776 117 l 500 117 l 500 986 l 407 986 b 256 833 407 879 361 833 l 136 833 l 136 731 l 381 731 l 381 117 z "},"2":{"ha":833,"x_min":0,"x_max":0,"o":"m 90 692 l 215 683 b 443 892 242 817 324 892 b 631 728 554 892 631 824 b 451 508 631 651 556 575 b 72 0 283 401 72 294 l 764 0 l 764 117 l 221 117 b 493 394 225 215 415 350 b 756 728 643 488 756 585 b 443 1008 756 889 624 1008 b 90 692 246 1008 117 874 z "},"3":{"ha":833,"x_min":0,"x_max":0,"o":"m 408 582 l 333 583 l 333 465 l 408 467 b 640 281 550 469 640 397 b 408 94 640 167 550 94 b 185 263 311 94 196 142 l 61 254 b 408 -22 69 92 213 -22 b 764 271 621 -22 764 99 b 556 533 764 399 693 493 b 731 751 672 568 731 640 b 408 1008 731 903 599 1008 b 96 771 244 1008 114 910 l 221 763 b 408 892 233 842 307 892 b 606 751 535 892 606 838 b 408 582 606 624 501 581 z "},"4":{"ha":833,"x_min":0,"x_max":0,"o":"m 675 986 l 547 986 l 46 319 l 46 203 l 556 203 l 556 0 l 675 0 l 675 203 l 788 203 l 788 319 l 675 319 z m 192 319 l 556 803 l 556 319 z "},"5":{"ha":833,"x_min":0,"x_max":0,"o":"m 706 986 l 178 986 l 101 432 l 231 432 b 415 539 257 496 339 539 b 633 317 542 539 633 451 b 433 94 633 186 550 94 b 210 263 313 94 226 158 l 85 254 b 419 -22 99 100 246 -22 b 758 317 618 -22 758 118 b 446 654 758 514 624 654 b 238 565 371 654 282 624 l 279 869 l 706 869 z "},"6":{"ha":833,"x_min":0,"x_max":0,"o":"m 642 765 l 767 775 b 451 1008 722 926 601 1008 b 74 435 168 1008 74 731 b 179 82 74 281 108 156 b 424 -22 250 8 338 -22 b 771 328 628 -22 771 113 b 444 672 771 531 639 672 b 196 533 339 672 250 622 b 453 892 215 764 306 892 b 642 765 544 892 613 846 z m 204 328 b 436 554 206 461 303 554 b 646 328 560 554 646 461 b 426 94 646 192 556 94 b 204 328 294 94 201 192 z "},"7":{"ha":833,"x_min":0,"x_max":0,"o":"m 85 986 l 85 869 l 653 869 b 321 0 453 617 321 322 l 446 0 b 783 874 446 322 586 621 l 783 986 z "},"8":{"ha":833,"x_min":0,"x_max":0,"o":"m 417 -22 b 767 271 615 -22 767 90 b 576 535 767 392 694 486 b 719 738 665 574 719 638 b 417 1008 719 893 588 1008 b 114 738 247 1008 114 893 b 257 535 114 638 167 574 b 67 271 139 488 67 393 b 417 -22 67 90 218 -22 z m 192 281 b 417 465 192 390 285 465 b 642 281 549 465 642 390 b 417 94 642 171 549 94 b 192 281 285 94 192 171 z m 239 738 b 417 892 239 828 313 892 b 594 738 521 892 594 828 b 417 585 594 649 521 585 b 239 738 313 585 239 649 z "},"9":{"ha":833,"x_min":0,"x_max":0,"o":"m 192 221 l 67 211 b 382 -22 111 60 232 -22 b 760 551 665 -22 760 256 b 654 904 760 706 725 831 b 410 1008 583 978 496 1008 b 63 658 206 1008 63 874 b 389 314 63 456 194 314 b 638 453 494 314 583 364 b 381 94 618 222 528 94 b 192 221 289 94 221 140 z m 188 658 b 407 892 188 794 278 892 b 629 658 539 892 632 794 b 397 432 628 525 531 432 b 188 658 274 432 188 525 z "}," ":{"ha":833,"x_min":0,"x_max":0,"o":""},"A":{"ha":833,"x_min":0,"x_max":0,"o":"m 36 0 l 158 0 l 240 281 l 593 281 l 675 0 l 797 0 l 497 986 l 336 986 z m 272 389 l 417 882 l 561 389 z "},"Á":{"ha":833,"x_min":0,"x_max":0,"o":"m 36 0 l 158 0 l 240 281 l 593 281 l 675 0 l 797 0 l 497 986 l 336 986 z m 272 389 l 417 882 l 561 389 z m 367 1096 l 465 1096 l 583 1304 l 454 1304 z "},"Ă":{"ha":833,"x_min":0,"x_max":0,"o":"m 36 0 l 158 0 l 240 281 l 593 281 l 675 0 l 797 0 l 497 986 l 336 986 z m 221 1275 b 417 1097 221 1175 307 1097 b 614 1275 528 1097 614 1175 l 524 1275 b 417 1183 524 1224 476 1183 b 311 1275 357 1183 311 1224 z m 272 389 l 417 882 l 561 389 z "},"Ǎ":{"ha":833,"x_min":0,"x_max":0,"o":"m 36 0 l 158 0 l 240 281 l 593 281 l 675 0 l 797 0 l 497 986 l 336 986 z m 226 1263 l 346 1096 l 488 1096 l 608 1263 l 490 1263 l 417 1160 l 343 1263 z m 272 389 l 417 882 l 561 389 z "},"Â":{"ha":833,"x_min":0,"x_max":0,"o":"m 36 0 l 158 0 l 240 281 l 593 281 l 675 0 l 797 0 l 497 986 l 336 986 z m 225 1096 l 342 1096 l 415 1199 l 489 1096 l 607 1096 l 486 1263 l 344 1263 z m 272 389 l 417 882 l 561 389 z "},"Ä":{"ha":833,"x_min":0,"x_max":0,"o":"m 36 0 l 158 0 l 240 281 l 593 281 l 675 0 l 797 0 l 497 986 l 336 986 z m 222 1094 l 354 1094 l 354 1235 l 222 1235 z m 272 389 l 417 882 l 561 389 z m 476 1094 l 608 1094 l 608 1235 l 476 1235 z "},"À":{"ha":833,"x_min":0,"x_max":0,"o":"m 36 0 l 158 0 l 240 281 l 593 281 l 675 0 l 797 0 l 497 986 l 336 986 z m 250 1304 l 368 1096 l 467 1096 l 379 1304 z m 272 389 l 417 882 l 561 389 z "},"Ā":{"ha":833,"x_min":0,"x_max":0,"o":"m 36 0 l 158 0 l 240 281 l 593 281 l 675 0 l 797 0 l 497 986 l 336 986 z m 239 1118 l 593 1118 l 593 1204 l 239 1204 z m 272 389 l 417 882 l 561 389 z "},"Ą":{"ha":833,"x_min":0,"x_max":0,"o":"m 36 0 l 158 0 l 240 281 l 593 281 l 675 0 l 706 0 l 653 -58 b 603 -181 618 -96 603 -139 b 728 -297 603 -249 660 -297 b 833 -260 763 -297 799 -286 l 833 -171 b 746 -200 801 -183 769 -200 b 700 -151 718 -200 700 -179 b 742 -62 700 -124 722 -90 l 783 0 l 797 0 l 497 986 l 336 986 z m 272 389 l 417 882 l 561 389 z "},"Å":{"ha":833,"x_min":0,"x_max":0,"o":"m 36 0 l 158 0 l 240 281 l 593 281 l 675 0 l 797 0 l 497 986 l 336 986 z m 272 389 l 417 882 l 561 389 z m 275 1204 b 417 1064 275 1125 338 1064 b 557 1204 496 1064 557 1125 b 417 1347 557 1283 496 1347 b 275 1204 338 1347 275 1283 z m 358 1206 b 417 1263 358 1238 383 1263 b 474 1206 449 1263 474 1238 b 417 1149 474 1174 449 1149 b 358 1206 383 1149 358 1174 z "},"Ã":{"ha":833,"x_min":0,"x_max":0,"o":"m 36 0 l 158 0 l 240 281 l 593 281 l 675 0 l 797 0 l 497 986 l 336 986 z m 185 1097 l 271 1097 b 328 1190 271 1161 290 1190 b 403 1143 361 1190 379 1165 b 513 1094 425 1119 454 1094 b 650 1275 596 1094 650 1167 l 564 1275 b 507 1181 564 1211 546 1181 b 422 1238 468 1181 451 1211 b 321 1276 400 1260 372 1276 b 185 1097 239 1276 185 1207 z m 272 389 l 417 882 l 561 389 z "},"Æ":{"ha":833,"x_min":0,"x_max":0,"o":"m 339 986 l 14 0 l 138 0 l 226 281 l 446 281 l 446 0 l 808 0 l 808 117 l 565 117 l 565 438 l 792 438 l 792 551 l 565 551 l 565 869 l 801 869 l 801 986 z m 263 397 l 417 874 l 446 874 l 446 397 z "},"B":{"ha":833,"x_min":0,"x_max":0,"o":"m 108 0 l 438 0 b 772 279 644 0 772 108 b 556 510 772 407 690 493 b 731 713 661 531 731 608 b 382 986 731 888 606 986 l 108 986 z m 229 117 l 229 443 l 438 443 b 647 279 572 443 647 383 b 438 117 647 178 567 117 z m 229 560 l 229 869 l 382 869 b 606 713 526 869 606 813 b 382 560 606 614 526 560 z "},"C":{"ha":833,"x_min":0,"x_max":0,"o":"m 788 325 l 661 332 b 436 94 633 175 550 94 b 179 492 271 94 179 238 b 436 892 179 747 271 892 b 651 676 539 892 619 818 l 779 685 b 436 1008 738 889 610 1008 b 53 492 192 1008 53 810 b 436 -22 53 176 192 -22 b 788 325 622 -22 751 108 z "},"Ć":{"ha":833,"x_min":0,"x_max":0,"o":"m 788 325 l 661 332 b 436 94 633 175 550 94 b 179 492 271 94 179 238 b 436 892 179 747 271 892 b 651 676 539 892 619 818 l 779 685 b 436 1008 738 889 610 1008 b 53 492 192 1008 53 810 b 436 -22 53 176 192 -22 b 788 325 622 -22 751 108 z m 388 1096 l 486 1096 l 604 1304 l 475 1304 z "},"Č":{"ha":833,"x_min":0,"x_max":0,"o":"m 788 325 l 661 332 b 436 94 633 175 550 94 b 179 492 271 94 179 238 b 436 892 179 747 271 892 b 651 676 539 892 619 818 l 779 685 b 436 1008 738 889 610 1008 b 53 492 192 1008 53 810 b 436 -22 53 176 192 -22 b 788 325 622 -22 751 108 z m 247 1263 l 367 1096 l 508 1096 l 629 1263 l 511 1263 l 438 1160 l 364 1263 z "},"Ç":{"ha":833,"x_min":0,"x_max":0,"o":"m 788 325 l 661 332 b 436 94 633 175 550 94 b 179 492 271 94 179 238 b 436 892 179 747 271 892 b 651 676 539 892 619 818 l 779 685 b 436 1008 738 889 610 1008 b 53 492 192 1008 53 810 b 386 -19 53 199 172 6 l 343 -67 l 382 -118 b 488 -171 442 -104 488 -126 b 422 -231 488 -207 463 -231 b 322 -160 375 -231 342 -185 l 265 -212 b 428 -306 319 -275 363 -306 b 564 -176 504 -306 564 -249 b 429 -51 564 -103 508 -51 l 457 -22 b 788 325 632 -12 753 117 z "},"Ĉ":{"ha":833,"x_min":0,"x_max":0,"o":"m 788 325 l 661 332 b 436 94 633 175 550 94 b 179 492 271 94 179 238 b 436 892 179 747 271 892 b 651 676 539 892 619 818 l 779 685 b 436 1008 738 889 610 1008 b 53 492 192 1008 53 810 b 436 -22 53 176 192 -22 b 788 325 622 -22 751 108 z m 246 1096 l 363 1096 l 436 1199 l 510 1096 l 628 1096 l 507 1263 l 365 1263 z "},"Ċ":{"ha":833,"x_min":0,"x_max":0,"o":"m 788 325 l 661 332 b 436 94 633 175 550 94 b 179 492 271 94 179 238 b 436 892 179 747 271 892 b 651 676 539 892 619 818 l 779 685 b 436 1008 738 889 610 1008 b 53 492 192 1008 53 810 b 436 -22 53 176 192 -22 b 788 325 622 -22 751 108 z m 371 1096 l 503 1096 l 503 1236 l 371 1236 z "},"D":{"ha":833,"x_min":0,"x_max":0,"o":"m 346 986 l 106 986 l 106 0 l 354 0 b 792 492 626 0 792 176 b 346 986 792 808 622 986 z m 225 117 l 225 869 l 346 869 b 667 492 551 869 667 744 b 346 117 667 242 551 117 z "},"Ð":{"ha":833,"x_min":0,"x_max":0,"o":"m -14 544 l -14 442 l 160 442 l 160 0 l 408 0 b 846 492 681 0 846 176 b 400 986 846 808 676 986 l 160 986 l 160 544 z m 279 117 l 279 442 l 431 442 l 431 544 l 279 544 l 279 869 l 400 869 b 721 492 606 869 721 744 b 400 117 721 242 606 117 z "},"Ď":{"ha":833,"x_min":0,"x_max":0,"o":"m 346 986 l 106 986 l 106 0 l 354 0 b 792 492 626 0 792 176 b 346 986 792 808 622 986 z m 225 117 l 225 869 l 346 869 b 667 492 551 869 667 744 b 346 117 667 242 551 117 z m 229 1263 l 349 1096 l 490 1096 l 611 1263 l 493 1263 l 419 1160 l 346 1263 z "},"Đ":{"ha":833,"x_min":0,"x_max":0,"o":"m -14 544 l -14 442 l 160 442 l 160 0 l 408 0 b 846 492 681 0 846 176 b 400 986 846 808 676 986 l 160 986 l 160 544 z m 279 117 l 279 442 l 431 442 l 431 544 l 279 544 l 279 869 l 400 869 b 721 492 606 869 721 744 b 400 117 721 242 606 117 z "},"E":{"ha":833,"x_min":0,"x_max":0,"o":"m 125 986 l 125 0 l 756 0 l 756 117 l 244 117 l 244 438 l 728 438 l 728 551 l 244 551 l 244 869 l 744 869 l 744 986 z "},"É":{"ha":833,"x_min":0,"x_max":0,"o":"m 125 986 l 125 0 l 756 0 l 756 117 l 244 117 l 244 438 l 728 438 l 728 551 l 244 551 l 244 869 l 744 869 l 744 986 z m 390 1097 l 489 1097 l 607 1306 l 478 1306 z "},"Ě":{"ha":833,"x_min":0,"x_max":0,"o":"m 125 986 l 125 0 l 756 0 l 756 117 l 244 117 l 244 438 l 728 438 l 728 551 l 244 551 l 244 869 l 744 869 l 744 986 z m 251 1264 l 371 1097 l 513 1097 l 633 1264 l 515 1264 l 442 1161 l 368 1264 z "},"Ê":{"ha":833,"x_min":0,"x_max":0,"o":"m 125 986 l 125 0 l 756 0 l 756 117 l 244 117 l 244 438 l 728 438 l 728 551 l 244 551 l 244 869 l 744 869 l 744 986 z m 250 1097 l 367 1097 l 440 1200 l 514 1097 l 632 1097 l 511 1264 l 369 1264 z "},"Ë":{"ha":833,"x_min":0,"x_max":0,"o":"m 125 986 l 125 0 l 756 0 l 756 117 l 244 117 l 244 438 l 728 438 l 728 551 l 244 551 l 244 869 l 744 869 l 744 986 z m 247 1096 l 379 1096 l 379 1236 l 247 1236 z m 501 1096 l 633 1096 l 633 1236 l 501 1236 z "},"Ė":{"ha":833,"x_min":0,"x_max":0,"o":"m 125 986 l 125 0 l 756 0 l 756 117 l 244 117 l 244 438 l 728 438 l 728 551 l 244 551 l 244 869 l 744 869 l 744 986 z m 375 1097 l 507 1097 l 507 1238 l 375 1238 z "},"È":{"ha":833,"x_min":0,"x_max":0,"o":"m 125 986 l 125 0 l 756 0 l 756 117 l 244 117 l 244 438 l 728 438 l 728 551 l 244 551 l 244 869 l 744 869 l 744 986 z m 275 1306 l 393 1097 l 492 1097 l 404 1306 z "},"Ē":{"ha":833,"x_min":0,"x_max":0,"o":"m 125 986 l 125 0 l 756 0 l 756 117 l 244 117 l 244 438 l 728 438 l 728 551 l 244 551 l 244 869 l 744 869 l 744 986 z m 264 1119 l 618 1119 l 618 1206 l 264 1206 z "},"Ę":{"ha":833,"x_min":0,"x_max":0,"o":"m 125 986 l 125 0 l 664 0 l 611 -58 b 561 -181 576 -96 561 -139 b 686 -297 561 -249 618 -297 b 792 -260 721 -297 757 -286 l 792 -171 b 704 -200 760 -183 728 -200 b 658 -151 676 -200 658 -179 b 700 -62 658 -124 681 -90 l 742 0 l 756 0 l 756 117 l 244 117 l 244 438 l 728 438 l 728 551 l 244 551 l 244 869 l 744 869 l 744 986 z "},"Ẽ":{"ha":833,"x_min":0,"x_max":0,"o":"m 125 986 l 125 0 l 756 0 l 756 117 l 244 117 l 244 438 l 728 438 l 728 551 l 244 551 l 244 869 l 744 869 l 744 986 z m 208 1099 l 294 1099 b 351 1192 294 1163 314 1192 b 426 1144 385 1192 403 1167 b 536 1096 449 1121 478 1096 b 674 1276 619 1096 674 1168 l 588 1276 b 531 1182 588 1213 569 1182 b 446 1239 492 1182 475 1213 b 344 1278 424 1261 396 1278 b 208 1099 263 1278 208 1208 z "},"Ə":{"ha":833,"x_min":0,"x_max":0,"o":"m 668 542 l 39 542 l 40 472 b 406 -22 46 182 192 -22 b 794 493 629 -22 794 204 b 406 1008 794 796 640 1008 b 65 707 249 1008 121 892 l 192 696 b 406 892 222 810 306 892 b 668 542 551 892 654 747 z m 168 425 l 667 425 b 406 94 635 214 546 94 b 168 425 275 94 194 214 z "},"Ʒ":{"ha":833,"x_min":0,"x_max":0,"o":"m 65 260 l 65 115 b 394 -22 147 31 274 -22 b 758 279 610 -22 758 103 b 476 576 758 436 642 560 l 743 850 l 743 986 l 67 986 l 67 869 l 596 869 l 321 585 l 321 467 l 396 468 b 633 279 536 471 633 393 b 394 94 633 171 535 94 b 65 260 292 94 165 158 z "},"Ǯ":{"ha":833,"x_min":0,"x_max":0,"o":"m 65 260 l 65 115 b 394 -22 147 31 274 -22 b 758 279 610 -22 758 103 b 476 576 758 436 642 560 l 743 850 l 743 986 l 67 986 l 67 869 l 596 869 l 321 585 l 321 467 l 396 468 b 633 279 536 471 633 393 b 394 94 633 171 535 94 b 65 260 292 94 165 158 z m 214 1263 l 333 1096 l 475 1096 l 596 1263 l 478 1263 l 404 1160 l 331 1263 z "},"F":{"ha":833,"x_min":0,"x_max":0,"o":"m 131 986 l 131 0 l 250 0 l 250 425 l 711 425 l 711 539 l 250 539 l 250 869 l 736 869 l 736 986 z "},"G":{"ha":833,"x_min":0,"x_max":0,"o":"m 772 0 l 772 499 l 426 499 l 426 382 l 660 382 b 426 94 650 219 557 94 b 175 492 265 94 175 238 b 426 892 175 747 265 892 b 649 689 531 892 617 808 l 774 697 b 426 1008 731 881 593 1008 b 50 492 196 1008 50 810 b 426 -22 50 176 196 -22 b 672 140 535 -22 629 42 l 690 0 z "},"Ğ":{"ha":833,"x_min":0,"x_max":0,"o":"m 772 0 l 772 499 l 426 499 l 426 382 l 660 382 b 426 94 650 219 557 94 b 175 492 265 94 175 238 b 426 892 175 747 265 892 b 649 689 531 892 617 808 l 774 697 b 426 1008 731 881 593 1008 b 50 492 196 1008 50 810 b 426 -22 50 176 196 -22 b 672 140 535 -22 629 42 l 690 0 z m 218 1275 b 414 1097 218 1175 304 1097 b 611 1275 525 1097 611 1175 l 521 1275 b 414 1183 521 1224 474 1183 b 308 1275 354 1183 308 1224 z "},"Ǧ":{"ha":833,"x_min":0,"x_max":0,"o":"m 772 0 l 772 499 l 426 499 l 426 382 l 660 382 b 426 94 650 219 557 94 b 175 492 265 94 175 238 b 426 892 175 747 265 892 b 649 689 531 892 617 808 l 774 697 b 426 1008 731 881 593 1008 b 50 492 196 1008 50 810 b 426 -22 50 176 196 -22 b 672 140 535 -22 629 42 l 690 0 z m 225 1263 l 344 1096 l 486 1096 l 607 1263 l 489 1263 l 415 1160 l 342 1263 z "},"Ĝ":{"ha":833,"x_min":0,"x_max":0,"o":"m 772 0 l 772 499 l 426 499 l 426 382 l 660 382 b 426 94 650 219 557 94 b 175 492 265 94 175 238 b 426 892 175 747 265 892 b 649 689 531 892 617 808 l 774 697 b 426 1008 731 881 593 1008 b 50 492 196 1008 50 810 b 426 -22 50 176 196 -22 b 672 140 535 -22 629 42 l 690 0 z m 224 1096 l 340 1096 l 414 1199 l 488 1096 l 606 1096 l 485 1263 l 343 1263 z "},"Ģ":{"ha":833,"x_min":0,"x_max":0,"o":"m 772 0 l 772 499 l 426 499 l 426 382 l 660 382 b 426 94 650 219 557 94 b 175 492 265 94 175 238 b 426 892 175 747 265 892 b 649 689 531 892 617 808 l 774 697 b 426 1008 731 881 593 1008 b 50 492 196 1008 50 810 b 426 -22 50 176 196 -22 b 672 140 535 -22 629 42 l 690 0 z m 267 -292 l 365 -292 l 483 -83 l 354 -83 z "},"Ġ":{"ha":833,"x_min":0,"x_max":0,"o":"m 772 0 l 772 499 l 426 499 l 426 382 l 660 382 b 426 94 650 219 557 94 b 175 492 265 94 175 238 b 426 892 175 747 265 892 b 649 689 531 892 617 808 l 774 697 b 426 1008 731 881 593 1008 b 50 492 196 1008 50 810 b 426 -22 50 176 196 -22 b 672 140 535 -22 629 42 l 690 0 z m 349 1096 l 481 1096 l 481 1236 l 349 1236 z "},"Ḡ":{"ha":833,"x_min":0,"x_max":0,"o":"m 772 0 l 772 499 l 426 499 l 426 382 l 660 382 b 426 94 650 219 557 94 b 175 492 265 94 175 238 b 426 892 175 747 265 892 b 649 689 531 892 617 808 l 774 697 b 426 1008 731 881 593 1008 b 50 492 196 1008 50 810 b 426 -22 50 176 196 -22 b 672 140 535 -22 629 42 l 690 0 z m 238 1118 l 592 1118 l 592 1204 l 238 1204 z "},"Ǥ":{"ha":833,"x_min":0,"x_max":0,"o":"m 418 499 l 418 382 l 661 382 b 656 307 661 356 660 331 l 418 307 l 418 204 l 619 204 b 418 94 578 135 508 94 b 153 492 249 94 153 279 b 418 892 153 706 247 892 b 654 689 532 892 622 808 l 779 697 b 418 1008 736 878 599 1008 b 28 492 188 1008 28 779 b 418 -22 28 206 189 -22 b 747 204 574 -22 689 61 l 821 204 l 821 307 l 776 307 b 788 438 783 347 788 392 l 788 499 z "},"H":{"ha":833,"x_min":0,"x_max":0,"o":"m 99 0 l 218 0 l 218 438 l 615 438 l 615 0 l 735 0 l 735 986 l 615 986 l 615 554 l 218 554 l 218 986 l 99 986 z "},"Ħ":{"ha":833,"x_min":0,"x_max":0,"o":"m 126 986 l 126 851 l 33 851 l 33 735 l 126 735 l 126 0 l 246 0 l 246 444 l 588 444 l 588 0 l 707 0 l 707 735 l 800 735 l 800 851 l 707 851 l 707 986 l 588 986 l 588 851 l 246 851 l 246 986 z m 246 561 l 246 735 l 588 735 l 588 561 z "},"Ĥ":{"ha":833,"x_min":0,"x_max":0,"o":"m 99 0 l 218 0 l 218 438 l 615 438 l 615 0 l 735 0 l 735 986 l 615 986 l 615 554 l 218 554 l 218 986 l 99 986 z m 225 1096 l 342 1096 l 415 1199 l 489 1096 l 607 1096 l 486 1263 l 344 1263 z "},"I":{"ha":833,"x_min":0,"x_max":0,"o":"m 700 986 l 133 986 l 133 869 l 357 869 l 357 117 l 125 117 l 125 0 l 708 0 l 708 117 l 476 117 l 476 869 l 700 869 z "},"Í":{"ha":833,"x_min":0,"x_max":0,"o":"m 700 986 l 133 986 l 133 869 l 357 869 l 357 117 l 125 117 l 125 0 l 708 0 l 708 117 l 476 117 l 476 869 l 700 869 z m 367 1096 l 465 1096 l 583 1304 l 454 1304 z "},"Î":{"ha":833,"x_min":0,"x_max":0,"o":"m 700 986 l 133 986 l 133 869 l 357 869 l 357 117 l 125 117 l 125 0 l 708 0 l 708 117 l 476 117 l 476 869 l 700 869 z m 225 1096 l 342 1096 l 415 1199 l 489 1096 l 607 1096 l 486 1263 l 344 1263 z "},"Ï":{"ha":833,"x_min":0,"x_max":0,"o":"m 700 986 l 133 986 l 133 869 l 357 869 l 357 117 l 125 117 l 125 0 l 708 0 l 708 117 l 476 117 l 476 869 l 700 869 z m 222 1094 l 354 1094 l 354 1235 l 222 1235 z m 476 1094 l 608 1094 l 608 1235 l 476 1235 z "},"İ":{"ha":833,"x_min":0,"x_max":0,"o":"m 700 986 l 133 986 l 133 869 l 357 869 l 357 117 l 125 117 l 125 0 l 708 0 l 708 117 l 476 117 l 476 869 l 700 869 z m 350 1096 l 482 1096 l 482 1236 l 350 1236 z "},"Ì":{"ha":833,"x_min":0,"x_max":0,"o":"m 700 986 l 133 986 l 133 869 l 357 869 l 357 117 l 125 117 l 125 0 l 708 0 l 708 117 l 476 117 l 476 869 l 700 869 z m 250 1304 l 368 1096 l 467 1096 l 379 1304 z "},"Ī":{"ha":833,"x_min":0,"x_max":0,"o":"m 700 986 l 133 986 l 133 869 l 357 869 l 357 117 l 125 117 l 125 0 l 708 0 l 708 117 l 476 117 l 476 869 l 700 869 z m 239 1118 l 593 1118 l 593 1204 l 239 1204 z "},"Į":{"ha":833,"x_min":0,"x_max":0,"o":"m 700 986 l 133 986 l 133 869 l 357 869 l 357 117 l 125 117 l 125 0 l 631 0 l 578 -58 b 528 -181 543 -96 528 -139 b 653 -297 528 -249 585 -297 b 758 -260 688 -297 724 -286 l 758 -171 b 671 -200 726 -183 694 -200 b 625 -151 643 -200 625 -179 b 667 -62 625 -124 647 -90 l 708 0 l 708 117 l 476 117 l 476 869 l 700 869 z "},"Ĩ":{"ha":833,"x_min":0,"x_max":0,"o":"m 700 986 l 133 986 l 133 869 l 357 869 l 357 117 l 125 117 l 125 0 l 708 0 l 708 117 l 476 117 l 476 869 l 700 869 z m 185 1097 l 271 1097 b 328 1190 271 1161 290 1190 b 403 1143 361 1190 379 1165 b 513 1094 425 1119 454 1094 b 650 1275 596 1094 650 1167 l 564 1275 b 507 1181 564 1211 546 1181 b 422 1238 468 1181 451 1211 b 321 1276 400 1260 372 1276 b 185 1097 239 1276 185 1207 z "},"J":{"ha":833,"x_min":0,"x_max":0,"o":"m 172 331 l 50 319 b 376 -22 51 119 179 -22 b 706 344 585 -22 706 119 l 706 986 l 586 986 l 586 344 b 376 94 586 185 517 94 b 172 331 242 94 174 179 z "},"Ĵ":{"ha":833,"x_min":0,"x_max":0,"o":"m 172 331 l 50 319 b 376 -22 51 119 179 -22 b 706 344 585 -22 706 119 l 706 986 l 586 986 l 586 344 b 376 94 586 185 517 94 b 172 331 242 94 174 179 z m 456 1096 l 572 1096 l 646 1199 l 719 1096 l 838 1096 l 717 1263 l 575 1263 z "},"K":{"ha":833,"x_min":0,"x_max":0,"o":"m 79 986 l 79 0 l 199 0 l 199 390 l 288 481 l 646 0 l 790 0 l 371 567 l 764 986 l 614 986 l 199 557 l 199 986 z "},"Ǩ":{"ha":833,"x_min":0,"x_max":0,"o":"m 79 986 l 79 0 l 199 0 l 199 390 l 288 481 l 646 0 l 790 0 l 371 567 l 764 986 l 614 986 l 199 557 l 199 986 z m 206 1263 l 325 1096 l 467 1096 l 588 1263 l 469 1263 l 396 1160 l 322 1263 z "},"Ķ":{"ha":833,"x_min":0,"x_max":0,"o":"m 79 986 l 79 0 l 199 0 l 199 390 l 288 481 l 646 0 l 790 0 l 371 567 l 764 986 l 614 986 l 199 557 l 199 986 z m 247 -292 l 346 -292 l 464 -83 l 335 -83 z "},"L":{"ha":833,"x_min":0,"x_max":0,"o":"m 125 0 l 765 0 l 765 117 l 244 117 l 244 986 l 125 986 z "},"Ĺ":{"ha":833,"x_min":0,"x_max":0,"o":"m 125 0 l 765 0 l 765 117 l 244 117 l 244 986 l 125 986 z m 135 1096 l 233 1096 l 351 1304 l 222 1304 z "},"Ľ":{"ha":833,"x_min":0,"x_max":0,"o":"m 125 0 l 765 0 l 765 117 l 244 117 l 244 986 l 125 986 z m 403 603 l 474 603 l 569 826 l 569 986 l 406 986 l 406 826 l 474 826 z "},"Ļ":{"ha":833,"x_min":0,"x_max":0,"o":"m 125 0 l 765 0 l 765 117 l 244 117 l 244 986 l 125 986 z m 297 -292 l 396 -292 l 514 -83 l 385 -83 z "},"Ł":{"ha":833,"x_min":0,"x_max":0,"o":"m -36 515 l 14 410 l 143 469 l 143 0 l 783 0 l 783 117 l 263 117 l 263 526 l 442 610 l 392 715 l 263 656 l 263 986 l 143 986 l 143 599 z "},"M":{"ha":833,"x_min":0,"x_max":0,"o":"m 88 986 l 88 0 l 207 0 l 207 864 l 364 69 l 469 69 l 626 864 l 626 0 l 746 0 l 746 986 l 553 986 l 417 278 l 281 986 z "},"N":{"ha":833,"x_min":0,"x_max":0,"o":"m 108 986 l 108 0 l 229 0 l 229 806 l 540 0 l 725 0 l 725 986 l 604 986 l 604 150 l 279 986 z "},"Ń":{"ha":833,"x_min":0,"x_max":0,"o":"m 108 986 l 108 0 l 229 0 l 229 806 l 540 0 l 725 0 l 725 986 l 604 986 l 604 150 l 279 986 z m 382 1096 l 481 1096 l 599 1304 l 469 1304 z "},"Ň":{"ha":833,"x_min":0,"x_max":0,"o":"m 108 986 l 108 0 l 229 0 l 229 806 l 540 0 l 725 0 l 725 986 l 604 986 l 604 150 l 279 986 z m 242 1263 l 361 1096 l 503 1096 l 624 1263 l 506 1263 l 432 1160 l 358 1263 z "},"Ņ":{"ha":833,"x_min":0,"x_max":0,"o":"m 108 986 l 108 0 l 229 0 l 229 806 l 540 0 l 725 0 l 725 986 l 604 986 l 604 150 l 279 986 z m 299 -292 l 397 -292 l 515 -83 l 386 -83 z "},"Ñ":{"ha":833,"x_min":0,"x_max":0,"o":"m 108 986 l 108 0 l 229 0 l 229 806 l 540 0 l 725 0 l 725 986 l 604 986 l 604 150 l 279 986 z m 199 1097 l 285 1097 b 342 1190 285 1161 304 1190 b 417 1143 375 1190 393 1165 b 526 1094 439 1119 468 1094 b 664 1275 610 1094 664 1167 l 578 1275 b 521 1181 578 1211 560 1181 b 436 1238 482 1181 465 1211 b 335 1276 414 1260 386 1276 b 199 1097 253 1276 199 1207 z "},"Ŋ":{"ha":833,"x_min":0,"x_max":0,"o":"m 108 986 l 108 0 l 229 0 l 229 806 l 540 0 l 604 0 l 604 -11 b 517 -92 604 -64 575 -92 l 374 -92 l 374 -208 l 517 -208 b 725 -10 644 -208 725 -131 l 725 986 l 604 986 l 604 150 l 279 986 z "},"O":{"ha":833,"x_min":0,"x_max":0,"o":"m 417 -22 b 781 492 650 -22 781 163 b 417 1008 781 824 650 1008 b 53 492 183 1008 53 824 b 417 -22 53 163 183 -22 z m 178 492 b 417 892 178 747 264 892 b 656 492 569 892 656 747 b 417 94 656 238 569 94 b 178 492 264 94 178 238 z "},"Ó":{"ha":833,"x_min":0,"x_max":0,"o":"m 417 -22 b 781 492 650 -22 781 163 b 417 1008 781 824 650 1008 b 53 492 183 1008 53 824 b 417 -22 53 163 183 -22 z m 178 492 b 417 892 178 747 264 892 b 656 492 569 892 656 747 b 417 94 656 238 569 94 b 178 492 264 94 178 238 z m 367 1096 l 465 1096 l 583 1304 l 454 1304 z "},"Ô":{"ha":833,"x_min":0,"x_max":0,"o":"m 417 -22 b 781 492 650 -22 781 163 b 417 1008 781 824 650 1008 b 53 492 183 1008 53 824 b 417 -22 53 163 183 -22 z m 178 492 b 417 892 178 747 264 892 b 656 492 569 892 656 747 b 417 94 656 238 569 94 b 178 492 264 94 178 238 z m 225 1096 l 342 1096 l 415 1199 l 489 1096 l 607 1096 l 486 1263 l 344 1263 z "},"Ö":{"ha":833,"x_min":0,"x_max":0,"o":"m 417 -22 b 781 492 650 -22 781 163 b 417 1008 781 824 650 1008 b 53 492 183 1008 53 824 b 417 -22 53 163 183 -22 z m 178 492 b 417 892 178 747 264 892 b 656 492 569 892 656 747 b 417 94 656 238 569 94 b 178 492 264 94 178 238 z m 222 1094 l 354 1094 l 354 1235 l 222 1235 z m 476 1094 l 608 1094 l 608 1235 l 476 1235 z "},"Ò":{"ha":833,"x_min":0,"x_max":0,"o":"m 417 -22 b 781 492 650 -22 781 163 b 417 1008 781 824 650 1008 b 53 492 183 1008 53 824 b 417 -22 53 163 183 -22 z m 178 492 b 417 892 178 747 264 892 b 656 492 569 892 656 747 b 417 94 656 238 569 94 b 178 492 264 94 178 238 z m 250 1304 l 368 1096 l 467 1096 l 379 1304 z "},"Ő":{"ha":833,"x_min":0,"x_max":0,"o":"m 417 -22 b 781 492 650 -22 781 163 b 417 1008 781 824 650 1008 b 53 492 183 1008 53 824 b 417 -22 53 163 183 -22 z m 178 492 b 417 892 178 747 264 892 b 656 492 569 892 656 747 b 417 94 656 238 569 94 b 178 492 264 94 178 238 z m 260 1096 l 358 1096 l 476 1304 l 347 1304 z m 454 1096 l 553 1096 l 671 1304 l 542 1304 z "},"Ō":{"ha":833,"x_min":0,"x_max":0,"o":"m 417 -22 b 781 492 650 -22 781 163 b 417 1008 781 824 650 1008 b 53 492 183 1008 53 824 b 417 -22 53 163 183 -22 z m 178 492 b 417 892 178 747 264 892 b 656 492 569 892 656 747 b 417 94 656 238 569 94 b 178 492 264 94 178 238 z m 239 1118 l 593 1118 l 593 1204 l 239 1204 z "},"Ø":{"ha":833,"x_min":0,"x_max":0,"o":"m 417 -22 b 781 492 650 -22 781 163 b 692 867 781 653 750 779 l 775 1008 l 661 1008 l 622 943 b 417 1008 567 986 499 1008 b 53 492 183 1008 53 824 b 139 124 53 335 82 211 l 53 -22 l 169 -22 l 210 46 b 417 -22 265 1 335 -22 z m 178 492 b 417 892 178 747 264 892 b 558 833 474 892 521 872 l 214 251 b 178 492 190 314 178 394 z m 274 154 l 617 739 b 656 492 642 675 656 592 b 417 94 656 238 569 94 b 274 154 358 94 311 115 z "},"Õ":{"ha":833,"x_min":0,"x_max":0,"o":"m 417 -22 b 781 492 650 -22 781 163 b 417 1008 781 824 650 1008 b 53 492 183 1008 53 824 b 417 -22 53 163 183 -22 z m 178 492 b 417 892 178 747 264 892 b 656 492 569 892 656 747 b 417 94 656 238 569 94 b 178 492 264 94 178 238 z m 185 1097 l 271 1097 b 328 1190 271 1161 290 1190 b 403 1143 361 1190 379 1165 b 513 1094 425 1119 454 1094 b 650 1275 596 1094 650 1167 l 564 1275 b 507 1181 564 1211 546 1181 b 422 1238 468 1181 451 1211 b 321 1276 400 1260 372 1276 b 185 1097 239 1276 185 1207 z "},"Œ":{"ha":833,"x_min":0,"x_max":0,"o":"m 815 986 l 458 986 l 458 935 b 294 1008 414 982 360 1008 b 10 492 115 1008 10 811 b 294 -22 10 175 115 -22 b 458 51 360 -22 414 4 l 458 0 l 822 0 l 822 117 l 578 117 l 578 438 l 806 438 l 806 551 l 578 551 l 578 869 l 815 869 z m 132 492 b 294 892 132 739 176 892 b 456 492 413 892 456 739 b 294 94 456 247 413 94 b 132 492 176 94 132 247 z "},"P":{"ha":833,"x_min":0,"x_max":0,"o":"m 424 986 l 125 986 l 125 0 l 246 0 l 246 383 l 424 383 b 772 688 643 383 772 497 b 424 986 772 875 643 986 z m 246 500 l 246 869 l 424 869 b 647 688 574 869 647 808 b 424 500 647 564 574 500 z "},"Þ":{"ha":833,"x_min":0,"x_max":0,"o":"m 244 0 l 244 207 l 436 207 b 786 511 657 207 786 321 b 436 808 786 699 657 808 l 244 808 l 244 986 l 125 986 l 125 0 z m 244 324 l 244 692 l 436 692 b 661 511 586 692 661 632 b 436 324 661 388 586 324 z "},"Q":{"ha":833,"x_min":0,"x_max":0,"o":"m 417 -22 b 556 4 468 -22 514 -14 l 624 -96 l 758 -96 l 647 65 b 781 492 735 151 781 296 b 417 1008 781 824 650 1008 b 53 492 183 1008 53 824 b 417 -22 53 163 183 -22 z m 178 492 b 417 892 178 747 264 892 b 656 492 569 892 656 747 b 575 171 656 347 628 238 l 494 289 l 360 289 l 486 106 b 417 94 464 99 442 94 b 178 492 264 94 178 238 z "},"R":{"ha":833,"x_min":0,"x_max":0,"o":"m 414 986 l 103 986 l 103 0 l 222 0 l 222 397 l 401 397 b 613 278 546 397 604 368 l 638 0 l 758 0 l 732 290 b 592 458 722 390 682 440 b 750 688 675 486 750 575 b 414 986 750 871 621 986 z m 222 514 l 222 869 l 414 869 b 625 690 549 869 625 804 b 414 514 625 576 549 514 z "},"Ŕ":{"ha":833,"x_min":0,"x_max":0,"o":"m 414 986 l 103 986 l 103 0 l 222 0 l 222 397 l 401 397 b 613 278 546 397 604 368 l 638 0 l 758 0 l 732 290 b 592 458 722 390 682 440 b 750 688 675 486 750 575 b 414 986 750 871 621 986 z m 222 514 l 222 869 l 414 869 b 625 690 549 869 625 804 b 414 514 625 576 549 514 z m 350 1096 l 449 1096 l 567 1304 l 438 1304 z "},"Ř":{"ha":833,"x_min":0,"x_max":0,"o":"m 414 986 l 103 986 l 103 0 l 222 0 l 222 397 l 401 397 b 613 278 546 397 604 368 l 638 0 l 758 0 l 732 290 b 592 458 722 390 682 440 b 750 688 675 486 750 575 b 414 986 750 871 621 986 z m 211 1263 l 331 1096 l 472 1096 l 593 1263 l 475 1263 l 401 1160 l 328 1263 z m 222 514 l 222 869 l 414 869 b 625 690 549 869 625 804 b 414 514 625 576 549 514 z "},"Ŗ":{"ha":833,"x_min":0,"x_max":0,"o":"m 414 986 l 103 986 l 103 0 l 222 0 l 222 397 l 401 397 b 613 278 546 397 604 368 l 638 0 l 758 0 l 732 290 b 592 458 722 390 682 440 b 750 688 675 486 750 575 b 414 986 750 871 621 986 z m 222 514 l 222 869 l 414 869 b 625 690 549 869 625 804 b 414 514 625 576 549 514 z m 290 -292 l 389 -292 l 507 -83 l 378 -83 z "},"S":{"ha":833,"x_min":0,"x_max":0,"o":"m 189 324 l 64 315 b 442 -17 81 115 239 -17 b 772 261 606 -17 772 78 b 464 550 772 411 629 500 b 210 738 340 585 210 618 b 392 892 210 832 293 892 b 626 686 514 892 610 810 l 751 694 b 393 1008 732 876 592 1008 b 85 738 218 1008 85 904 b 378 460 85 601 174 517 b 647 249 561 408 647 349 b 451 100 647 150 563 100 b 189 324 308 100 215 190 z "},"Ś":{"ha":833,"x_min":0,"x_max":0,"o":"m 189 324 l 64 315 b 442 -17 81 115 239 -17 b 772 261 606 -17 772 78 b 464 550 772 411 629 500 b 210 738 340 585 210 618 b 392 892 210 832 293 892 b 626 686 514 892 610 810 l 751 694 b 393 1008 732 876 592 1008 b 85 738 218 1008 85 904 b 378 460 85 601 174 517 b 647 249 561 408 647 349 b 451 100 647 150 563 100 b 189 324 308 100 215 190 z m 365 1096 l 464 1096 l 582 1304 l 453 1304 z "},"Ꞌ":{"ha":833,"x_min":0,"x_max":0,"o":"m 356 986 l 356 797 l 375 525 l 458 525 l 478 797 l 478 986 z "},"Š":{"ha":833,"x_min":0,"x_max":0,"o":"m 189 324 l 64 315 b 442 -17 81 115 239 -17 b 772 261 606 -17 772 78 b 464 550 772 411 629 500 b 210 738 340 585 210 618 b 392 892 210 832 293 892 b 626 686 514 892 610 810 l 751 694 b 393 1008 732 876 592 1008 b 85 738 218 1008 85 904 b 378 460 85 601 174 517 b 647 249 561 408 647 349 b 451 100 647 150 563 100 b 189 324 308 100 215 190 z m 225 1263 l 344 1096 l 486 1096 l 607 1263 l 489 1263 l 415 1160 l 342 1263 z "},"Ş":{"ha":833,"x_min":0,"x_max":0,"o":"m 189 324 l 64 315 b 372 -11 79 139 204 15 l 322 -67 l 361 -118 b 467 -171 421 -104 467 -126 b 401 -231 467 -207 442 -231 b 301 -160 354 -231 321 -185 l 244 -212 b 407 -306 299 -275 342 -306 b 543 -176 483 -306 543 -249 b 408 -51 543 -103 488 -51 l 440 -17 l 442 -17 b 772 261 606 -17 772 78 b 464 550 772 411 629 500 b 210 738 340 585 210 618 b 392 892 210 832 293 892 b 626 686 514 892 610 810 l 751 694 b 393 1008 732 876 592 1008 b 85 738 218 1008 85 904 b 378 460 85 601 174 517 b 647 249 561 408 647 349 b 451 100 647 150 563 100 b 189 324 308 100 215 190 z "},"Ŝ":{"ha":833,"x_min":0,"x_max":0,"o":"m 189 324 l 64 315 b 442 -17 81 115 239 -17 b 772 261 606 -17 772 78 b 464 550 772 411 629 500 b 210 738 340 585 210 618 b 392 892 210 832 293 892 b 626 686 514 892 610 810 l 751 694 b 393 1008 732 876 592 1008 b 85 738 218 1008 85 904 b 378 460 85 601 174 517 b 647 249 561 408 647 349 b 451 100 647 150 563 100 b 189 324 308 100 215 190 z m 224 1096 l 340 1096 l 414 1199 l 488 1096 l 606 1096 l 485 1263 l 343 1263 z "},"Ș":{"ha":833,"x_min":0,"x_max":0,"o":"m 189 324 l 64 315 b 442 -17 81 115 239 -17 b 772 261 606 -17 772 78 b 464 550 772 411 629 500 b 210 738 340 585 210 618 b 392 892 210 832 293 892 b 626 686 514 892 610 810 l 751 694 b 393 1008 732 876 592 1008 b 85 738 218 1008 85 904 b 378 460 85 601 174 517 b 647 249 561 408 647 349 b 451 100 647 150 563 100 b 189 324 308 100 215 190 z m 269 -292 l 368 -292 l 486 -83 l 357 -83 z "},"ẞ":{"ha":833,"x_min":0,"x_max":0,"o":"m 449 117 l 263 117 l 263 0 l 449 0 b 799 307 663 0 799 125 b 426 589 799 479 649 593 l 732 858 l 732 986 l 328 986 b 50 696 157 986 50 875 l 50 0 l 169 0 l 169 696 b 328 869 169 808 226 869 l 575 869 l 276 607 l 276 489 l 418 490 b 675 301 576 492 675 421 b 449 117 675 189 589 117 z "},"T":{"ha":833,"x_min":0,"x_max":0,"o":"m 776 986 l 57 986 l 57 869 l 357 869 l 357 0 l 476 0 l 476 869 l 776 869 z "},"Ŧ":{"ha":833,"x_min":0,"x_max":0,"o":"m 776 986 l 57 986 l 57 869 l 357 869 l 357 535 l 171 535 l 171 432 l 357 432 l 357 0 l 476 0 l 476 432 l 661 432 l 661 535 l 476 535 l 476 869 l 776 869 z "},"Ť":{"ha":833,"x_min":0,"x_max":0,"o":"m 776 986 l 57 986 l 57 869 l 357 869 l 357 0 l 476 0 l 476 869 l 776 869 z m 226 1263 l 346 1096 l 488 1096 l 608 1263 l 490 1263 l 417 1160 l 343 1263 z "},"Ţ":{"ha":833,"x_min":0,"x_max":0,"o":"m 776 986 l 57 986 l 57 869 l 357 869 l 357 0 l 383 0 l 322 -67 l 361 -118 b 467 -171 421 -104 467 -126 b 401 -231 467 -207 442 -231 b 301 -160 354 -231 321 -185 l 244 -212 b 407 -306 299 -275 342 -306 b 543 -176 483 -306 543 -249 b 408 -51 543 -103 488 -51 l 456 0 l 476 0 l 476 869 l 776 869 z "},"Ț":{"ha":833,"x_min":0,"x_max":0,"o":"m 776 986 l 57 986 l 57 869 l 357 869 l 357 0 l 476 0 l 476 869 l 776 869 z m 269 -292 l 368 -292 l 486 -83 l 357 -83 z "},"U":{"ha":833,"x_min":0,"x_max":0,"o":"m 746 344 l 746 988 l 626 988 l 626 344 b 417 94 626 185 557 94 b 207 344 276 94 207 185 l 207 988 l 88 988 l 88 344 b 417 -22 88 119 208 -22 b 746 344 625 -22 746 119 z "},"Ú":{"ha":833,"x_min":0,"x_max":0,"o":"m 746 344 l 746 988 l 626 988 l 626 344 b 417 94 626 185 557 94 b 207 344 276 94 207 185 l 207 988 l 88 988 l 88 344 b 417 -22 88 119 208 -22 b 746 344 625 -22 746 119 z m 367 1096 l 465 1096 l 583 1304 l 454 1304 z "},"Ŭ":{"ha":833,"x_min":0,"x_max":0,"o":"m 746 344 l 746 988 l 626 988 l 626 344 b 417 94 626 185 557 94 b 207 344 276 94 207 185 l 207 988 l 88 988 l 88 344 b 417 -22 88 119 208 -22 b 746 344 625 -22 746 119 z m 221 1275 b 417 1097 221 1175 307 1097 b 614 1275 528 1097 614 1175 l 524 1275 b 417 1183 524 1224 476 1183 b 311 1275 357 1183 311 1224 z "},"Û":{"ha":833,"x_min":0,"x_max":0,"o":"m 746 344 l 746 988 l 626 988 l 626 344 b 417 94 626 185 557 94 b 207 344 276 94 207 185 l 207 988 l 88 988 l 88 344 b 417 -22 88 119 208 -22 b 746 344 625 -22 746 119 z m 225 1096 l 342 1096 l 415 1199 l 489 1096 l 607 1096 l 486 1263 l 344 1263 z "},"Ü":{"ha":833,"x_min":0,"x_max":0,"o":"m 746 344 l 746 988 l 626 988 l 626 344 b 417 94 626 185 557 94 b 207 344 276 94 207 185 l 207 988 l 88 988 l 88 344 b 417 -22 88 119 208 -22 b 746 344 625 -22 746 119 z m 222 1094 l 354 1094 l 354 1235 l 222 1235 z m 476 1094 l 608 1094 l 608 1235 l 476 1235 z "},"Ù":{"ha":833,"x_min":0,"x_max":0,"o":"m 746 344 l 746 988 l 626 988 l 626 344 b 417 94 626 185 557 94 b 207 344 276 94 207 185 l 207 988 l 88 988 l 88 344 b 417 -22 88 119 208 -22 b 746 344 625 -22 746 119 z m 250 1304 l 368 1096 l 467 1096 l 379 1304 z "},"Ű":{"ha":833,"x_min":0,"x_max":0,"o":"m 746 344 l 746 988 l 626 988 l 626 344 b 417 94 626 185 557 94 b 207 344 276 94 207 185 l 207 988 l 88 988 l 88 344 b 417 -22 88 119 208 -22 b 746 344 625 -22 746 119 z m 260 1096 l 358 1096 l 476 1304 l 347 1304 z m 454 1096 l 553 1096 l 671 1304 l 542 1304 z "},"Ū":{"ha":833,"x_min":0,"x_max":0,"o":"m 746 344 l 746 988 l 626 988 l 626 344 b 417 94 626 185 557 94 b 207 344 276 94 207 185 l 207 988 l 88 988 l 88 344 b 417 -22 88 119 208 -22 b 746 344 625 -22 746 119 z m 239 1118 l 593 1118 l 593 1204 l 239 1204 z "},"Ų":{"ha":833,"x_min":0,"x_max":0,"o":"m 746 344 l 746 988 l 626 988 l 626 344 b 417 94 626 185 557 94 b 207 344 276 94 207 185 l 207 988 l 88 988 l 88 344 b 417 -22 88 119 208 -22 b 449 -21 428 -22 439 -22 l 415 -58 b 365 -181 381 -96 365 -139 b 490 -297 365 -249 422 -297 b 596 -260 525 -297 561 -286 l 596 -171 b 508 -200 564 -183 532 -200 b 463 -151 481 -200 463 -179 b 504 -62 463 -124 485 -90 l 546 -1 b 746 344 674 47 746 171 z "},"Ů":{"ha":833,"x_min":0,"x_max":0,"o":"m 746 344 l 746 988 l 626 988 l 626 344 b 417 94 626 185 557 94 b 207 344 276 94 207 185 l 207 988 l 88 988 l 88 344 b 417 -22 88 119 208 -22 b 746 344 625 -22 746 119 z m 275 1204 b 417 1064 275 1125 338 1064 b 557 1204 496 1064 557 1125 b 417 1347 557 1283 496 1347 b 275 1204 338 1347 275 1283 z m 358 1206 b 417 1263 358 1238 383 1263 b 474 1206 449 1263 474 1238 b 417 1149 474 1174 449 1149 b 358 1206 383 1149 358 1174 z "},"Ũ":{"ha":833,"x_min":0,"x_max":0,"o":"m 746 344 l 746 988 l 626 988 l 626 344 b 417 94 626 185 557 94 b 207 344 276 94 207 185 l 207 988 l 88 988 l 88 344 b 417 -22 88 119 208 -22 b 746 344 625 -22 746 119 z m 185 1097 l 271 1097 b 328 1190 271 1161 290 1190 b 403 1143 361 1190 379 1165 b 513 1094 425 1119 454 1094 b 650 1275 596 1094 650 1167 l 564 1275 b 507 1181 564 1211 546 1181 b 422 1238 468 1181 451 1211 b 321 1276 400 1260 372 1276 b 185 1097 239 1276 185 1207 z "},"V":{"ha":833,"x_min":0,"x_max":0,"o":"m 33 986 l 338 0 l 496 0 l 800 986 l 671 986 l 417 129 l 163 986 z "},"W":{"ha":833,"x_min":0,"x_max":0,"o":"m 146 0 l 333 0 l 417 689 l 500 0 l 688 0 l 786 986 l 664 986 l 579 122 l 476 903 l 357 903 l 254 122 l 169 986 l 47 986 z "},"Ẃ":{"ha":833,"x_min":0,"x_max":0,"o":"m 146 0 l 333 0 l 417 689 l 500 0 l 688 0 l 786 986 l 664 986 l 579 122 l 476 903 l 357 903 l 254 122 l 169 986 l 47 986 z m 367 1096 l 465 1096 l 583 1304 l 454 1304 z "},"Ŵ":{"ha":833,"x_min":0,"x_max":0,"o":"m 146 0 l 333 0 l 417 689 l 500 0 l 688 0 l 786 986 l 664 986 l 579 122 l 476 903 l 357 903 l 254 122 l 169 986 l 47 986 z m 225 1096 l 342 1096 l 415 1199 l 489 1096 l 607 1096 l 486 1263 l 344 1263 z "},"Ẅ":{"ha":833,"x_min":0,"x_max":0,"o":"m 146 0 l 333 0 l 417 689 l 500 0 l 688 0 l 786 986 l 664 986 l 579 122 l 476 903 l 357 903 l 254 122 l 169 986 l 47 986 z m 222 1094 l 354 1094 l 354 1235 l 222 1235 z m 476 1094 l 608 1094 l 608 1235 l 476 1235 z "},"Ẁ":{"ha":833,"x_min":0,"x_max":0,"o":"m 146 0 l 333 0 l 417 689 l 500 0 l 688 0 l 786 986 l 664 986 l 579 122 l 476 903 l 357 903 l 254 122 l 169 986 l 47 986 z m 250 1304 l 368 1096 l 467 1096 l 379 1304 z "},"X":{"ha":833,"x_min":0,"x_max":0,"o":"m 619 986 l 418 588 l 217 986 l 76 986 l 342 496 l 74 0 l 211 0 l 415 404 l 619 0 l 760 0 l 492 494 l 757 986 z "},"Y":{"ha":833,"x_min":0,"x_max":0,"o":"m 64 986 l 358 403 l 358 0 l 478 0 l 478 403 l 771 986 l 635 986 l 418 542 l 200 986 z "},"Ý":{"ha":833,"x_min":0,"x_max":0,"o":"m 64 986 l 358 403 l 358 0 l 478 0 l 478 403 l 771 986 l 635 986 l 418 542 l 200 986 z m 368 1096 l 467 1096 l 585 1304 l 456 1304 z "},"Ŷ":{"ha":833,"x_min":0,"x_max":0,"o":"m 64 986 l 358 403 l 358 0 l 478 0 l 478 403 l 771 986 l 635 986 l 418 542 l 200 986 z m 226 1096 l 343 1096 l 417 1199 l 490 1096 l 608 1096 l 488 1263 l 346 1263 z "},"Ÿ":{"ha":833,"x_min":0,"x_max":0,"o":"m 64 986 l 358 403 l 358 0 l 478 0 l 478 403 l 771 986 l 635 986 l 418 542 l 200 986 z m 224 1094 l 356 1094 l 356 1235 l 224 1235 z m 478 1094 l 610 1094 l 610 1235 l 478 1235 z "},"Ỳ":{"ha":833,"x_min":0,"x_max":0,"o":"m 64 986 l 358 403 l 358 0 l 478 0 l 478 403 l 771 986 l 635 986 l 418 542 l 200 986 z m 251 1304 l 369 1096 l 468 1096 l 381 1304 z "},"Ỹ":{"ha":833,"x_min":0,"x_max":0,"o":"m 64 986 l 358 403 l 358 0 l 478 0 l 478 403 l 771 986 l 635 986 l 418 542 l 200 986 z m 186 1097 l 272 1097 b 329 1190 272 1161 292 1190 b 404 1143 363 1190 381 1165 b 514 1094 426 1119 456 1094 b 651 1275 597 1094 651 1167 l 565 1275 b 508 1181 565 1211 547 1181 b 424 1238 469 1181 453 1211 b 322 1276 401 1260 374 1276 b 186 1097 240 1276 186 1207 z "},"Z":{"ha":833,"x_min":0,"x_max":0,"o":"m 751 857 l 751 986 l 93 986 l 93 869 l 613 869 l 69 124 l 69 0 l 763 0 l 763 117 l 211 117 z "},"Ź":{"ha":833,"x_min":0,"x_max":0,"o":"m 751 857 l 751 986 l 93 986 l 93 869 l 613 869 l 69 124 l 69 0 l 763 0 l 763 117 l 211 117 z m 367 1096 l 465 1096 l 583 1304 l 454 1304 z "},"Ž":{"ha":833,"x_min":0,"x_max":0,"o":"m 751 857 l 751 986 l 93 986 l 93 869 l 613 869 l 69 124 l 69 0 l 763 0 l 763 117 l 211 117 z m 226 1263 l 346 1096 l 488 1096 l 608 1263 l 490 1263 l 417 1160 l 343 1263 z "},"Ż":{"ha":833,"x_min":0,"x_max":0,"o":"m 751 857 l 751 986 l 93 986 l 93 869 l 613 869 l 69 124 l 69 0 l 763 0 l 763 117 l 211 117 z m 350 1096 l 482 1096 l 482 1236 l 350 1236 z "},"a":{"ha":833,"x_min":0,"x_max":0,"o":"m 103 519 l 228 510 b 404 642 246 586 313 642 b 583 457 513 642 582 582 l 368 414 b 90 193 206 383 90 344 b 356 -17 90 61 210 -17 b 585 114 472 -17 556 46 b 739 0 597 47 650 0 l 775 0 l 775 103 l 746 103 b 700 149 714 103 700 118 l 700 444 b 404 753 700 650 582 753 b 103 519 251 753 131 658 z m 213 193 b 413 322 213 296 303 303 l 586 353 l 586 317 b 371 86 586 171 492 88 b 213 193 263 86 213 135 z "},"á":{"ha":833,"x_min":0,"x_max":0,"o":"m 103 519 l 228 510 b 404 642 246 586 313 642 b 583 457 513 642 582 582 l 368 414 b 90 193 206 383 90 344 b 356 -17 90 61 210 -17 b 585 114 472 -17 556 46 b 739 0 597 47 650 0 l 775 0 l 775 103 l 746 103 b 700 149 714 103 700 118 l 700 444 b 404 753 700 650 582 753 b 103 519 251 753 131 658 z m 213 193 b 413 322 213 296 303 303 l 586 353 l 586 317 b 371 86 586 171 492 88 b 213 193 263 86 213 135 z m 353 846 l 451 846 l 569 1054 l 440 1054 z "},"ă":{"ha":833,"x_min":0,"x_max":0,"o":"m 103 519 l 228 510 b 404 642 246 586 313 642 b 583 457 513 642 582 582 l 368 414 b 90 193 206 383 90 344 b 356 -17 90 61 210 -17 b 585 114 472 -17 556 46 b 739 0 597 47 650 0 l 775 0 l 775 103 l 746 103 b 700 149 714 103 700 118 l 700 444 b 404 753 700 650 582 753 b 103 519 251 753 131 658 z m 207 1025 b 403 847 207 925 293 847 b 600 1025 514 847 600 925 l 510 1025 b 403 933 510 974 463 933 b 297 1025 343 933 297 974 z m 213 193 b 413 322 213 296 303 303 l 586 353 l 586 317 b 371 86 586 171 492 88 b 213 193 263 86 213 135 z "},"ǎ":{"ha":833,"x_min":0,"x_max":0,"o":"m 103 519 l 228 510 b 404 642 246 586 313 642 b 583 457 513 642 582 582 l 368 414 b 90 193 206 383 90 344 b 356 -17 90 61 210 -17 b 585 114 472 -17 556 46 b 739 0 597 47 650 0 l 775 0 l 775 103 l 746 103 b 700 149 714 103 700 118 l 700 444 b 404 753 700 650 582 753 b 103 519 251 753 131 658 z m 213 193 b 413 322 213 296 303 303 l 586 353 l 586 317 b 371 86 586 171 492 88 b 213 193 263 86 213 135 z m 214 1013 l 333 846 l 475 846 l 596 1013 l 478 1013 l 404 910 l 331 1013 z "},"â":{"ha":833,"x_min":0,"x_max":0,"o":"m 103 519 l 228 510 b 404 642 246 586 313 642 b 583 457 513 642 582 582 l 368 414 b 90 193 206 383 90 344 b 356 -17 90 61 210 -17 b 585 114 472 -17 556 46 b 739 0 597 47 650 0 l 775 0 l 775 103 l 746 103 b 700 149 714 103 700 118 l 700 444 b 404 753 700 650 582 753 b 103 519 251 753 131 658 z m 213 193 b 413 322 213 296 303 303 l 586 353 l 586 317 b 371 86 586 171 492 88 b 213 193 263 86 213 135 z m 213 846 l 329 846 l 403 949 l 476 846 l 594 846 l 474 1013 l 332 1013 z "},"ä":{"ha":833,"x_min":0,"x_max":0,"o":"m 103 519 l 228 510 b 404 642 246 586 313 642 b 583 457 513 642 582 582 l 368 414 b 90 193 206 383 90 344 b 356 -17 90 61 210 -17 b 585 114 472 -17 556 46 b 739 0 597 47 650 0 l 775 0 l 775 103 l 746 103 b 700 149 714 103 700 118 l 700 444 b 404 753 700 650 582 753 b 103 519 251 753 131 658 z m 210 844 l 342 844 l 342 985 l 210 985 z m 213 193 b 413 322 213 296 303 303 l 586 353 l 586 317 b 371 86 586 171 492 88 b 213 193 263 86 213 135 z m 464 844 l 596 844 l 596 985 l 464 985 z "},"à":{"ha":833,"x_min":0,"x_max":0,"o":"m 103 519 l 228 510 b 404 642 246 586 313 642 b 583 457 513 642 582 582 l 368 414 b 90 193 206 383 90 344 b 356 -17 90 61 210 -17 b 585 114 472 -17 556 46 b 739 0 597 47 650 0 l 775 0 l 775 103 l 746 103 b 700 149 714 103 700 118 l 700 444 b 404 753 700 650 582 753 b 103 519 251 753 131 658 z m 213 193 b 413 322 213 296 303 303 l 586 353 l 586 317 b 371 86 586 171 492 88 b 213 193 263 86 213 135 z m 238 1054 l 356 846 l 454 846 l 367 1054 z "},"ā":{"ha":833,"x_min":0,"x_max":0,"o":"m 103 519 l 228 510 b 404 642 246 586 313 642 b 583 457 513 642 582 582 l 368 414 b 90 193 206 383 90 344 b 356 -17 90 61 210 -17 b 585 114 472 -17 556 46 b 739 0 597 47 650 0 l 775 0 l 775 103 l 746 103 b 700 149 714 103 700 118 l 700 444 b 404 753 700 650 582 753 b 103 519 251 753 131 658 z m 213 193 b 413 322 213 296 303 303 l 586 353 l 586 317 b 371 86 586 171 492 88 b 213 193 263 86 213 135 z m 226 868 l 581 868 l 581 954 l 226 954 z "},"ą":{"ha":833,"x_min":0,"x_max":0,"o":"m 103 519 l 228 510 b 404 642 246 586 313 642 b 583 457 513 642 582 582 l 368 414 b 90 193 206 383 90 344 b 356 -17 90 61 210 -17 b 585 114 472 -17 556 46 b 697 4 594 58 633 17 l 644 -54 b 594 -176 610 -92 594 -135 b 719 -293 594 -244 651 -293 b 825 -256 754 -293 790 -282 l 825 -167 b 738 -196 793 -179 761 -196 b 692 -147 710 -196 692 -175 b 733 -58 692 -119 714 -86 l 772 0 l 775 0 l 775 103 l 746 103 b 700 149 714 103 700 118 l 700 444 b 404 753 700 650 582 753 b 103 519 251 753 131 658 z m 213 193 b 413 322 213 296 303 303 l 586 353 l 586 317 b 371 86 586 171 492 88 b 213 193 263 86 213 135 z "},"å":{"ha":833,"x_min":0,"x_max":0,"o":"m 103 519 l 228 510 b 404 642 246 586 313 642 b 583 457 513 642 582 582 l 368 414 b 90 193 206 383 90 344 b 356 -17 90 61 210 -17 b 585 114 472 -17 556 46 b 739 0 597 47 650 0 l 775 0 l 775 103 l 746 103 b 700 149 714 103 700 118 l 700 444 b 404 753 700 650 582 753 b 103 519 251 753 131 658 z m 213 193 b 413 322 213 296 303 303 l 586 353 l 586 317 b 371 86 586 171 492 88 b 213 193 263 86 213 135 z m 263 954 b 404 814 263 875 325 814 b 544 954 483 814 544 875 b 404 1097 544 1033 483 1097 b 263 954 325 1097 263 1033 z m 346 956 b 404 1013 346 988 371 1013 b 461 956 436 1013 461 988 b 404 899 461 924 436 899 b 346 956 371 899 346 924 z "},"ã":{"ha":833,"x_min":0,"x_max":0,"o":"m 103 519 l 228 510 b 404 642 246 586 313 642 b 583 457 513 642 582 582 l 368 414 b 90 193 206 383 90 344 b 356 -17 90 61 210 -17 b 585 114 472 -17 556 46 b 739 0 597 47 650 0 l 775 0 l 775 103 l 746 103 b 700 149 714 103 700 118 l 700 444 b 404 753 700 650 582 753 b 103 519 251 753 131 658 z m 171 847 l 257 847 b 314 940 257 911 276 940 b 389 893 347 940 365 915 b 499 844 411 869 440 844 b 636 1025 582 844 636 917 l 550 1025 b 493 931 550 961 532 931 b 408 988 454 931 438 961 b 307 1026 386 1010 358 1026 b 171 847 225 1026 171 957 z m 213 193 b 413 322 213 296 303 303 l 586 353 l 586 317 b 371 86 586 171 492 88 b 213 193 263 86 213 135 z "},"æ":{"ha":833,"x_min":0,"x_max":0,"o":"m 28 519 l 143 510 b 239 642 156 586 175 642 b 331 447 304 642 331 588 l 213 417 b 18 196 93 388 18 303 b 204 -17 18 64 103 -14 b 385 144 294 -14 360 43 b 590 -17 424 39 493 -17 b 808 208 714 -17 774 46 l 690 218 b 590 94 672 129 644 94 b 471 332 521 94 478 179 l 817 332 l 815 385 b 590 753 807 631 733 753 b 410 647 511 753 450 717 b 239 753 376 718 319 753 b 28 519 121 753 51 675 z m 135 196 b 247 319 135 250 172 301 l 332 340 l 332 304 b 215 94 332 164 296 100 b 135 196 168 90 135 132 z m 472 435 b 590 642 486 583 521 642 b 696 435 651 642 682 583 z "},"b":{"ha":833,"x_min":0,"x_max":0,"o":"m 113 986 l 113 0 l 218 0 l 222 106 b 456 -17 263 29 342 -17 b 765 368 668 -17 765 165 b 456 753 765 571 668 753 b 229 639 346 753 271 713 l 229 986 z m 218 368 b 431 647 218 511 279 647 b 643 368 583 647 643 514 b 431 94 643 228 583 94 b 218 368 279 94 218 231 z "},"c":{"ha":833,"x_min":0,"x_max":0,"o":"m 619 489 l 742 497 b 435 753 721 656 585 753 b 99 368 231 753 99 601 b 435 -17 99 135 231 -17 b 749 253 590 -17 724 86 l 625 261 b 435 94 607 156 528 94 b 221 368 299 94 221 197 b 435 642 221 539 299 642 b 619 489 524 642 603 585 z "},"ć":{"ha":833,"x_min":0,"x_max":0,"o":"m 619 489 l 742 497 b 435 753 721 656 585 753 b 99 368 231 753 99 601 b 435 -17 99 135 231 -17 b 749 253 590 -17 724 86 l 625 261 b 435 94 607 156 528 94 b 221 368 299 94 221 197 b 435 642 221 539 299 642 b 619 489 524 642 603 585 z m 385 846 l 483 846 l 601 1054 l 472 1054 z "},"č":{"ha":833,"x_min":0,"x_max":0,"o":"m 619 489 l 742 497 b 435 753 721 656 585 753 b 99 368 231 753 99 601 b 435 -17 99 135 231 -17 b 749 253 590 -17 724 86 l 625 261 b 435 94 607 156 528 94 b 221 368 299 94 221 197 b 435 642 221 539 299 642 b 619 489 524 642 603 585 z m 244 1013 l 364 846 l 506 846 l 626 1013 l 508 1013 l 435 910 l 361 1013 z "},"ç":{"ha":833,"x_min":0,"x_max":0,"o":"m 619 489 l 742 497 b 435 753 721 656 585 753 b 99 368 231 753 99 601 b 389 -14 99 153 211 7 l 340 -67 l 379 -118 b 485 -171 439 -104 485 -126 b 419 -231 485 -207 460 -231 b 319 -160 372 -231 339 -185 l 263 -212 b 425 -306 317 -275 360 -306 b 561 -176 501 -306 561 -249 b 426 -51 561 -103 506 -51 l 458 -15 b 749 253 604 -6 725 94 l 625 261 b 435 94 607 156 528 94 b 221 368 299 94 221 197 b 435 642 221 539 299 642 b 619 489 524 642 603 585 z "},"ĉ":{"ha":833,"x_min":0,"x_max":0,"o":"m 619 489 l 742 497 b 435 753 721 656 585 753 b 99 368 231 753 99 601 b 435 -17 99 135 231 -17 b 749 253 590 -17 724 86 l 625 261 b 435 94 607 156 528 94 b 221 368 299 94 221 197 b 435 642 221 539 299 642 b 619 489 524 642 603 585 z m 243 846 l 360 846 l 433 949 l 507 846 l 625 846 l 504 1013 l 363 1013 z "},"ċ":{"ha":833,"x_min":0,"x_max":0,"o":"m 619 489 l 742 497 b 435 753 721 656 585 753 b 99 368 231 753 99 601 b 435 -17 99 135 231 -17 b 749 253 590 -17 724 86 l 625 261 b 435 94 607 156 528 94 b 221 368 299 94 221 197 b 435 642 221 539 299 642 b 619 489 524 642 603 585 z m 368 846 l 500 846 l 500 986 l 368 986 z "},"d":{"ha":833,"x_min":0,"x_max":0,"o":"m 721 986 l 604 986 l 604 639 b 378 753 563 713 488 753 b 68 368 165 753 68 571 b 378 -17 68 165 165 -17 b 611 106 492 -17 571 29 l 615 0 l 721 0 z m 190 368 b 403 647 190 514 250 647 b 615 368 554 647 615 511 b 403 94 615 231 554 94 b 190 368 250 94 190 228 z "},"ð":{"ha":833,"x_min":0,"x_max":0,"o":"m 418 658 b 56 346 215 676 74 557 b 369 -17 38 149 167 0 b 597 61 450 -25 525 1 b 649 842 749 193 825 593 l 756 881 l 724 967 l 583 917 b 272 1046 510 985 407 1032 l 244 939 b 456 871 326 932 397 908 l 310 818 l 342 731 l 535 801 b 638 506 600 726 636 625 b 418 658 597 594 518 649 z m 179 336 b 408 547 189 471 283 558 b 618 368 515 539 600 475 b 368 90 606 194 501 79 b 179 336 243 104 164 196 z "},"ď":{"ha":833,"x_min":0,"x_max":0,"o":"m 628 986 l 515 986 l 515 639 b 296 753 475 713 403 753 b -3 368 92 753 -3 571 b 296 -17 -3 165 92 -17 b 521 106 406 -17 482 29 l 525 0 l 628 0 z m 115 368 b 321 647 115 514 174 647 b 525 368 467 647 525 511 b 321 94 525 231 467 94 b 115 368 174 94 115 228 z m 679 603 l 750 603 l 846 826 l 846 986 l 682 986 l 682 826 l 750 826 z "},"đ":{"ha":833,"x_min":0,"x_max":0,"o":"m 721 986 l 604 986 l 604 914 l 456 914 l 456 811 l 604 811 l 604 639 b 378 753 563 713 488 753 b 68 368 165 753 68 571 b 378 -17 68 165 165 -17 b 611 106 492 -17 571 29 l 615 0 l 721 0 l 721 811 l 807 811 l 807 914 l 721 914 z m 190 368 b 403 647 190 514 250 647 b 615 368 554 647 615 511 b 403 94 615 231 554 94 b 190 368 250 94 190 228 z "},"e":{"ha":833,"x_min":0,"x_max":0,"o":"m 92 368 b 429 -17 92 135 225 -17 b 738 208 571 -17 694 69 l 613 218 b 429 94 579 140 508 94 b 217 332 303 94 226 182 l 750 332 l 749 385 b 429 753 736 646 592 753 b 92 368 225 753 92 601 z m 218 435 b 429 642 238 565 313 642 b 622 435 519 642 601 589 z "},"é":{"ha":833,"x_min":0,"x_max":0,"o":"m 92 368 b 429 -17 92 135 225 -17 b 738 208 571 -17 694 69 l 613 218 b 429 94 579 140 508 94 b 217 332 303 94 226 182 l 750 332 l 749 385 b 429 753 736 646 592 753 b 92 368 225 753 92 601 z m 218 435 b 429 642 238 565 313 642 b 622 435 519 642 601 589 z m 379 843 l 478 843 l 596 1051 l 467 1051 z "},"ě":{"ha":833,"x_min":0,"x_max":0,"o":"m 92 368 b 429 -17 92 135 225 -17 b 738 208 571 -17 694 69 l 613 218 b 429 94 579 140 508 94 b 217 332 303 94 226 182 l 750 332 l 749 385 b 429 753 736 646 592 753 b 92 368 225 753 92 601 z m 218 435 b 429 642 238 565 313 642 b 622 435 519 642 601 589 z m 239 1010 l 358 843 l 500 843 l 621 1010 l 503 1010 l 429 907 l 356 1010 z "},"ê":{"ha":833,"x_min":0,"x_max":0,"o":"m 92 368 b 429 -17 92 135 225 -17 b 738 208 571 -17 694 69 l 613 218 b 429 94 579 140 508 94 b 217 332 303 94 226 182 l 750 332 l 749 385 b 429 753 736 646 592 753 b 92 368 225 753 92 601 z m 218 435 b 429 642 238 565 313 642 b 622 435 519 642 601 589 z m 238 843 l 354 843 l 428 946 l 501 843 l 619 843 l 499 1010 l 357 1010 z "},"ë":{"ha":833,"x_min":0,"x_max":0,"o":"m 92 368 b 429 -17 92 135 225 -17 b 738 208 571 -17 694 69 l 613 218 b 429 94 579 140 508 94 b 217 332 303 94 226 182 l 750 332 l 749 385 b 429 753 736 646 592 753 b 92 368 225 753 92 601 z m 218 435 b 429 642 238 565 313 642 b 622 435 519 642 601 589 z m 235 842 l 367 842 l 367 982 l 235 982 z m 489 842 l 621 842 l 621 982 l 489 982 z "},"ė":{"ha":833,"x_min":0,"x_max":0,"o":"m 92 368 b 429 -17 92 135 225 -17 b 738 208 571 -17 694 69 l 613 218 b 429 94 579 140 508 94 b 217 332 303 94 226 182 l 750 332 l 749 385 b 429 753 736 646 592 753 b 92 368 225 753 92 601 z m 218 435 b 429 642 238 565 313 642 b 622 435 519 642 601 589 z m 363 843 l 494 843 l 494 983 l 363 983 z "},"è":{"ha":833,"x_min":0,"x_max":0,"o":"m 92 368 b 429 -17 92 135 225 -17 b 738 208 571 -17 694 69 l 613 218 b 429 94 579 140 508 94 b 217 332 303 94 226 182 l 750 332 l 749 385 b 429 753 736 646 592 753 b 92 368 225 753 92 601 z m 218 435 b 429 642 238 565 313 642 b 622 435 519 642 601 589 z m 263 1051 l 381 843 l 479 843 l 392 1051 z "},"ē":{"ha":833,"x_min":0,"x_max":0,"o":"m 92 368 b 429 -17 92 135 225 -17 b 738 208 571 -17 694 69 l 613 218 b 429 94 579 140 508 94 b 217 332 303 94 226 182 l 750 332 l 749 385 b 429 753 736 646 592 753 b 92 368 225 753 92 601 z m 218 435 b 429 642 238 565 313 642 b 622 435 519 642 601 589 z m 251 865 l 606 865 l 606 951 l 251 951 z "},"ę":{"ha":833,"x_min":0,"x_max":0,"o":"m 92 368 b 429 -17 92 135 225 -17 l 440 -17 l 403 -58 b 353 -181 368 -96 353 -139 b 478 -297 353 -249 410 -297 b 583 -260 513 -297 549 -286 l 583 -171 b 496 -200 551 -183 519 -200 b 450 -151 468 -200 450 -179 b 492 -62 450 -124 472 -90 l 533 0 b 738 208 629 31 706 106 l 613 218 b 429 94 579 140 508 94 b 217 332 303 94 226 182 l 750 332 l 749 385 b 429 753 736 646 592 753 b 92 368 225 753 92 601 z m 218 435 b 429 642 238 565 313 642 b 622 435 519 642 601 589 z "},"ẽ":{"ha":833,"x_min":0,"x_max":0,"o":"m 92 368 b 429 -17 92 135 225 -17 b 738 208 571 -17 694 69 l 613 218 b 429 94 579 140 508 94 b 217 332 303 94 226 182 l 750 332 l 749 385 b 429 753 736 646 592 753 b 92 368 225 753 92 601 z m 196 844 l 282 844 b 339 938 282 908 301 938 b 414 890 372 938 390 913 b 524 842 436 867 465 842 b 661 1022 607 842 661 914 l 575 1022 b 518 928 575 958 557 928 b 433 985 479 928 463 958 b 332 1024 411 1007 383 1024 b 196 844 250 1024 196 954 z m 218 435 b 429 642 238 565 313 642 b 622 435 519 642 601 589 z "},"ə":{"ha":833,"x_min":0,"x_max":0,"o":"m 742 368 b 404 753 742 601 608 753 b 96 528 263 753 139 667 l 221 518 b 404 642 254 596 325 642 b 617 404 531 642 607 554 l 83 404 l 85 351 b 404 -17 97 90 242 -17 b 742 368 608 -17 742 135 z m 211 301 l 615 301 b 404 94 596 171 521 94 b 211 301 314 94 232 147 z "},"ʒ":{"ha":833,"x_min":0,"x_max":0,"o":"m 65 10 l 65 -135 b 394 -272 147 -219 274 -272 b 758 29 610 -272 758 -147 b 476 326 758 186 642 310 l 743 600 l 743 736 l 67 736 l 67 619 l 596 619 l 321 335 l 321 217 l 396 218 b 633 29 536 221 633 143 b 394 -156 633 -79 535 -156 b 65 10 292 -156 165 -92 z "},"ǯ":{"ha":833,"x_min":0,"x_max":0,"o":"m 65 10 l 65 -135 b 394 -272 147 -219 274 -272 b 758 29 610 -272 758 -147 b 476 326 758 186 642 310 l 743 600 l 743 736 l 67 736 l 67 619 l 596 619 l 321 335 l 321 217 l 396 218 b 633 29 536 221 633 143 b 394 -156 633 -79 535 -156 b 65 10 292 -156 165 -92 z m 214 1013 l 333 846 l 475 846 l 596 1013 l 478 1013 l 404 910 l 331 1013 z "},"f":{"ha":833,"x_min":0,"x_max":0,"o":"m 294 783 l 294 694 l 97 694 l 97 592 l 294 592 l 294 0 l 411 0 l 411 592 l 694 592 l 694 694 l 411 694 l 411 783 b 493 883 411 846 444 883 l 704 883 l 704 986 l 493 986 b 294 783 357 986 294 907 z "},"g":{"ha":833,"x_min":0,"x_max":0,"o":"m 400 39 b 618 167 490 39 579 92 l 618 46 b 410 -114 618 -58 540 -114 b 225 -3 318 -114 254 -72 l 103 -11 b 410 -225 136 -140 253 -225 b 735 72 603 -225 735 -122 l 735 736 l 624 736 l 624 619 b 400 753 592 697 499 753 b 82 396 214 753 82 606 b 400 39 82 186 214 39 z m 204 396 b 414 642 204 539 283 642 b 619 396 543 642 622 539 b 414 150 618 253 539 150 b 204 396 283 150 204 253 z "},"ğ":{"ha":833,"x_min":0,"x_max":0,"o":"m 400 39 b 618 167 490 39 579 92 l 618 46 b 410 -114 618 -58 540 -114 b 225 -3 318 -114 254 -72 l 103 -11 b 410 -225 136 -140 253 -225 b 735 72 603 -225 735 -122 l 735 736 l 624 736 l 624 619 b 400 753 592 697 499 753 b 82 396 214 753 82 606 b 400 39 82 186 214 39 z m 204 396 b 414 642 204 539 283 642 b 619 396 543 642 622 539 b 414 150 618 253 539 150 b 204 396 283 150 204 253 z m 217 1025 b 413 847 217 925 303 847 b 610 1025 524 847 610 925 l 519 1025 b 413 933 519 974 472 933 b 307 1025 353 933 307 974 z "},"ǧ":{"ha":833,"x_min":0,"x_max":0,"o":"m 400 39 b 618 167 490 39 579 92 l 618 46 b 410 -114 618 -58 540 -114 b 225 -3 318 -114 254 -72 l 103 -11 b 410 -225 136 -140 253 -225 b 735 72 603 -225 735 -122 l 735 736 l 624 736 l 624 619 b 400 753 592 697 499 753 b 82 396 214 753 82 606 b 400 39 82 186 214 39 z m 204 396 b 414 642 204 539 283 642 b 619 396 543 642 622 539 b 414 150 618 253 539 150 b 204 396 283 150 204 253 z m 224 1013 l 343 846 l 485 846 l 606 1013 l 488 1013 l 414 910 l 340 1013 z "},"ĝ":{"ha":833,"x_min":0,"x_max":0,"o":"m 400 39 b 618 167 490 39 579 92 l 618 46 b 410 -114 618 -58 540 -114 b 225 -3 318 -114 254 -72 l 103 -11 b 410 -225 136 -140 253 -225 b 735 72 603 -225 735 -122 l 735 736 l 624 736 l 624 619 b 400 753 592 697 499 753 b 82 396 214 753 82 606 b 400 39 82 186 214 39 z m 204 396 b 414 642 204 539 283 642 b 619 396 543 642 622 539 b 414 150 618 253 539 150 b 204 396 283 150 204 253 z m 222 846 l 339 846 l 413 949 l 486 846 l 604 846 l 483 1013 l 342 1013 z "},"ģ":{"ha":833,"x_min":0,"x_max":0,"o":"m 400 39 b 618 167 490 39 579 92 l 618 46 b 410 -114 618 -58 540 -114 b 225 -3 318 -114 254 -72 l 103 -11 b 410 -225 136 -140 253 -225 b 735 72 603 -225 735 -122 l 735 736 l 624 736 l 624 619 b 400 753 592 697 499 753 b 82 396 214 753 82 606 b 400 39 82 186 214 39 z m 204 396 b 414 642 204 539 283 642 b 619 396 543 642 622 539 b 414 150 618 253 539 150 b 204 396 283 150 204 253 z m 350 860 l 514 860 l 514 1019 l 446 1019 l 517 1243 l 446 1243 l 350 1019 z "},"ġ":{"ha":833,"x_min":0,"x_max":0,"o":"m 400 39 b 618 167 490 39 579 92 l 618 46 b 410 -114 618 -58 540 -114 b 225 -3 318 -114 254 -72 l 103 -11 b 410 -225 136 -140 253 -225 b 735 72 603 -225 735 -122 l 735 736 l 624 736 l 624 619 b 400 753 592 697 499 753 b 82 396 214 753 82 606 b 400 39 82 186 214 39 z m 204 396 b 414 642 204 539 283 642 b 619 396 543 642 622 539 b 414 150 618 253 539 150 b 204 396 283 150 204 253 z m 347 846 l 479 846 l 479 986 l 347 986 z "},"ḡ":{"ha":833,"x_min":0,"x_max":0,"o":"m 400 39 b 618 167 490 39 579 92 l 618 46 b 410 -114 618 -58 540 -114 b 225 -3 318 -114 254 -72 l 103 -11 b 410 -225 136 -140 253 -225 b 735 72 603 -225 735 -122 l 735 736 l 624 736 l 624 619 b 400 753 592 697 499 753 b 82 396 214 753 82 606 b 400 39 82 186 214 39 z m 204 396 b 414 642 204 539 283 642 b 619 396 543 642 622 539 b 414 150 618 253 539 150 b 204 396 283 150 204 253 z m 236 868 l 590 868 l 590 954 l 236 954 z "},"ǥ":{"ha":833,"x_min":0,"x_max":0,"o":"m 400 39 b 618 167 490 39 579 92 l 618 46 b 410 -114 618 -58 540 -114 b 225 -3 318 -114 254 -72 l 103 -11 b 410 -225 136 -140 253 -225 b 735 72 603 -225 735 -122 l 735 340 l 808 340 l 808 443 l 735 443 l 735 736 l 624 736 l 624 619 b 400 753 592 697 499 753 b 82 396 214 753 82 606 b 400 39 82 186 214 39 z m 204 396 b 414 642 204 539 283 642 b 617 443 528 642 604 561 l 410 443 l 410 340 l 615 340 b 414 150 596 226 522 150 b 204 396 283 150 204 253 z "},"h":{"ha":833,"x_min":0,"x_max":0,"o":"m 140 986 l 140 0 l 257 0 l 257 432 b 451 642 257 568 333 642 b 607 432 563 642 607 568 l 607 0 l 724 0 l 724 474 b 476 753 724 629 643 753 b 257 638 386 753 300 717 l 257 986 z "},"ħ":{"ha":833,"x_min":0,"x_max":0,"o":"m 140 986 l 140 914 l 35 914 l 35 811 l 140 811 l 140 0 l 257 0 l 257 432 b 451 642 257 568 333 642 b 607 432 563 642 607 568 l 607 0 l 724 0 l 724 474 b 476 753 724 629 643 753 b 257 638 386 753 300 717 l 257 811 l 388 811 l 388 914 l 257 914 l 257 986 z "},"ĥ":{"ha":833,"x_min":0,"x_max":0,"o":"m 140 986 l 140 0 l 257 0 l 257 432 b 451 642 257 568 333 642 b 607 432 563 642 607 568 l 607 0 l 724 0 l 724 474 b 476 753 724 629 643 753 b 257 638 386 753 300 717 l 257 986 z m 7 1096 l 124 1096 l 197 1199 l 271 1096 l 389 1096 l 268 1263 l 126 1263 z "},"i":{"ha":833,"x_min":0,"x_max":0,"o":"m 524 736 l 143 736 l 143 633 l 407 633 l 407 103 l 115 103 l 115 0 l 775 0 l 775 103 l 524 103 z m 392 846 l 524 846 l 524 986 l 392 986 z "},"ı":{"ha":833,"x_min":0,"x_max":0,"o":"m 524 736 l 143 736 l 143 633 l 407 633 l 407 103 l 115 103 l 115 0 l 775 0 l 775 103 l 524 103 z "},"í":{"ha":833,"x_min":0,"x_max":0,"o":"m 524 736 l 143 736 l 143 633 l 407 633 l 407 103 l 115 103 l 115 0 l 775 0 l 775 103 l 524 103 z m 408 846 l 507 846 l 625 1054 l 496 1054 z "},"î":{"ha":833,"x_min":0,"x_max":0,"o":"m 524 736 l 143 736 l 143 633 l 407 633 l 407 103 l 115 103 l 115 0 l 775 0 l 775 103 l 524 103 z m 268 846 l 385 846 l 458 949 l 532 846 l 650 846 l 529 1013 l 388 1013 z "},"ï":{"ha":833,"x_min":0,"x_max":0,"o":"m 524 736 l 143 736 l 143 633 l 407 633 l 407 103 l 115 103 l 115 0 l 775 0 l 775 103 l 524 103 z m 264 844 l 396 844 l 396 985 l 264 985 z m 518 844 l 650 844 l 650 985 l 518 985 z "},"ì":{"ha":833,"x_min":0,"x_max":0,"o":"m 524 736 l 143 736 l 143 633 l 407 633 l 407 103 l 115 103 l 115 0 l 775 0 l 775 103 l 524 103 z m 292 1054 l 410 846 l 508 846 l 421 1054 z "},"ī":{"ha":833,"x_min":0,"x_max":0,"o":"m 524 736 l 143 736 l 143 633 l 407 633 l 407 103 l 115 103 l 115 0 l 775 0 l 775 103 l 524 103 z m 282 868 l 636 868 l 636 954 l 282 954 z "},"į":{"ha":833,"x_min":0,"x_max":0,"o":"m 524 736 l 143 736 l 143 633 l 407 633 l 407 103 l 115 103 l 115 0 l 697 0 l 644 -58 b 594 -181 610 -96 594 -139 b 719 -297 594 -249 651 -297 b 825 -260 754 -297 790 -286 l 825 -171 b 738 -200 793 -183 761 -200 b 692 -151 710 -200 692 -179 b 733 -62 692 -124 714 -90 l 775 0 l 775 103 l 524 103 z m 392 846 l 524 846 l 524 986 l 392 986 z "},"ĩ":{"ha":833,"x_min":0,"x_max":0,"o":"m 524 736 l 143 736 l 143 633 l 407 633 l 407 103 l 115 103 l 115 0 l 775 0 l 775 103 l 524 103 z m 226 847 l 313 847 b 369 940 313 911 332 940 b 444 893 403 940 421 915 b 554 844 467 869 496 844 b 692 1025 638 844 692 917 l 606 1025 b 549 931 606 961 588 931 b 464 988 510 931 493 961 b 363 1026 442 1010 414 1026 b 226 847 281 1026 226 957 z "},"j":{"ha":833,"x_min":0,"x_max":0,"o":"m 610 0 l 610 736 l 161 736 l 161 633 l 493 633 l 493 0 b 411 -106 493 -61 461 -106 l 160 -106 l 160 -208 l 424 -208 b 610 0 547 -208 610 -124 z m 478 846 l 610 846 l 610 986 l 478 986 z "},"ȷ":{"ha":833,"x_min":0,"x_max":0,"o":"m 610 0 l 610 736 l 161 736 l 161 633 l 493 633 l 493 0 b 411 -106 493 -61 461 -106 l 160 -106 l 160 -208 l 424 -208 b 610 0 547 -208 610 -124 z "},"ĵ":{"ha":833,"x_min":0,"x_max":0,"o":"m 610 0 l 610 736 l 161 736 l 161 633 l 493 633 l 493 0 b 411 -106 493 -61 461 -106 l 160 -106 l 160 -208 l 424 -208 b 610 0 547 -208 610 -124 z m 353 846 l 469 846 l 543 949 l 617 846 l 735 846 l 614 1013 l 472 1013 z "},"k":{"ha":833,"x_min":0,"x_max":0,"o":"m 126 986 l 126 0 l 243 0 l 243 171 l 389 340 l 625 0 l 769 0 l 467 424 l 756 736 l 596 736 l 243 340 l 243 986 z "},"ǩ":{"ha":833,"x_min":0,"x_max":0,"o":"m 126 986 l 126 0 l 243 0 l 243 171 l 389 340 l 625 0 l 769 0 l 467 424 l 756 736 l 596 736 l 243 340 l 243 986 z m -6 1263 l 114 1096 l 256 1096 l 376 1263 l 258 1263 l 185 1160 l 111 1263 z "},"ķ":{"ha":833,"x_min":0,"x_max":0,"o":"m 126 986 l 126 0 l 243 0 l 243 171 l 389 340 l 625 0 l 769 0 l 467 424 l 756 736 l 596 736 l 243 340 l 243 986 z m 281 -292 l 379 -292 l 497 -83 l 368 -83 z "},"l":{"ha":833,"x_min":0,"x_max":0,"o":"m 115 103 l 115 0 l 775 0 l 775 103 l 517 103 l 517 797 b 318 986 517 919 446 986 l 143 986 l 143 883 l 318 883 b 400 797 375 883 400 857 l 400 103 z "},"ĺ":{"ha":833,"x_min":0,"x_max":0,"o":"m 115 103 l 115 0 l 775 0 l 775 103 l 517 103 l 517 797 b 318 986 517 919 446 986 l 143 986 l 143 883 l 318 883 b 400 797 375 883 400 857 l 400 103 z m 408 1096 l 507 1096 l 625 1304 l 496 1304 z "},"ľ":{"ha":833,"x_min":0,"x_max":0,"o":"m 115 103 l 115 0 l 775 0 l 775 103 l 517 103 l 517 797 b 318 986 517 919 446 986 l 143 986 l 143 883 l 318 883 b 400 797 375 883 400 857 l 400 103 z m 614 603 l 685 603 l 781 826 l 781 986 l 617 986 l 617 826 l 685 826 z "},"ļ":{"ha":833,"x_min":0,"x_max":0,"o":"m 115 103 l 115 0 l 775 0 l 775 103 l 517 103 l 517 797 b 318 986 517 919 446 986 l 143 986 l 143 883 l 318 883 b 400 797 375 883 400 857 l 400 103 z m 310 -292 l 408 -292 l 526 -83 l 397 -83 z "},"ł":{"ha":833,"x_min":0,"x_max":0,"o":"m 143 103 l 143 0 l 803 0 l 803 103 l 544 103 l 544 508 l 672 567 l 629 660 l 544 621 l 544 797 b 346 986 544 919 474 986 l 171 986 l 171 883 l 346 883 b 428 797 403 883 428 857 l 428 567 l 315 515 l 358 422 l 428 454 l 428 103 z "},"m":{"ha":833,"x_min":0,"x_max":0,"o":"m 65 736 l 65 0 l 183 0 l 183 442 b 275 650 183 575 218 650 b 363 442 339 650 363 590 l 363 0 l 479 0 l 479 442 b 581 650 479 575 517 650 b 660 442 638 650 660 592 l 660 0 l 776 0 l 776 442 b 615 753 776 658 728 753 b 453 615 539 753 479 700 b 328 753 431 711 392 753 b 176 635 254 753 204 711 l 172 736 z "},"n":{"ha":833,"x_min":0,"x_max":0,"o":"m 133 736 l 133 0 l 250 0 l 250 440 b 444 650 250 576 326 650 b 600 440 556 650 600 576 l 600 0 l 717 0 l 717 474 b 468 753 717 629 636 753 b 243 610 367 753 281 708 l 239 736 z "},"ń":{"ha":833,"x_min":0,"x_max":0,"o":"m 133 736 l 133 0 l 250 0 l 250 440 b 444 650 250 576 326 650 b 600 440 556 650 600 576 l 600 0 l 717 0 l 717 474 b 468 753 717 629 636 753 b 243 610 367 753 281 708 l 239 736 z m 375 846 l 474 846 l 592 1054 l 463 1054 z "},"ň":{"ha":833,"x_min":0,"x_max":0,"o":"m 133 736 l 133 0 l 250 0 l 250 440 b 444 650 250 576 326 650 b 600 440 556 650 600 576 l 600 0 l 717 0 l 717 474 b 468 753 717 629 636 753 b 243 610 367 753 281 708 l 239 736 z m 235 1013 l 354 846 l 496 846 l 617 1013 l 499 1013 l 425 910 l 351 1013 z "},"ņ":{"ha":833,"x_min":0,"x_max":0,"o":"m 133 736 l 133 0 l 250 0 l 250 440 b 444 650 250 576 326 650 b 600 440 556 650 600 576 l 600 0 l 717 0 l 717 474 b 468 753 717 629 636 753 b 243 610 367 753 281 708 l 239 736 z m 278 -292 l 376 -292 l 494 -83 l 365 -83 z "},"ñ":{"ha":833,"x_min":0,"x_max":0,"o":"m 133 736 l 133 0 l 250 0 l 250 440 b 444 650 250 576 326 650 b 600 440 556 650 600 576 l 600 0 l 717 0 l 717 474 b 468 753 717 629 636 753 b 243 610 367 753 281 708 l 239 736 z m 192 847 l 278 847 b 335 940 278 911 297 940 b 410 893 368 940 386 915 b 519 844 432 869 461 844 b 657 1025 603 844 657 917 l 571 1025 b 514 931 571 961 553 931 b 429 988 475 931 458 961 b 328 1026 407 1010 379 1026 b 192 847 246 1026 192 957 z "},"ŋ":{"ha":833,"x_min":0,"x_max":0,"o":"m 133 736 l 133 0 l 250 0 l 250 440 b 444 650 250 576 326 650 b 600 440 556 650 600 576 l 600 -11 b 511 -106 600 -68 567 -106 l 396 -106 l 396 -208 l 508 -208 b 717 -10 638 -208 717 -131 l 717 474 b 468 753 717 629 636 753 b 243 610 367 753 281 708 l 239 736 z "},"o":{"ha":833,"x_min":0,"x_max":0,"o":"m 417 -17 b 753 368 621 -17 753 135 b 417 753 753 601 621 753 b 81 368 213 753 81 601 b 417 -17 81 135 213 -17 z m 203 368 b 417 642 203 539 281 642 b 631 368 553 642 631 539 b 417 94 631 197 553 94 b 203 368 281 94 203 197 z "},"ó":{"ha":833,"x_min":0,"x_max":0,"o":"m 417 -17 b 753 368 621 -17 753 135 b 417 753 753 601 621 753 b 81 368 213 753 81 601 b 417 -17 81 135 213 -17 z m 203 368 b 417 642 203 539 281 642 b 631 368 553 642 631 539 b 417 94 631 197 553 94 b 203 368 281 94 203 197 z m 367 846 l 465 846 l 583 1054 l 454 1054 z "},"ô":{"ha":833,"x_min":0,"x_max":0,"o":"m 417 -17 b 753 368 621 -17 753 135 b 417 753 753 601 621 753 b 81 368 213 753 81 601 b 417 -17 81 135 213 -17 z m 203 368 b 417 642 203 539 281 642 b 631 368 553 642 631 539 b 417 94 631 197 553 94 b 203 368 281 94 203 197 z m 225 846 l 342 846 l 415 949 l 489 846 l 607 846 l 486 1013 l 344 1013 z "},"ö":{"ha":833,"x_min":0,"x_max":0,"o":"m 417 -17 b 753 368 621 -17 753 135 b 417 753 753 601 621 753 b 81 368 213 753 81 601 b 417 -17 81 135 213 -17 z m 203 368 b 417 642 203 539 281 642 b 631 368 553 642 631 539 b 417 94 631 197 553 94 b 203 368 281 94 203 197 z m 222 844 l 354 844 l 354 985 l 222 985 z m 476 844 l 608 844 l 608 985 l 476 985 z "},"ò":{"ha":833,"x_min":0,"x_max":0,"o":"m 417 -17 b 753 368 621 -17 753 135 b 417 753 753 601 621 753 b 81 368 213 753 81 601 b 417 -17 81 135 213 -17 z m 203 368 b 417 642 203 539 281 642 b 631 368 553 642 631 539 b 417 94 631 197 553 94 b 203 368 281 94 203 197 z m 250 1054 l 368 846 l 467 846 l 379 1054 z "},"ő":{"ha":833,"x_min":0,"x_max":0,"o":"m 417 -17 b 753 368 621 -17 753 135 b 417 753 753 601 621 753 b 81 368 213 753 81 601 b 417 -17 81 135 213 -17 z m 203 368 b 417 642 203 539 281 642 b 631 368 553 642 631 539 b 417 94 631 197 553 94 b 203 368 281 94 203 197 z m 260 846 l 358 846 l 476 1054 l 347 1054 z m 454 846 l 553 846 l 671 1054 l 542 1054 z "},"ō":{"ha":833,"x_min":0,"x_max":0,"o":"m 417 -17 b 753 368 621 -17 753 135 b 417 753 753 601 621 753 b 81 368 213 753 81 601 b 417 -17 81 135 213 -17 z m 203 368 b 417 642 203 539 281 642 b 631 368 553 642 631 539 b 417 94 631 197 553 94 b 203 368 281 94 203 197 z m 239 868 l 593 868 l 593 954 l 239 954 z "},"ø":{"ha":833,"x_min":0,"x_max":0,"o":"m 417 -17 b 753 368 621 -17 753 135 b 678 628 753 474 726 561 l 783 753 l 663 753 l 613 693 b 417 753 560 732 493 753 b 81 368 213 753 81 601 b 140 131 81 274 101 194 l 17 -17 l 138 -17 l 201 60 b 417 -17 257 10 331 -17 z m 203 368 b 417 642 203 539 281 642 b 539 604 465 642 506 629 l 224 231 b 203 368 210 269 203 315 z m 276 149 l 597 532 b 631 368 619 489 631 433 b 417 94 631 197 553 94 b 276 149 358 94 311 113 z "},"õ":{"ha":833,"x_min":0,"x_max":0,"o":"m 417 -17 b 753 368 621 -17 753 135 b 417 753 753 601 621 753 b 81 368 213 753 81 601 b 417 -17 81 135 213 -17 z m 185 847 l 271 847 b 328 940 271 911 290 940 b 403 893 361 940 379 915 b 513 844 425 869 454 844 b 650 1025 596 844 650 917 l 564 1025 b 507 931 564 961 546 931 b 422 988 468 931 451 961 b 321 1026 400 1010 372 1026 b 185 847 239 1026 185 957 z m 203 368 b 417 642 203 539 281 642 b 631 368 553 642 631 539 b 417 94 631 197 553 94 b 203 368 281 94 203 197 z "},"œ":{"ha":833,"x_min":0,"x_max":0,"o":"m 243 -17 b 414 90 315 -17 374 21 b 594 -17 454 19 515 -17 b 813 208 718 -17 778 46 l 694 218 b 594 94 676 129 649 94 b 475 332 525 94 482 179 l 821 332 l 819 385 b 594 753 811 631 738 753 b 414 646 515 753 454 717 b 243 753 374 715 315 753 b 14 368 103 753 14 604 b 243 -17 14 132 103 -17 z m 131 368 b 243 642 131 536 175 642 b 357 368 314 642 357 536 b 243 94 357 200 314 94 b 131 368 175 94 131 200 z m 476 435 b 588 642 488 572 524 642 b 700 435 653 642 690 574 z "},"p":{"ha":833,"x_min":0,"x_max":0,"o":"m 111 -208 l 228 -208 l 228 103 b 447 -17 268 25 344 -17 b 765 368 668 -17 765 165 b 447 753 765 571 668 753 b 221 626 339 753 261 708 l 217 736 l 111 736 z m 215 368 b 428 642 215 506 278 642 b 640 368 579 642 640 508 b 428 94 640 228 579 94 b 215 368 278 94 215 231 z "},"þ":{"ha":833,"x_min":0,"x_max":0,"o":"m 0 986 l 0 -208 l 119 -208 l 119 89 b 343 -17 163 22 238 -17 b 654 368 556 -17 654 165 b 343 753 654 571 556 753 b 119 643 238 753 161 714 l 119 986 z m 106 368 b 319 647 106 511 168 647 b 532 368 472 647 532 514 b 319 94 532 228 472 94 b 106 368 168 94 106 231 z "},"q":{"ha":833,"x_min":0,"x_max":0,"o":"m 722 -208 l 722 736 l 617 736 l 613 626 b 386 753 572 708 494 753 b 68 368 165 753 68 571 b 386 -17 68 165 165 -17 b 606 103 489 -17 565 25 l 606 -208 z m 193 368 b 406 642 193 508 254 642 b 618 368 556 642 618 506 b 406 94 618 231 556 94 b 193 368 254 94 193 228 z "},"r":{"ha":833,"x_min":0,"x_max":0,"o":"m 404 736 l 124 736 l 124 633 l 315 633 l 315 103 l 124 103 l 124 0 l 672 0 l 672 103 l 432 103 l 432 439 b 597 633 432 565 485 633 l 744 633 l 744 736 l 597 736 b 414 597 500 736 440 692 z "},"ŕ":{"ha":833,"x_min":0,"x_max":0,"o":"m 404 736 l 124 736 l 124 633 l 315 633 l 315 103 l 124 103 l 124 0 l 672 0 l 672 103 l 432 103 l 432 439 b 597 633 432 565 485 633 l 744 633 l 744 736 l 597 736 b 414 597 500 736 440 692 z m 421 846 l 519 846 l 638 1054 l 508 1054 z "},"ř":{"ha":833,"x_min":0,"x_max":0,"o":"m 404 736 l 124 736 l 124 633 l 315 633 l 315 103 l 124 103 l 124 0 l 672 0 l 672 103 l 432 103 l 432 439 b 597 633 432 565 485 633 l 744 633 l 744 736 l 597 736 b 414 597 500 736 440 692 z m 282 1013 l 401 846 l 543 846 l 664 1013 l 546 1013 l 472 910 l 399 1013 z "},"ŗ":{"ha":833,"x_min":0,"x_max":0,"o":"m 404 736 l 124 736 l 124 633 l 315 633 l 315 103 l 124 103 l 124 0 l 672 0 l 672 103 l 432 103 l 432 439 b 597 633 432 565 485 633 l 744 633 l 744 736 l 597 736 b 414 597 500 736 440 692 z m 226 -292 l 325 -292 l 443 -83 l 314 -83 z "},"s":{"ha":833,"x_min":0,"x_max":0,"o":"m 597 508 l 714 517 b 419 753 690 660 572 753 b 138 521 269 753 136 669 b 414 306 138 386 279 338 b 596 194 492 288 596 275 b 432 94 596 115 511 94 b 235 240 329 94 249 151 l 114 232 b 432 -17 124 79 263 -17 b 719 188 576 -17 719 43 b 435 407 719 328 574 372 b 260 526 354 429 260 447 b 407 642 258 603 331 642 b 597 508 501 642 581 592 z "},"ś":{"ha":833,"x_min":0,"x_max":0,"o":"m 597 508 l 714 517 b 419 753 690 660 572 753 b 138 521 269 753 136 669 b 414 306 138 386 279 338 b 596 194 492 288 596 275 b 432 94 596 115 511 94 b 235 240 329 94 249 151 l 114 232 b 432 -17 124 79 263 -17 b 719 188 576 -17 719 43 b 435 407 719 328 574 372 b 260 526 354 429 260 447 b 407 642 258 603 331 642 b 597 508 501 642 581 592 z m 369 846 l 468 846 l 586 1054 l 457 1054 z "},"ꞌ":{"ha":833,"x_min":0,"x_max":0,"o":"m 356 986 l 356 797 l 375 525 l 458 525 l 478 797 l 478 986 z "},"š":{"ha":833,"x_min":0,"x_max":0,"o":"m 597 508 l 714 517 b 419 753 690 660 572 753 b 138 521 269 753 136 669 b 414 306 138 386 279 338 b 596 194 492 288 596 275 b 432 94 596 115 511 94 b 235 240 329 94 249 151 l 114 232 b 432 -17 124 79 263 -17 b 719 188 576 -17 719 43 b 435 407 719 328 574 372 b 260 526 354 429 260 447 b 407 642 258 603 331 642 b 597 508 501 642 581 592 z m 229 1013 l 349 846 l 490 846 l 611 1013 l 493 1013 l 419 910 l 346 1013 z "},"ş":{"ha":833,"x_min":0,"x_max":0,"o":"m 597 508 l 714 517 b 419 753 690 660 572 753 b 138 521 269 753 136 669 b 414 306 138 386 279 338 b 596 194 492 288 596 275 b 432 94 596 115 511 94 b 235 240 329 94 249 151 l 114 232 b 374 -12 122 97 232 7 l 325 -67 l 364 -118 b 469 -171 424 -104 469 -126 b 404 -231 469 -207 444 -231 b 304 -160 357 -231 324 -185 l 247 -212 b 410 -306 301 -275 344 -306 b 546 -176 486 -306 546 -249 b 411 -51 546 -103 490 -51 l 443 -17 b 719 188 583 -14 719 47 b 435 407 719 328 574 372 b 260 526 354 429 260 447 b 407 642 258 603 331 642 b 597 508 501 642 581 592 z "},"ŝ":{"ha":833,"x_min":0,"x_max":0,"o":"m 597 508 l 714 517 b 419 753 690 660 572 753 b 138 521 269 753 136 669 b 414 306 138 386 279 338 b 596 194 492 288 596 275 b 432 94 596 115 511 94 b 235 240 329 94 249 151 l 114 232 b 432 -17 124 79 263 -17 b 719 188 576 -17 719 43 b 435 407 719 328 574 372 b 260 526 354 429 260 447 b 407 642 258 603 331 642 b 597 508 501 642 581 592 z m 228 846 l 344 846 l 418 949 l 492 846 l 610 846 l 489 1013 l 347 1013 z "},"ș":{"ha":833,"x_min":0,"x_max":0,"o":"m 597 508 l 714 517 b 419 753 690 660 572 753 b 138 521 269 753 136 669 b 414 306 138 386 279 338 b 596 194 492 288 596 275 b 432 94 596 115 511 94 b 235 240 329 94 249 151 l 114 232 b 432 -17 124 79 263 -17 b 719 188 576 -17 719 43 b 435 407 719 328 574 372 b 260 526 354 429 260 447 b 407 642 258 603 331 642 b 597 508 501 642 581 592 z m 272 -292 l 371 -292 l 489 -83 l 360 -83 z "},"ß":{"ha":833,"x_min":0,"x_max":0,"o":"m 407 111 b 633 286 525 111 633 168 b 393 469 633 414 522 472 l 332 468 l 332 581 l 393 579 b 575 740 500 576 575 644 b 403 892 575 829 504 892 b 224 697 297 892 224 826 l 224 0 l 106 0 l 106 697 b 403 1003 106 892 233 1003 b 694 751 575 1003 694 903 b 546 535 694 651 642 567 b 756 276 668 503 756 410 b 407 0 756 94 590 0 l 318 0 l 318 111 z "},"t":{"ha":833,"x_min":0,"x_max":0,"o":"m 299 931 l 299 736 l 88 736 l 88 633 l 299 633 l 299 203 b 511 0 299 81 361 0 l 708 0 l 708 103 l 511 103 b 415 203 449 103 415 140 l 415 633 l 710 633 l 710 736 l 415 736 l 415 931 z "},"ŧ":{"ha":833,"x_min":0,"x_max":0,"o":"m 299 931 l 299 736 l 88 736 l 88 633 l 299 633 l 299 443 l 92 443 l 92 340 l 299 340 l 299 203 b 511 0 299 81 361 0 l 708 0 l 708 103 l 511 103 b 415 203 449 103 415 140 l 415 340 l 710 340 l 710 443 l 415 443 l 415 633 l 710 633 l 710 736 l 415 736 l 415 931 z "},"ť":{"ha":833,"x_min":0,"x_max":0,"o":"m 299 931 l 299 736 l 88 736 l 88 633 l 299 633 l 299 203 b 511 0 299 81 361 0 l 708 0 l 708 103 l 511 103 b 415 203 449 103 415 140 l 415 633 l 710 633 l 710 736 l 415 736 l 415 931 z m 497 829 l 568 829 l 664 1053 l 664 1213 l 500 1213 l 500 1053 l 568 1053 z "},"ţ":{"ha":833,"x_min":0,"x_max":0,"o":"m 299 931 l 299 736 l 88 736 l 88 633 l 299 633 l 299 203 b 419 13 299 110 335 40 l 347 -67 l 386 -118 b 492 -171 446 -104 492 -126 b 426 -231 492 -207 467 -231 b 326 -160 379 -231 346 -185 l 269 -212 b 432 -306 324 -275 367 -306 b 568 -176 508 -306 568 -249 b 433 -51 568 -103 513 -51 l 482 1 b 511 0 490 0 501 0 l 708 0 l 708 103 l 511 103 b 415 203 449 103 415 140 l 415 633 l 710 633 l 710 736 l 415 736 l 415 931 z "},"ț":{"ha":833,"x_min":0,"x_max":0,"o":"m 299 931 l 299 736 l 88 736 l 88 633 l 299 633 l 299 203 b 511 0 299 81 361 0 l 708 0 l 708 103 l 511 103 b 415 203 449 103 415 140 l 415 633 l 710 633 l 710 736 l 415 736 l 415 931 z m 294 -292 l 393 -292 l 511 -83 l 382 -83 z "},"u":{"ha":833,"x_min":0,"x_max":0,"o":"m 700 0 l 700 736 l 583 736 l 583 297 b 393 86 583 160 507 86 b 242 297 286 86 242 160 l 242 736 l 124 736 l 124 263 b 368 -17 124 107 204 -17 b 589 122 465 -17 550 26 l 589 0 z "},"ú":{"ha":833,"x_min":0,"x_max":0,"o":"m 700 0 l 700 736 l 583 736 l 583 297 b 393 86 583 160 507 86 b 242 297 286 86 242 160 l 242 736 l 124 736 l 124 263 b 368 -17 124 107 204 -17 b 589 122 465 -17 550 26 l 589 0 z m 357 846 l 456 846 l 574 1054 l 444 1054 z "},"ŭ":{"ha":833,"x_min":0,"x_max":0,"o":"m 700 0 l 700 736 l 583 736 l 583 297 b 393 86 583 160 507 86 b 242 297 286 86 242 160 l 242 736 l 124 736 l 124 263 b 368 -17 124 107 204 -17 b 589 122 465 -17 550 26 l 589 0 z m 211 1025 b 407 847 211 925 297 847 b 604 1025 518 847 604 925 l 514 1025 b 407 933 514 974 467 933 b 301 1025 347 933 301 974 z "},"û":{"ha":833,"x_min":0,"x_max":0,"o":"m 700 0 l 700 736 l 583 736 l 583 297 b 393 86 583 160 507 86 b 242 297 286 86 242 160 l 242 736 l 124 736 l 124 263 b 368 -17 124 107 204 -17 b 589 122 465 -17 550 26 l 589 0 z m 215 846 l 332 846 l 406 949 l 479 846 l 597 846 l 476 1013 l 335 1013 z "},"ü":{"ha":833,"x_min":0,"x_max":0,"o":"m 700 0 l 700 736 l 583 736 l 583 297 b 393 86 583 160 507 86 b 242 297 286 86 242 160 l 242 736 l 124 736 l 124 263 b 368 -17 124 107 204 -17 b 589 122 465 -17 550 26 l 589 0 z m 213 844 l 344 844 l 344 985 l 213 985 z m 467 844 l 599 844 l 599 985 l 467 985 z "},"ù":{"ha":833,"x_min":0,"x_max":0,"o":"m 700 0 l 700 736 l 583 736 l 583 297 b 393 86 583 160 507 86 b 242 297 286 86 242 160 l 242 736 l 124 736 l 124 263 b 368 -17 124 107 204 -17 b 589 122 465 -17 550 26 l 589 0 z m 240 1054 l 358 846 l 457 846 l 369 1054 z "},"ű":{"ha":833,"x_min":0,"x_max":0,"o":"m 700 0 l 700 736 l 583 736 l 583 297 b 393 86 583 160 507 86 b 242 297 286 86 242 160 l 242 736 l 124 736 l 124 263 b 368 -17 124 107 204 -17 b 589 122 465 -17 550 26 l 589 0 z m 250 846 l 349 846 l 467 1054 l 338 1054 z m 444 846 l 543 846 l 661 1054 l 532 1054 z "},"ū":{"ha":833,"x_min":0,"x_max":0,"o":"m 700 0 l 700 736 l 583 736 l 583 297 b 393 86 583 160 507 86 b 242 297 286 86 242 160 l 242 736 l 124 736 l 124 263 b 368 -17 124 107 204 -17 b 589 122 465 -17 550 26 l 589 0 z m 229 868 l 583 868 l 583 954 l 229 954 z "},"ų":{"ha":833,"x_min":0,"x_max":0,"o":"m 700 0 l 700 736 l 583 736 l 583 297 b 393 86 583 160 507 86 b 242 297 286 86 242 160 l 242 736 l 124 736 l 124 263 b 368 -17 124 107 204 -17 b 589 122 465 -17 550 26 l 589 0 l 622 0 l 569 -58 b 519 -181 535 -96 519 -139 b 644 -297 519 -249 576 -297 b 750 -260 679 -297 715 -286 l 750 -171 b 663 -200 718 -183 686 -200 b 617 -151 635 -200 617 -179 b 658 -62 617 -124 639 -90 z "},"ů":{"ha":833,"x_min":0,"x_max":0,"o":"m 700 0 l 700 736 l 583 736 l 583 297 b 393 86 583 160 507 86 b 242 297 286 86 242 160 l 242 736 l 124 736 l 124 263 b 368 -17 124 107 204 -17 b 589 122 465 -17 550 26 l 589 0 z m 265 954 b 407 814 265 875 328 814 b 547 954 486 814 547 875 b 407 1097 547 1033 486 1097 b 265 954 328 1097 265 1033 z m 349 956 b 407 1013 349 988 374 1013 b 464 956 439 1013 464 988 b 407 899 464 924 439 899 b 349 956 374 899 349 924 z "},"ũ":{"ha":833,"x_min":0,"x_max":0,"o":"m 700 0 l 700 736 l 583 736 l 583 297 b 393 86 583 160 507 86 b 242 297 286 86 242 160 l 242 736 l 124 736 l 124 263 b 368 -17 124 107 204 -17 b 589 122 465 -17 550 26 l 589 0 z m 175 847 l 261 847 b 318 940 261 911 281 940 b 393 893 351 940 369 915 b 503 844 415 869 444 844 b 640 1025 586 844 640 917 l 554 1025 b 497 931 554 961 536 931 b 413 988 458 931 442 961 b 311 1026 390 1010 363 1026 b 175 847 229 1026 175 957 z "},"v":{"ha":833,"x_min":0,"x_max":0,"o":"m 758 736 l 633 736 l 417 122 l 200 736 l 75 736 l 343 0 l 490 0 z "},"w":{"ha":833,"x_min":0,"x_max":0,"o":"m 479 639 l 354 639 l 247 157 l 147 736 l 25 736 l 175 0 l 317 0 l 417 450 l 517 0 l 658 0 l 808 736 l 686 736 l 586 157 z "},"ẃ":{"ha":833,"x_min":0,"x_max":0,"o":"m 479 639 l 354 639 l 247 157 l 147 736 l 25 736 l 175 0 l 317 0 l 417 450 l 517 0 l 658 0 l 808 736 l 686 736 l 586 157 z m 367 846 l 465 846 l 583 1054 l 454 1054 z "},"ŵ":{"ha":833,"x_min":0,"x_max":0,"o":"m 479 639 l 354 639 l 247 157 l 147 736 l 25 736 l 175 0 l 317 0 l 417 450 l 517 0 l 658 0 l 808 736 l 686 736 l 586 157 z m 225 846 l 342 846 l 415 949 l 489 846 l 607 846 l 486 1013 l 344 1013 z "},"ẅ":{"ha":833,"x_min":0,"x_max":0,"o":"m 479 639 l 354 639 l 247 157 l 147 736 l 25 736 l 175 0 l 317 0 l 417 450 l 517 0 l 658 0 l 808 736 l 686 736 l 586 157 z m 222 844 l 354 844 l 354 985 l 222 985 z m 476 844 l 608 844 l 608 985 l 476 985 z "},"ẁ":{"ha":833,"x_min":0,"x_max":0,"o":"m 479 639 l 354 639 l 247 157 l 147 736 l 25 736 l 175 0 l 317 0 l 417 450 l 517 0 l 658 0 l 808 736 l 686 736 l 586 157 z m 250 1054 l 368 846 l 467 846 l 379 1054 z "},"x":{"ha":833,"x_min":0,"x_max":0,"o":"m 600 736 l 417 467 l 232 736 l 89 736 l 344 378 l 75 0 l 218 0 l 417 286 l 614 0 l 757 0 l 490 376 l 744 736 z "},"y":{"ha":833,"x_min":0,"x_max":0,"o":"m 79 736 l 347 14 l 388 14 l 361 -54 b 289 -106 347 -90 325 -106 l 213 -106 l 213 -208 l 301 -208 b 465 -93 385 -208 438 -172 l 763 736 l 639 736 l 425 125 l 204 736 z "},"ý":{"ha":833,"x_min":0,"x_max":0,"o":"m 79 736 l 347 14 l 388 14 l 361 -54 b 289 -106 347 -90 325 -106 l 213 -106 l 213 -208 l 301 -208 b 465 -93 385 -208 438 -172 l 763 736 l 639 736 l 425 125 l 204 736 z m 371 846 l 469 846 l 588 1054 l 458 1054 z "},"ŷ":{"ha":833,"x_min":0,"x_max":0,"o":"m 79 736 l 347 14 l 388 14 l 361 -54 b 289 -106 347 -90 325 -106 l 213 -106 l 213 -208 l 301 -208 b 465 -93 385 -208 438 -172 l 763 736 l 639 736 l 425 125 l 204 736 z m 231 846 l 347 846 l 421 949 l 494 846 l 613 846 l 492 1013 l 350 1013 z "},"ÿ":{"ha":833,"x_min":0,"x_max":0,"o":"m 79 736 l 347 14 l 388 14 l 361 -54 b 289 -106 347 -90 325 -106 l 213 -106 l 213 -208 l 301 -208 b 465 -93 385 -208 438 -172 l 763 736 l 639 736 l 425 125 l 204 736 z m 226 844 l 358 844 l 358 985 l 226 985 z m 481 844 l 613 844 l 613 985 l 481 985 z "},"ỳ":{"ha":833,"x_min":0,"x_max":0,"o":"m 79 736 l 347 14 l 388 14 l 361 -54 b 289 -106 347 -90 325 -106 l 213 -106 l 213 -208 l 301 -208 b 465 -93 385 -208 438 -172 l 763 736 l 639 736 l 425 125 l 204 736 z m 254 1054 l 372 846 l 471 846 l 383 1054 z "},"ỹ":{"ha":833,"x_min":0,"x_max":0,"o":"m 79 736 l 347 14 l 388 14 l 361 -54 b 289 -106 347 -90 325 -106 l 213 -106 l 213 -208 l 301 -208 b 465 -93 385 -208 438 -172 l 763 736 l 639 736 l 425 125 l 204 736 z m 189 847 l 275 847 b 332 940 275 911 294 940 b 407 893 365 940 383 915 b 517 844 429 869 458 844 b 654 1025 600 844 654 917 l 568 1025 b 511 931 568 961 550 931 b 426 988 472 931 456 961 b 325 1026 404 1010 376 1026 b 189 847 243 1026 189 957 z "},"z":{"ha":833,"x_min":0,"x_max":0,"o":"m 708 607 l 708 736 l 128 736 l 128 633 l 583 633 l 114 126 l 114 0 l 719 0 l 719 103 l 240 103 z "},"ź":{"ha":833,"x_min":0,"x_max":0,"o":"m 708 607 l 708 736 l 128 736 l 128 633 l 583 633 l 114 126 l 114 0 l 719 0 l 719 103 l 240 103 z m 368 846 l 467 846 l 585 1054 l 456 1054 z "},"ž":{"ha":833,"x_min":0,"x_max":0,"o":"m 708 607 l 708 736 l 128 736 l 128 633 l 583 633 l 114 126 l 114 0 l 719 0 l 719 103 l 240 103 z m 228 1013 l 347 846 l 489 846 l 610 1013 l 492 1013 l 418 910 l 344 1013 z "},"ż":{"ha":833,"x_min":0,"x_max":0,"o":"m 708 607 l 708 736 l 128 736 l 128 633 l 583 633 l 114 126 l 114 0 l 719 0 l 719 103 l 240 103 z m 351 846 l 483 846 l 483 986 l 351 986 z "},"ª":{"ha":833,"x_min":0,"x_max":0,"o":"m 103 519 l 228 510 b 404 642 246 586 313 642 b 583 457 513 642 582 582 l 368 414 b 90 193 206 383 90 344 b 356 -17 90 61 210 -17 b 585 114 472 -17 556 46 b 739 0 597 47 650 0 l 775 0 l 775 103 l 746 103 b 700 149 714 103 700 118 l 700 444 b 404 753 700 650 582 753 b 103 519 251 753 131 658 z m 213 193 b 413 322 213 296 303 303 l 586 353 l 586 317 b 371 86 586 171 492 88 b 213 193 263 86 213 135 z "},"º":{"ha":833,"x_min":0,"x_max":0,"o":"m 417 -17 b 753 368 621 -17 753 135 b 417 753 753 601 621 753 b 81 368 213 753 81 601 b 417 -17 81 135 213 -17 z m 203 368 b 417 642 203 539 281 642 b 631 368 553 642 631 539 b 417 94 631 197 553 94 b 203 368 281 94 203 197 z "},"А":{"ha":833,"x_min":0,"x_max":0,"o":"m 36 0 l 158 0 l 240 281 l 593 281 l 675 0 l 797 0 l 497 986 l 336 986 z m 272 389 l 417 882 l 561 389 z "},"Б":{"ha":833,"x_min":0,"x_max":0,"o":"m 410 0 b 758 299 629 0 758 111 b 410 603 758 489 629 603 l 232 603 l 232 869 l 726 869 l 726 986 l 111 986 l 111 0 z m 232 117 l 232 486 l 410 486 b 633 299 560 486 633 422 b 410 117 633 178 560 117 z "},"В":{"ha":833,"x_min":0,"x_max":0,"o":"m 108 0 l 438 0 b 772 279 644 0 772 108 b 556 510 772 407 690 493 b 731 713 661 531 731 608 b 382 986 731 888 606 986 l 108 986 z m 229 117 l 229 443 l 438 443 b 647 279 572 443 647 383 b 438 117 647 178 567 117 z m 229 560 l 229 869 l 382 869 b 606 713 526 869 606 813 b 382 560 606 614 526 560 z "},"Г":{"ha":833,"x_min":0,"x_max":0,"o":"m 139 986 l 139 0 l 258 0 l 258 869 l 767 869 l 767 986 z "},"Ѓ":{"ha":833,"x_min":0,"x_max":0,"o":"m 139 986 l 139 0 l 258 0 l 258 869 l 767 869 l 767 986 z m 403 1096 l 501 1096 l 619 1304 l 490 1304 z "},"Ґ":{"ha":833,"x_min":0,"x_max":0,"o":"m 661 1201 l 661 986 l 139 986 l 139 0 l 258 0 l 258 869 l 781 869 l 781 1201 z "},"Ғ":{"ha":833,"x_min":0,"x_max":0,"o":"m 139 986 l 139 514 l 26 514 l 26 397 l 139 397 l 139 0 l 258 0 l 258 397 l 590 397 l 590 514 l 258 514 l 258 869 l 767 869 l 767 986 z "},"Д":{"ha":833,"x_min":0,"x_max":0,"o":"m 683 986 l 264 986 l 192 300 b 74 117 178 174 143 117 l 17 117 l 17 -208 l 136 -208 l 136 0 l 686 0 l 686 -208 l 806 -208 l 806 117 l 683 117 z m 256 117 b 311 286 285 157 303 213 l 374 869 l 564 869 l 564 117 z "},"Е":{"ha":833,"x_min":0,"x_max":0,"o":"m 125 986 l 125 0 l 756 0 l 756 117 l 244 117 l 244 438 l 728 438 l 728 551 l 244 551 l 244 869 l 744 869 l 744 986 z "},"Ѐ":{"ha":833,"x_min":0,"x_max":0,"o":"m 125 986 l 125 0 l 756 0 l 756 117 l 244 117 l 244 438 l 728 438 l 728 551 l 244 551 l 244 869 l 744 869 l 744 986 z m 275 1306 l 393 1097 l 492 1097 l 404 1306 z "},"Ё":{"ha":833,"x_min":0,"x_max":0,"o":"m 125 986 l 125 0 l 756 0 l 756 117 l 244 117 l 244 438 l 728 438 l 728 551 l 244 551 l 244 869 l 744 869 l 744 986 z m 247 1096 l 379 1096 l 379 1236 l 247 1236 z m 501 1096 l 633 1096 l 633 1236 l 501 1236 z "},"Ж":{"ha":833,"x_min":0,"x_max":0,"o":"m 357 986 l 357 525 l 153 986 l 24 986 l 242 493 l 10 0 l 139 0 l 357 464 l 357 0 l 476 0 l 476 464 l 694 0 l 824 0 l 592 493 l 810 986 l 681 986 l 476 525 l 476 986 z "},"З":{"ha":833,"x_min":0,"x_max":0,"o":"m 436 582 l 333 583 l 333 465 l 436 467 b 661 281 539 468 661 413 b 417 94 661 167 561 94 b 169 263 281 94 179 160 l 46 254 b 417 -22 54 92 213 -22 b 785 271 628 -22 785 99 b 571 533 785 399 708 493 b 751 751 690 568 751 642 b 417 1008 751 903 608 1008 b 82 771 243 1008 100 910 l 207 763 b 417 892 219 842 304 892 b 626 751 540 892 626 838 b 436 582 626 624 515 581 z "},"И":{"ha":833,"x_min":0,"x_max":0,"o":"m 725 986 l 554 986 l 229 150 l 229 986 l 108 986 l 108 0 l 293 0 l 604 806 l 604 0 l 725 0 z "},"Й":{"ha":833,"x_min":0,"x_max":0,"o":"m 725 986 l 554 986 l 229 150 l 229 986 l 108 986 l 108 0 l 293 0 l 604 806 l 604 0 l 725 0 z m 206 1275 b 401 1097 206 1175 292 1097 b 599 1275 513 1097 599 1175 l 508 1275 b 401 1183 508 1224 461 1183 b 296 1275 342 1183 296 1224 z "},"К":{"ha":833,"x_min":0,"x_max":0,"o":"m 81 986 l 81 0 l 200 0 l 200 482 l 628 0 l 785 0 l 344 493 l 771 986 l 614 986 l 200 504 l 200 986 z "},"Ќ":{"ha":833,"x_min":0,"x_max":0,"o":"m 81 986 l 81 0 l 200 0 l 200 482 l 628 0 l 785 0 l 344 493 l 771 986 l 614 986 l 200 504 l 200 986 z m 358 1096 l 457 1096 l 575 1304 l 446 1304 z "},"Л":{"ha":833,"x_min":0,"x_max":0,"o":"m 760 986 l 254 986 l 190 218 b 108 117 185 157 158 117 l 28 117 l 28 0 l 126 0 b 311 204 249 0 301 81 l 367 869 l 640 869 l 640 0 l 760 0 z "},"М":{"ha":833,"x_min":0,"x_max":0,"o":"m 88 986 l 88 0 l 207 0 l 207 864 l 364 69 l 469 69 l 626 864 l 626 0 l 746 0 l 746 986 l 553 986 l 417 278 l 281 986 z "},"Н":{"ha":833,"x_min":0,"x_max":0,"o":"m 99 0 l 218 0 l 218 438 l 615 438 l 615 0 l 735 0 l 735 986 l 615 986 l 615 554 l 218 554 l 218 986 l 99 986 z "},"О":{"ha":833,"x_min":0,"x_max":0,"o":"m 417 -22 b 781 492 650 -22 781 163 b 417 1008 781 824 650 1008 b 53 492 183 1008 53 824 b 417 -22 53 163 183 -22 z m 178 492 b 417 892 178 747 264 892 b 656 492 569 892 656 747 b 417 94 656 238 569 94 b 178 492 264 94 178 238 z "},"П":{"ha":833,"x_min":0,"x_max":0,"o":"m 736 986 l 97 986 l 97 0 l 217 0 l 217 869 l 617 869 l 617 0 l 736 0 z "},"Р":{"ha":833,"x_min":0,"x_max":0,"o":"m 424 986 l 125 986 l 125 0 l 246 0 l 246 383 l 424 383 b 772 688 643 383 772 497 b 424 986 772 875 643 986 z m 246 500 l 246 869 l 424 869 b 647 688 574 869 647 808 b 424 500 647 564 574 500 z "},"С":{"ha":833,"x_min":0,"x_max":0,"o":"m 788 325 l 661 332 b 436 94 633 175 550 94 b 179 492 271 94 179 238 b 436 892 179 747 271 892 b 651 676 539 892 619 818 l 779 685 b 436 1008 738 889 610 1008 b 53 492 192 1008 53 810 b 436 -22 53 176 192 -22 b 788 325 622 -22 751 108 z "},"Т":{"ha":833,"x_min":0,"x_max":0,"o":"m 776 986 l 57 986 l 57 869 l 357 869 l 357 0 l 476 0 l 476 869 l 776 869 z "},"У":{"ha":833,"x_min":0,"x_max":0,"o":"m 72 986 l 340 264 l 388 264 l 353 168 b 281 117 339 131 317 117 l 196 117 l 196 0 l 292 0 b 456 115 375 0 428 36 l 769 986 l 639 986 l 425 375 l 204 986 z "},"Ў":{"ha":833,"x_min":0,"x_max":0,"o":"m 72 986 l 340 264 l 388 264 l 353 168 b 281 117 339 131 317 117 l 196 117 l 196 0 l 292 0 b 456 115 375 0 428 36 l 769 986 l 639 986 l 425 375 l 204 986 z m 226 1275 b 422 1097 226 1175 313 1097 b 619 1275 533 1097 619 1175 l 529 1275 b 422 1183 529 1224 482 1183 b 317 1275 363 1183 317 1224 z "},"Ф":{"ha":833,"x_min":0,"x_max":0,"o":"m 35 493 b 356 106 35 274 157 129 l 356 0 l 475 0 l 475 104 b 799 493 676 129 799 274 b 475 882 799 713 676 857 l 475 986 l 356 986 l 356 881 b 35 493 157 857 35 713 z m 160 493 b 356 763 160 639 233 739 l 356 224 b 160 493 233 247 160 347 z m 475 224 l 475 763 b 674 493 599 740 674 640 b 475 224 674 346 599 246 z "},"Х":{"ha":833,"x_min":0,"x_max":0,"o":"m 619 986 l 418 588 l 217 986 l 76 986 l 342 496 l 74 0 l 211 0 l 415 404 l 619 0 l 760 0 l 492 494 l 757 986 z "},"Ч":{"ha":833,"x_min":0,"x_max":0,"o":"m 736 0 l 736 986 l 617 986 l 617 651 b 356 447 617 532 504 447 b 189 650 260 447 189 525 l 189 986 l 69 986 l 69 650 b 356 331 69 454 186 331 b 617 469 472 331 575 388 l 617 0 z "},"Ц":{"ha":833,"x_min":0,"x_max":0,"o":"m 603 117 l 203 117 l 203 986 l 83 986 l 83 0 l 693 0 l 693 -208 l 813 -208 l 813 117 l 722 117 l 722 986 l 603 986 z "},"Ш":{"ha":833,"x_min":0,"x_max":0,"o":"m 76 0 l 757 0 l 757 986 l 638 986 l 638 117 l 476 117 l 476 986 l 357 986 l 357 117 l 196 117 l 196 986 l 76 986 z "},"Щ":{"ha":833,"x_min":0,"x_max":0,"o":"m 49 0 l 693 0 l 693 -208 l 813 -208 l 813 117 l 729 117 l 729 986 l 610 986 l 610 117 l 449 117 l 449 986 l 329 986 l 329 117 l 168 117 l 168 986 l 49 986 z "},"Џ":{"ha":833,"x_min":0,"x_max":0,"o":"m 736 0 l 736 986 l 617 986 l 617 117 l 217 117 l 217 986 l 97 986 l 97 0 l 357 0 l 357 -208 l 476 -208 l 476 0 z "},"Ь":{"ha":833,"x_min":0,"x_max":0,"o":"m 424 0 b 772 299 643 0 772 111 b 424 603 772 489 643 603 l 246 603 l 246 986 l 125 986 l 125 0 z m 246 117 l 246 486 l 424 486 b 647 299 574 486 647 422 b 424 117 647 178 574 117 z "},"Ы":{"ha":833,"x_min":0,"x_max":0,"o":"m 49 0 l 236 0 b 585 299 456 0 585 111 b 236 603 585 489 456 603 l 169 603 l 169 986 l 49 986 z m 169 117 l 169 486 l 236 486 b 460 299 386 486 460 422 b 236 117 460 178 386 117 z m 665 0 l 785 0 l 785 986 l 665 986 z "},"Ъ":{"ha":833,"x_min":0,"x_max":0,"o":"m 447 0 b 796 299 667 0 796 111 b 447 603 796 489 667 603 l 269 603 l 269 986 l 42 986 l 42 869 l 149 869 l 149 0 z m 269 117 l 269 486 l 447 486 b 671 299 597 486 671 422 b 447 117 671 178 597 117 z "},"Љ":{"ha":833,"x_min":0,"x_max":0,"o":"m 507 986 l 164 986 l 128 218 b 46 117 125 157 96 117 l 7 117 l 7 0 l 64 0 b 249 204 186 0 243 81 l 276 869 l 388 869 l 388 0 l 547 0 b 826 299 725 0 826 111 b 547 603 826 489 725 603 l 508 603 z m 508 117 l 508 486 l 535 486 b 689 299 643 486 689 422 b 535 117 689 178 643 117 z "},"Њ":{"ha":833,"x_min":0,"x_max":0,"o":"m 311 0 l 485 0 b 806 299 704 0 806 111 b 485 603 806 489 704 603 l 432 603 l 432 986 l 311 986 l 311 553 l 147 553 l 147 986 l 28 986 l 28 0 l 147 0 l 147 436 l 311 436 z m 432 117 l 432 486 l 472 486 b 668 299 622 486 668 422 b 472 117 668 178 622 117 z "},"Ѕ":{"ha":833,"x_min":0,"x_max":0,"o":"m 189 324 l 64 315 b 442 -17 81 115 239 -17 b 772 261 606 -17 772 78 b 464 550 772 411 629 500 b 210 738 340 585 210 618 b 392 892 210 832 293 892 b 626 686 514 892 610 810 l 751 694 b 393 1008 732 876 592 1008 b 85 738 218 1008 85 904 b 378 460 85 601 174 517 b 647 249 561 408 647 349 b 451 100 647 150 563 100 b 189 324 308 100 215 190 z "},"Є":{"ha":833,"x_min":0,"x_max":0,"o":"m 479 550 l 179 550 b 417 892 192 769 276 892 b 643 642 536 892 615 803 l 771 642 b 417 1008 735 879 613 1008 b 53 492 183 1008 53 824 b 417 -22 53 163 183 -22 b 771 344 613 -22 736 108 l 644 344 b 417 94 615 183 536 94 b 179 433 276 94 192 215 l 479 433 z "},"Э":{"ha":833,"x_min":0,"x_max":0,"o":"m 354 550 l 354 433 l 654 433 b 417 94 642 215 557 94 b 189 344 297 94 218 183 l 63 344 b 417 -22 97 108 221 -22 b 781 492 650 -22 781 163 b 417 1008 781 824 650 1008 b 63 642 221 1008 99 879 l 190 642 b 417 892 218 803 297 892 b 654 550 557 892 642 769 z "},"І":{"ha":833,"x_min":0,"x_max":0,"o":"m 700 986 l 133 986 l 133 869 l 357 869 l 357 117 l 125 117 l 125 0 l 708 0 l 708 117 l 476 117 l 476 869 l 700 869 z "},"Ї":{"ha":833,"x_min":0,"x_max":0,"o":"m 700 986 l 133 986 l 133 869 l 357 869 l 357 117 l 125 117 l 125 0 l 708 0 l 708 117 l 476 117 l 476 869 l 700 869 z m 222 1094 l 354 1094 l 354 1235 l 222 1235 z m 476 1094 l 608 1094 l 608 1235 l 476 1235 z "},"Ј":{"ha":833,"x_min":0,"x_max":0,"o":"m 172 331 l 50 319 b 376 -22 51 119 179 -22 b 706 344 585 -22 706 119 l 706 986 l 586 986 l 586 344 b 376 94 586 185 517 94 b 172 331 242 94 174 179 z "},"Ћ":{"ha":833,"x_min":0,"x_max":0,"o":"m 489 986 l 7 986 l 7 869 l 167 869 l 167 0 l 286 0 l 286 335 b 492 539 286 454 371 539 b 672 336 597 539 672 456 l 672 0 l 792 0 l 792 336 b 506 656 792 532 675 656 b 286 524 407 656 322 601 l 286 869 l 489 869 z "},"Ю":{"ha":833,"x_min":0,"x_max":0,"o":"m 536 -22 b 806 492 724 -22 806 135 b 536 1008 806 851 724 1008 b 269 551 361 1008 278 869 l 147 551 l 147 986 l 28 986 l 28 0 l 147 0 l 147 435 l 269 435 b 536 -22 278 118 360 -22 z m 394 492 b 536 892 394 781 433 892 b 681 492 640 892 681 781 b 536 94 681 204 640 94 b 394 492 433 94 394 204 z "},"Я":{"ha":833,"x_min":0,"x_max":0,"o":"m 438 986 b 88 688 217 986 88 875 b 299 415 88 550 164 451 l 64 0 l 196 0 l 421 397 l 438 397 l 615 397 l 615 0 l 735 0 l 735 986 z m 213 690 b 438 869 213 804 293 869 l 615 869 l 615 514 l 438 514 b 213 690 293 514 213 576 z "},"Ђ":{"ha":833,"x_min":0,"x_max":0,"o":"m 489 986 l 7 986 l 7 869 l 167 869 l 167 0 l 286 0 l 286 335 b 496 539 286 454 372 539 b 694 332 617 539 694 460 b 422 117 694 200 593 117 l 422 0 b 819 332 667 0 819 128 b 496 656 819 522 685 656 b 286 525 401 656 321 603 l 286 869 l 489 869 z "},"Ѣ":{"ha":833,"x_min":0,"x_max":0,"o":"m 457 0 b 806 299 676 0 806 111 b 457 603 806 489 676 603 l 279 603 l 279 736 l 506 736 l 506 853 l 279 853 l 279 986 l 158 986 l 158 853 l 21 853 l 21 736 l 158 736 l 158 0 z m 279 117 l 279 486 l 457 486 b 681 299 607 486 681 422 b 457 117 681 178 607 117 z "},"Ѫ":{"ha":833,"x_min":0,"x_max":0,"o":"m 89 986 l 89 869 l 292 540 b 146 401 232 538 179 494 l 1 0 l 129 0 l 250 344 b 328 424 271 406 293 424 l 357 424 l 357 0 l 476 0 l 476 424 l 506 424 b 582 344 539 424 560 406 l 704 0 l 832 0 l 686 401 b 542 540 653 493 601 536 l 744 869 l 744 986 z m 228 869 l 606 869 l 417 563 z "},"Ѳ":{"ha":833,"x_min":0,"x_max":0,"o":"m 417 -22 b 781 492 650 -22 781 163 b 417 1008 781 824 650 1008 b 53 492 183 1008 53 824 b 417 -22 53 163 183 -22 z m 178 476 l 203 481 b 399 449 257 486 333 474 b 650 388 560 389 593 382 b 417 94 629 199 547 94 b 178 476 267 94 181 232 z m 183 599 b 417 892 204 788 286 892 b 656 508 567 892 651 754 l 642 507 b 389 569 578 500 557 506 b 189 599 329 593 247 606 z "},"Ѵ":{"ha":833,"x_min":0,"x_max":0,"o":"m 19 986 l 324 0 l 458 0 l 686 742 b 807 869 715 839 747 869 l 826 869 l 826 986 l 763 986 b 579 807 682 986 613 917 l 390 182 l 146 986 z "},"Җ":{"ha":833,"x_min":0,"x_max":0,"o":"m 343 986 l 343 522 l 147 986 l 22 986 l 232 493 l 10 0 l 133 0 l 343 465 l 343 0 l 457 0 l 457 465 l 667 0 l 700 0 l 700 -208 l 819 -208 l 819 97 l 746 97 l 568 493 l 778 986 l 653 986 l 457 522 l 457 986 z "},"Қ":{"ha":833,"x_min":0,"x_max":0,"o":"m 67 986 l 67 0 l 186 0 l 186 482 l 614 0 l 679 0 l 679 -208 l 799 -208 l 799 97 l 683 97 l 331 493 l 757 986 l 600 986 l 186 504 l 186 986 z "},"Ң":{"ha":833,"x_min":0,"x_max":0,"o":"m 78 0 l 197 0 l 197 438 l 594 438 l 594 0 l 693 0 l 693 -208 l 813 -208 l 813 97 l 714 97 l 714 986 l 594 986 l 594 554 l 197 554 l 197 986 l 78 986 z "},"Ү":{"ha":833,"x_min":0,"x_max":0,"o":"m 64 986 l 358 403 l 358 0 l 478 0 l 478 403 l 771 986 l 635 986 l 418 542 l 200 986 z "},"Ұ":{"ha":833,"x_min":0,"x_max":0,"o":"m 63 986 l 340 435 l 142 435 l 142 318 l 357 318 l 357 0 l 476 0 l 476 318 l 731 318 l 731 435 l 493 435 l 769 986 l 633 986 l 417 542 l 199 986 z "},"Ҳ":{"ha":833,"x_min":0,"x_max":0,"o":"m 619 986 l 418 588 l 217 986 l 76 986 l 342 496 l 74 0 l 211 0 l 415 404 l 619 0 l 686 0 l 686 -208 l 806 -208 l 806 97 l 707 97 l 492 494 l 757 986 z "},"Ҷ":{"ha":833,"x_min":0,"x_max":0,"o":"m 49 650 b 335 331 49 454 165 331 b 596 469 451 331 554 388 l 596 0 l 693 0 l 693 -208 l 813 -208 l 813 97 l 715 97 l 715 986 l 596 986 l 596 651 b 335 447 596 532 483 447 b 168 650 239 447 168 525 l 168 986 l 49 986 z "},"Һ":{"ha":833,"x_min":0,"x_max":0,"o":"m 97 986 l 97 0 l 217 0 l 217 335 b 478 539 217 454 329 539 b 644 336 574 539 644 461 l 644 0 l 764 0 l 764 336 b 478 656 764 532 647 656 b 217 517 361 656 258 599 l 217 986 z "},"Ӏ":{"ha":833,"x_min":0,"x_max":0,"o":"m 700 986 l 133 986 l 133 869 l 357 869 l 357 117 l 125 117 l 125 0 l 708 0 l 708 117 l 476 117 l 476 869 l 700 869 z "},"Ә":{"ha":833,"x_min":0,"x_max":0,"o":"m 668 542 l 39 542 l 40 472 b 406 -22 46 182 192 -22 b 794 493 629 -22 794 204 b 406 1008 794 796 640 1008 b 65 707 249 1008 121 892 l 192 696 b 406 892 222 810 306 892 b 668 542 551 892 654 747 z m 168 425 l 667 425 b 406 94 635 214 546 94 b 168 425 275 94 194 214 z "},"Ӣ":{"ha":833,"x_min":0,"x_max":0,"o":"m 725 986 l 554 986 l 229 150 l 229 986 l 108 986 l 108 0 l 293 0 l 604 806 l 604 0 l 725 0 z m 224 1118 l 578 1118 l 578 1204 l 224 1204 z "},"Ө":{"ha":833,"x_min":0,"x_max":0,"o":"m 417 -22 b 781 492 650 -22 781 163 b 417 1008 781 824 650 1008 b 53 492 183 1008 53 824 b 417 -22 53 163 183 -22 z m 179 435 l 654 435 b 417 94 642 217 557 94 b 179 435 276 94 192 217 z m 179 551 b 417 892 192 769 276 892 b 654 551 557 892 642 769 z "},"Ӯ":{"ha":833,"x_min":0,"x_max":0,"o":"m 72 986 l 340 264 l 388 264 l 353 168 b 281 117 339 131 317 117 l 196 117 l 196 0 l 292 0 b 456 115 375 0 428 36 l 769 986 l 639 986 l 425 375 l 204 986 z m 244 1118 l 599 1118 l 599 1204 l 244 1204 z "},"а":{"ha":833,"x_min":0,"x_max":0,"o":"m 103 519 l 228 510 b 404 642 246 586 313 642 b 583 457 513 642 582 582 l 368 414 b 90 193 206 383 90 344 b 356 -17 90 61 210 -17 b 585 114 472 -17 556 46 b 739 0 597 47 650 0 l 775 0 l 775 103 l 746 103 b 700 149 714 103 700 118 l 700 444 b 404 753 700 650 582 753 b 103 519 251 753 131 658 z m 213 193 b 413 322 213 296 303 303 l 586 353 l 586 317 b 371 86 586 171 492 88 b 213 193 263 86 213 135 z "},"б":{"ha":833,"x_min":0,"x_max":0,"o":"m 208 328 b 417 89 206 188 292 89 b 629 328 542 89 629 188 b 424 561 629 465 544 561 b 208 328 299 561 210 465 z m 81 435 b 321 901 81 703 151 822 b 443 1056 414 944 443 976 l 563 1057 b 410 817 563 949 522 876 b 201 531 306 761 211 729 b 438 672 251 621 331 672 b 751 328 619 672 751 531 b 417 -22 751 113 607 -22 b 186 85 331 -22 257 8 b 81 435 115 156 81 282 z "},"в":{"ha":833,"x_min":0,"x_max":0,"o":"m 125 0 l 471 0 b 739 208 635 0 739 81 b 551 381 739 303 668 368 b 708 532 650 394 708 450 b 431 736 708 657 600 736 l 125 736 z m 242 103 l 242 322 l 471 322 b 614 208 558 322 614 279 b 471 103 614 144 558 103 z m 242 425 l 242 633 l 431 633 b 583 532 524 633 583 594 b 431 425 583 467 524 425 z "},"г":{"ha":833,"x_min":0,"x_max":0,"o":"m 207 736 l 207 0 l 324 0 l 324 633 l 722 633 l 722 736 z "},"ѓ":{"ha":833,"x_min":0,"x_max":0,"o":"m 207 736 l 207 0 l 324 0 l 324 633 l 722 633 l 722 736 z m 415 846 l 514 846 l 632 1054 l 503 1054 z "},"ґ":{"ha":833,"x_min":0,"x_max":0,"o":"m 207 736 l 207 0 l 324 0 l 324 633 l 722 633 l 722 951 l 603 951 l 603 736 z "},"ғ":{"ha":833,"x_min":0,"x_max":0,"o":"m 207 736 l 207 425 l 57 425 l 57 322 l 207 322 l 207 0 l 324 0 l 324 322 l 482 322 l 482 425 l 324 425 l 324 633 l 722 633 l 722 736 z "},"д":{"ha":833,"x_min":0,"x_max":0,"o":"m 686 736 l 263 736 l 196 236 b 93 103 183 144 151 103 l 28 103 l 28 -208 l 144 -208 l 144 0 l 689 0 l 689 -208 l 806 -208 l 806 103 l 686 103 z m 265 103 b 310 225 288 133 303 174 l 368 633 l 569 633 l 569 103 z "},"е":{"ha":833,"x_min":0,"x_max":0,"o":"m 92 368 b 429 -17 92 135 225 -17 b 738 208 571 -17 694 69 l 613 218 b 429 94 579 140 508 94 b 217 332 303 94 226 182 l 750 332 l 749 385 b 429 753 736 646 592 753 b 92 368 225 753 92 601 z m 218 435 b 429 642 238 565 313 642 b 622 435 519 642 601 589 z "},"ѐ":{"ha":833,"x_min":0,"x_max":0,"o":"m 92 368 b 429 -17 92 135 225 -17 b 738 208 571 -17 694 69 l 613 218 b 429 94 579 140 508 94 b 217 332 303 94 226 182 l 750 332 l 749 385 b 429 753 736 646 592 753 b 92 368 225 753 92 601 z m 218 435 b 429 642 238 565 313 642 b 622 435 519 642 601 589 z m 258 1051 l 376 843 l 475 843 l 388 1051 z "},"ё":{"ha":833,"x_min":0,"x_max":0,"o":"m 92 368 b 429 -17 92 135 225 -17 b 738 208 571 -17 694 69 l 613 218 b 429 94 579 140 508 94 b 217 332 303 94 226 182 l 750 332 l 749 385 b 429 753 736 646 592 753 b 92 368 225 753 92 601 z m 218 435 b 429 642 238 565 313 642 b 622 435 519 642 601 589 z m 231 842 l 363 842 l 363 982 l 231 982 z m 485 842 l 617 842 l 617 982 l 485 982 z "},"ж":{"ha":833,"x_min":0,"x_max":0,"o":"m 358 736 l 358 383 l 157 736 l 24 736 l 233 368 l 15 0 l 149 0 l 358 354 l 358 0 l 475 0 l 475 354 l 685 0 l 818 0 l 600 368 l 810 736 l 676 736 l 475 383 l 475 736 z "},"з":{"ha":833,"x_min":0,"x_max":0,"o":"m 428 443 l 351 444 l 351 333 l 428 335 b 593 207 528 336 593 288 b 414 94 593 138 524 94 b 233 211 308 94 239 140 l 111 206 b 414 -17 118 69 235 -17 b 715 200 599 -17 715 67 b 543 396 715 292 650 365 b 690 546 635 421 690 476 b 414 753 690 674 583 753 b 138 561 258 753 151 679 l 264 554 b 414 642 271 607 328 642 b 568 546 508 642 568 604 b 428 443 568 482 513 442 z "},"и":{"ha":833,"x_min":0,"x_max":0,"o":"m 704 736 l 567 736 l 247 178 l 247 736 l 131 736 l 131 0 l 275 0 l 588 547 l 588 0 l 704 0 z "},"й":{"ha":833,"x_min":0,"x_max":0,"o":"m 704 736 l 567 736 l 247 178 l 247 736 l 131 736 l 131 0 l 275 0 l 588 547 l 588 0 l 704 0 z m 222 1025 b 418 847 222 925 308 847 b 615 1025 529 847 615 925 l 525 1025 b 418 933 525 974 478 933 b 313 1025 358 933 313 974 z "},"ѝ":{"ha":833,"x_min":0,"x_max":0,"o":"m 704 736 l 567 736 l 247 178 l 247 736 l 131 736 l 131 0 l 275 0 l 588 547 l 588 0 l 704 0 z m 251 1054 l 369 846 l 468 846 l 381 1054 z "},"к":{"ha":833,"x_min":0,"x_max":0,"o":"m 126 736 l 126 0 l 246 0 l 246 358 l 606 0 l 772 0 l 393 368 l 756 736 l 592 736 l 246 378 l 246 736 z "},"ќ":{"ha":833,"x_min":0,"x_max":0,"o":"m 126 736 l 126 0 l 246 0 l 246 358 l 606 0 l 772 0 l 393 368 l 756 736 l 592 736 l 246 378 l 246 736 z m 368 846 l 467 846 l 585 1054 l 456 1054 z "},"л":{"ha":833,"x_min":0,"x_max":0,"o":"m 736 736 l 239 736 l 183 217 b 103 117 176 151 149 117 l 35 117 l 35 0 l 119 0 b 300 204 228 0 286 68 l 346 633 l 619 633 l 619 0 l 736 0 z "},"м":{"ha":833,"x_min":0,"x_max":0,"o":"m 64 736 l 50 0 l 167 0 l 178 486 l 351 0 l 497 0 l 667 479 l 667 0 l 783 0 l 783 736 l 631 736 l 425 143 l 218 736 z "},"н":{"ha":833,"x_min":0,"x_max":0,"o":"m 126 736 l 126 0 l 243 0 l 243 315 l 590 315 l 590 0 l 707 0 l 707 736 l 590 736 l 590 418 l 243 418 l 243 736 z "},"о":{"ha":833,"x_min":0,"x_max":0,"o":"m 417 -17 b 753 368 621 -17 753 135 b 417 753 753 601 621 753 b 81 368 213 753 81 601 b 417 -17 81 135 213 -17 z m 203 368 b 417 642 203 539 281 642 b 631 368 553 642 631 539 b 417 94 631 197 553 94 b 203 368 281 94 203 197 z "},"п":{"ha":833,"x_min":0,"x_max":0,"o":"m 708 736 l 125 736 l 125 0 l 242 0 l 242 633 l 592 633 l 592 0 l 708 0 z "},"р":{"ha":833,"x_min":0,"x_max":0,"o":"m 111 -208 l 228 -208 l 228 103 b 447 -17 268 25 344 -17 b 765 368 668 -17 765 165 b 447 753 765 571 668 753 b 221 626 339 753 261 708 l 217 736 l 111 736 z m 215 368 b 428 642 215 506 278 642 b 640 368 579 642 640 508 b 428 94 640 228 579 94 b 215 368 278 94 215 231 z "},"с":{"ha":833,"x_min":0,"x_max":0,"o":"m 619 489 l 742 497 b 435 753 721 656 585 753 b 99 368 231 753 99 601 b 435 -17 99 135 231 -17 b 749 253 590 -17 724 86 l 625 261 b 435 94 607 156 528 94 b 221 368 299 94 221 197 b 435 642 221 539 299 642 b 619 489 524 642 603 585 z "},"т":{"ha":833,"x_min":0,"x_max":0,"o":"m 742 736 l 93 736 l 93 633 l 358 633 l 358 0 l 476 0 l 476 633 l 742 633 z "},"у":{"ha":833,"x_min":0,"x_max":0,"o":"m 79 736 l 347 14 l 388 14 l 361 -54 b 289 -106 347 -90 325 -106 l 213 -106 l 213 -208 l 301 -208 b 465 -93 385 -208 438 -172 l 763 736 l 639 736 l 425 125 l 204 736 z "},"ў":{"ha":833,"x_min":0,"x_max":0,"o":"m 79 736 l 347 14 l 388 14 l 361 -54 b 289 -106 347 -90 325 -106 l 213 -106 l 213 -208 l 301 -208 b 465 -93 385 -208 438 -172 l 763 736 l 639 736 l 425 125 l 204 736 z m 225 1025 b 421 847 225 925 311 847 b 618 1025 532 847 618 925 l 528 1025 b 421 933 528 974 481 933 b 315 1025 361 933 315 974 z "},"ф":{"ha":833,"x_min":0,"x_max":0,"o":"m 32 372 b 358 38 32 190 164 60 l 358 -208 l 476 -208 l 476 39 b 800 372 669 61 800 192 b 476 706 800 553 669 683 l 476 986 l 358 986 l 358 707 b 32 372 164 685 32 554 z m 157 372 b 358 589 157 490 233 571 l 358 156 b 157 372 233 174 157 254 z m 476 156 l 476 589 b 675 372 600 569 675 489 b 476 156 675 256 600 175 z "},"х":{"ha":833,"x_min":0,"x_max":0,"o":"m 600 736 l 417 467 l 232 736 l 89 736 l 344 378 l 75 0 l 218 0 l 417 286 l 614 0 l 757 0 l 490 376 l 744 736 z "},"ч":{"ha":833,"x_min":0,"x_max":0,"o":"m 708 0 l 708 736 l 592 736 l 592 540 b 375 331 592 411 508 331 b 213 539 276 331 213 411 l 213 736 l 96 736 l 96 539 b 375 219 96 343 204 219 b 592 357 474 219 557 275 l 592 0 z "},"ц":{"ha":833,"x_min":0,"x_max":0,"o":"m 592 103 l 242 103 l 242 736 l 125 736 l 125 0 l 694 0 l 694 -208 l 811 -208 l 811 103 l 708 103 l 708 736 l 592 736 z "},"ш":{"ha":833,"x_min":0,"x_max":0,"o":"m 78 0 l 754 0 l 754 736 l 638 736 l 638 103 l 475 103 l 475 736 l 357 736 l 357 103 l 194 103 l 194 736 l 78 736 z "},"щ":{"ha":833,"x_min":0,"x_max":0,"o":"m 78 0 l 703 0 l 703 -208 l 819 -208 l 819 103 l 754 103 l 754 736 l 638 736 l 638 103 l 475 103 l 475 736 l 357 736 l 357 103 l 194 103 l 194 736 l 78 736 z "},"џ":{"ha":833,"x_min":0,"x_max":0,"o":"m 708 0 l 708 736 l 592 736 l 592 103 l 242 103 l 242 736 l 125 736 l 125 0 l 358 0 l 358 -208 l 475 -208 l 475 0 z "},"ь":{"ha":833,"x_min":0,"x_max":0,"o":"m 113 0 l 424 0 b 746 232 631 0 746 83 b 424 465 746 382 631 465 l 229 465 l 229 736 l 113 736 z m 229 104 l 229 363 l 424 363 b 624 232 557 363 624 319 b 424 104 624 146 557 104 z "},"ы":{"ha":833,"x_min":0,"x_max":0,"o":"m 49 0 l 275 0 b 597 232 482 0 597 83 b 275 465 597 382 482 465 l 165 465 l 165 736 l 49 736 z m 165 104 l 165 363 l 275 363 b 475 232 408 363 475 319 b 275 104 475 146 408 104 z m 668 0 l 785 0 l 785 736 l 668 736 z "},"ъ":{"ha":833,"x_min":0,"x_max":0,"o":"m 133 0 l 444 0 b 767 232 651 0 767 83 b 444 465 767 382 651 465 l 250 465 l 250 736 l 14 736 l 14 633 l 133 633 z m 250 104 l 250 363 l 444 363 b 644 232 578 363 644 319 b 444 104 644 146 578 104 z "},"љ":{"ha":833,"x_min":0,"x_max":0,"o":"m 378 0 l 574 0 b 826 232 736 0 826 83 b 574 465 826 382 736 465 l 496 465 l 496 736 l 156 736 l 100 217 b 19 117 93 151 65 117 l 7 117 l 7 0 l 36 0 b 217 204 144 0 203 68 l 263 633 l 378 633 z m 496 104 l 496 363 l 574 363 b 704 232 657 363 704 315 b 574 104 704 150 657 104 z "},"њ":{"ha":833,"x_min":0,"x_max":0,"o":"m 28 736 l 28 0 l 144 0 l 144 321 l 364 321 l 364 0 l 560 0 b 813 232 722 0 813 83 b 560 465 813 382 722 465 l 481 465 l 481 736 l 364 736 l 364 424 l 144 424 l 144 736 z m 481 104 l 481 363 l 560 363 b 690 232 643 363 690 315 b 560 104 690 150 643 104 z "},"ѕ":{"ha":833,"x_min":0,"x_max":0,"o":"m 597 508 l 714 517 b 419 753 690 660 572 753 b 138 521 269 753 136 669 b 414 306 138 386 279 338 b 596 194 492 288 596 275 b 432 94 596 115 511 94 b 235 240 329 94 249 151 l 114 232 b 432 -17 124 79 263 -17 b 719 188 576 -17 719 43 b 435 407 719 328 574 372 b 260 526 354 429 260 447 b 407 642 258 603 331 642 b 597 508 501 642 581 592 z "},"є":{"ha":833,"x_min":0,"x_max":0,"o":"m 746 253 l 621 253 b 422 94 593 153 522 94 b 210 317 300 94 224 176 l 456 317 l 456 419 l 210 419 b 422 642 224 560 300 642 b 622 479 524 642 594 582 l 747 479 b 422 753 711 649 590 753 b 85 368 218 753 85 603 b 422 -17 85 133 218 -17 b 746 253 589 -17 710 85 z "},"э":{"ha":833,"x_min":0,"x_max":0,"o":"m 213 253 l 88 253 b 411 -17 124 85 244 -17 b 749 368 615 -17 749 133 b 411 753 749 603 615 753 b 86 479 243 753 122 649 l 211 479 b 411 642 239 582 310 642 b 624 419 533 642 610 560 l 378 419 l 378 317 l 624 317 b 411 94 610 176 533 94 b 213 253 311 94 240 153 z "},"і":{"ha":833,"x_min":0,"x_max":0,"o":"m 524 736 l 143 736 l 143 633 l 407 633 l 407 103 l 115 103 l 115 0 l 775 0 l 775 103 l 524 103 z m 392 846 l 524 846 l 524 986 l 392 986 z "},"ї":{"ha":833,"x_min":0,"x_max":0,"o":"m 524 736 l 143 736 l 143 633 l 407 633 l 407 103 l 115 103 l 115 0 l 775 0 l 775 103 l 524 103 z m 264 844 l 396 844 l 396 985 l 264 985 z m 518 844 l 650 844 l 650 985 l 518 985 z "},"ј":{"ha":833,"x_min":0,"x_max":0,"o":"m 610 0 l 610 736 l 161 736 l 161 633 l 493 633 l 493 0 b 411 -106 493 -61 461 -106 l 160 -106 l 160 -208 l 424 -208 b 610 0 547 -208 610 -124 z m 478 846 l 610 846 l 610 986 l 478 986 z "},"ћ":{"ha":833,"x_min":0,"x_max":0,"o":"m 140 986 l 140 914 l 35 914 l 35 811 l 140 811 l 140 0 l 257 0 l 257 432 b 451 642 257 568 333 642 b 607 432 563 642 607 568 l 607 0 l 724 0 l 724 474 b 476 753 724 629 643 753 b 257 638 386 753 300 717 l 257 811 l 388 811 l 388 914 l 257 914 l 257 986 z "},"ю":{"ha":833,"x_min":0,"x_max":0,"o":"m 508 -17 b 792 368 690 -17 792 121 b 508 753 792 615 690 753 b 228 419 340 753 242 635 l 144 419 l 144 736 l 28 736 l 28 0 l 144 0 l 144 317 l 228 317 b 508 -17 242 101 340 -17 z m 349 368 b 508 642 349 543 406 642 b 669 368 611 642 669 543 b 508 94 669 193 611 94 b 349 368 406 94 349 193 z "},"я":{"ha":833,"x_min":0,"x_max":0,"o":"m 708 736 l 418 736 b 124 514 229 736 124 657 b 292 306 124 419 183 344 l 113 0 l 249 0 l 417 285 l 592 285 l 592 0 l 708 0 z m 249 511 b 418 635 249 590 310 635 l 592 635 l 592 388 l 418 388 b 249 511 310 388 249 432 z "},"ђ":{"ha":833,"x_min":0,"x_max":0,"o":"m 132 986 l 132 914 l 35 914 l 35 811 l 132 811 l 132 0 l 249 0 l 249 432 b 443 642 249 568 326 642 b 600 432 549 642 600 572 l 600 -4 b 517 -106 600 -67 568 -106 l 460 -106 l 460 -208 l 531 -208 b 717 -4 654 -208 717 -129 l 717 474 b 468 753 717 644 621 753 b 249 636 376 753 290 717 l 249 811 l 388 811 l 388 914 l 249 914 l 249 986 z "},"ѣ":{"ha":833,"x_min":0,"x_max":0,"o":"m 178 0 l 489 0 b 811 246 696 0 811 88 b 489 493 811 404 696 493 l 294 493 l 294 736 l 457 736 l 457 853 l 294 853 l 294 986 l 178 986 l 178 853 l 14 853 l 14 736 l 178 736 z m 294 104 l 294 390 l 489 390 b 689 246 617 390 689 338 b 489 104 689 154 617 104 z "},"ѫ":{"ha":833,"x_min":0,"x_max":0,"o":"m 60 736 l 60 633 l 278 401 b 135 299 218 396 160 363 l 19 0 l 153 0 l 238 246 b 326 303 254 293 285 303 l 357 303 l 357 0 l 476 0 l 476 303 l 506 303 b 596 246 549 303 579 293 l 681 0 l 814 0 l 699 299 b 557 401 674 363 617 394 l 775 633 l 775 736 z m 201 633 l 633 633 l 418 404 z "},"ѳ":{"ha":833,"x_min":0,"x_max":0,"o":"m 417 -17 b 753 368 621 -17 753 135 b 417 753 753 601 621 753 b 81 368 213 753 81 601 b 417 -17 81 135 213 -17 z m 203 353 b 228 356 211 354 219 356 b 390 324 272 357 336 349 b 601 263 526 263 551 263 b 619 264 607 263 614 263 b 417 94 593 157 522 94 b 203 353 285 94 207 192 z m 211 457 b 417 642 233 574 306 642 b 631 372 551 642 629 540 b 590 365 618 368 604 365 b 382 428 538 364 521 364 b 217 457 332 451 265 460 z "},"ѵ":{"ha":833,"x_min":0,"x_max":0,"o":"m 806 736 l 774 736 b 550 569 668 736 588 676 l 393 122 l 176 736 l 51 736 l 319 0 l 467 0 l 660 531 b 792 633 685 599 729 633 l 806 633 z "},"җ":{"ha":833,"x_min":0,"x_max":0,"o":"m 358 736 l 358 383 l 157 736 l 24 736 l 233 368 l 15 0 l 149 0 l 358 354 l 358 0 l 475 0 l 475 354 l 685 0 l 703 0 l 703 -208 l 819 -208 l 819 103 l 757 103 l 600 368 l 810 736 l 676 736 l 475 383 l 475 736 z "},"қ":{"ha":833,"x_min":0,"x_max":0,"o":"m 125 736 l 125 0 l 244 0 l 244 358 l 604 0 l 661 0 l 661 -208 l 778 -208 l 778 103 l 665 103 l 392 368 l 754 736 l 590 736 l 244 378 l 244 736 z "},"ң":{"ha":833,"x_min":0,"x_max":0,"o":"m 126 736 l 126 0 l 243 0 l 243 315 l 590 315 l 590 0 l 686 0 l 686 -208 l 803 -208 l 803 103 l 707 103 l 707 736 l 590 736 l 590 418 l 243 418 l 243 736 z "},"ү":{"ha":833,"x_min":0,"x_max":0,"o":"m 758 736 l 633 736 l 417 140 l 200 736 l 75 736 l 358 0 l 358 -208 l 475 -208 l 475 0 z "},"ұ":{"ha":833,"x_min":0,"x_max":0,"o":"m 758 736 l 633 736 l 417 140 l 200 736 l 75 736 l 339 51 l 194 51 l 194 -51 l 358 -51 l 358 -208 l 475 -208 l 475 -51 l 638 -51 l 638 51 l 494 51 z "},"ҳ":{"ha":833,"x_min":0,"x_max":0,"o":"m 600 736 l 417 467 l 232 736 l 89 736 l 344 378 l 75 0 l 218 0 l 417 286 l 614 0 l 674 0 l 674 -208 l 790 -208 l 790 103 l 685 103 l 490 376 l 744 736 z "},"ҷ":{"ha":833,"x_min":0,"x_max":0,"o":"m 96 539 b 375 219 96 343 204 219 b 592 357 474 219 557 275 l 592 0 l 688 0 l 688 -208 l 804 -208 l 804 103 l 708 103 l 708 736 l 592 736 l 592 540 b 375 331 592 411 508 331 b 213 539 276 331 213 411 l 213 736 l 96 736 z "},"һ":{"ha":833,"x_min":0,"x_max":0,"o":"m 140 986 l 140 0 l 257 0 l 257 432 b 451 642 257 568 333 642 b 607 432 563 642 607 568 l 607 0 l 724 0 l 724 474 b 476 753 724 629 643 753 b 257 638 386 753 300 717 l 257 986 z "},"ӏ":{"ha":833,"x_min":0,"x_max":0,"o":"m 700 986 l 133 986 l 133 869 l 357 869 l 357 117 l 125 117 l 125 0 l 708 0 l 708 117 l 476 117 l 476 869 l 700 869 z "},"ә":{"ha":833,"x_min":0,"x_max":0,"o":"m 742 368 b 404 753 742 601 608 753 b 96 528 263 753 139 667 l 221 518 b 404 642 254 596 325 642 b 617 404 531 642 607 554 l 83 404 l 85 351 b 404 -17 97 90 242 -17 b 742 368 608 -17 742 135 z m 211 301 l 615 301 b 404 94 596 171 521 94 b 211 301 314 94 232 147 z "},"ӣ":{"ha":833,"x_min":0,"x_max":0,"o":"m 704 736 l 567 736 l 247 178 l 247 736 l 131 736 l 131 0 l 275 0 l 588 547 l 588 0 l 704 0 z m 240 868 l 594 868 l 594 954 l 240 954 z "},"ө":{"ha":833,"x_min":0,"x_max":0,"o":"m 417 -17 b 753 368 621 -17 753 135 b 417 753 753 601 621 753 b 81 368 213 753 81 601 b 417 -17 81 135 213 -17 z m 206 317 l 628 317 b 417 94 614 176 539 94 b 206 317 294 94 219 176 z m 206 419 b 417 642 219 560 294 642 b 628 419 539 642 614 560 z "},"ӯ":{"ha":833,"x_min":0,"x_max":0,"o":"m 79 736 l 347 14 l 388 14 l 361 -54 b 289 -106 347 -90 325 -106 l 213 -106 l 213 -208 l 301 -208 b 465 -93 385 -208 438 -172 l 763 736 l 639 736 l 425 125 l 204 736 z m 243 868 l 597 868 l 597 954 l 243 954 z "},"Λ":{"ha":833,"x_min":0,"x_max":0,"o":"m 36 0 l 158 0 l 417 882 l 675 0 l 797 0 l 497 986 l 336 986 z "},"Ω":{"ha":833,"x_min":0,"x_max":0,"o":"m 417 892 b 696 506 581 892 696 732 b 472 117 696 289 597 118 l 472 0 l 818 0 l 818 117 l 635 117 b 821 506 744 190 821 353 b 417 1008 821 801 654 1008 b 13 506 179 1008 13 801 b 199 117 13 353 89 190 l 15 117 l 15 0 l 361 0 l 361 117 b 138 506 236 118 138 289 b 417 892 138 732 253 892 z "},"λ":{"ha":833,"x_min":0,"x_max":0,"o":"m 717 0 l 764 0 l 764 103 l 715 103 b 631 181 665 103 646 132 l 440 800 b 224 986 399 935 340 986 l 146 986 l 146 883 l 233 883 b 319 806 283 883 304 856 l 354 693 l 82 0 l 204 0 l 406 525 l 510 186 b 717 0 553 47 603 0 z "},"π":{"ha":833,"x_min":0,"x_max":0,"o":"m 22 736 l 22 633 l 171 633 l 171 0 l 288 0 l 288 633 l 550 633 l 550 203 b 763 0 550 81 613 0 l 806 0 l 806 103 l 761 103 b 667 203 700 103 667 140 l 667 633 l 808 633 l 808 736 z "},"ℇ":{"ha":833,"x_min":0,"x_max":0,"o":"m 781 122 l 706 221 b 426 89 639 142 521 89 b 193 281 285 89 193 167 b 426 471 193 397 285 474 l 501 469 l 501 579 l 426 578 b 226 751 333 576 226 624 b 426 897 226 840 303 897 b 671 779 511 897 613 847 l 749 875 b 426 1008 681 953 549 1008 b 104 751 236 1008 104 903 b 279 533 104 640 163 568 b 71 271 142 493 71 399 b 426 -22 71 99 214 -22 b 781 122 564 -22 708 38 z "},"⁄":{"ha":833,"x_min":0,"x_max":0,"o":"m 815 986 l 699 986 l 18 0 l 135 0 z "},"½":{"ha":833,"x_min":0,"x_max":0,"o":"m 436 382 l 519 378 b 624 478 532 443 567 478 b 704 401 668 478 704 446 b 635 296 704 361 686 329 l 590 267 b 426 0 453 176 426 86 l 793 0 l 793 79 l 528 79 b 619 190 529 115 568 156 l 658 215 b 789 401 743 269 789 336 b 624 557 789 493 721 557 b 436 382 521 557 449 489 z m 56 0 l 164 0 l 357 354 l 249 354 z m 72 803 l 210 804 l 210 449 l 294 449 l 294 988 l 229 988 b 106 864 229 908 186 864 l 72 864 z m 471 631 l 579 631 l 772 986 l 664 986 z "},"⅓":{"ha":833,"x_min":0,"x_max":0,"o":"m 606 325 l 571 325 l 571 246 l 606 246 b 714 147 667 246 714 201 b 613 57 714 97 669 57 b 501 138 554 57 506 93 l 417 133 b 613 -22 422 46 506 -22 b 801 142 718 -22 801 50 b 689 290 801 208 753 271 b 781 413 749 308 781 361 b 611 557 781 493 707 557 b 436 424 524 557 447 499 l 521 418 b 611 478 525 450 563 478 b 696 399 657 478 696 442 b 606 325 696 364 657 325 z m 56 0 l 164 0 l 357 354 l 249 354 z m 71 803 l 208 804 l 208 449 l 293 449 l 293 988 l 228 988 b 104 864 228 908 185 864 l 71 864 z m 471 631 l 579 631 l 772 986 l 664 986 z "},"⅔":{"ha":833,"x_min":0,"x_max":0,"o":"m 611 325 l 576 325 l 576 246 l 611 246 b 719 147 672 246 719 201 b 618 57 719 97 675 57 b 507 138 560 57 511 93 l 422 133 b 618 -22 428 46 511 -22 b 807 142 724 -22 807 50 b 694 290 807 208 758 271 b 786 413 754 308 786 361 b 617 557 786 493 713 557 b 442 424 529 557 453 499 l 526 418 b 617 478 531 450 568 478 b 701 399 663 478 701 442 b 611 325 701 364 663 325 z m 28 451 l 394 451 l 394 531 l 129 531 b 221 642 131 567 169 607 l 260 667 b 390 853 344 721 390 788 b 225 1008 390 944 322 1008 b 38 833 122 1008 50 940 l 121 829 b 225 929 133 894 168 929 b 306 853 269 929 306 897 b 236 747 306 813 288 781 l 192 718 b 28 451 54 628 28 538 z m 56 0 l 164 0 l 357 354 l 249 354 z m 471 631 l 579 631 l 772 986 l 664 986 z "},"¼":{"ha":833,"x_min":0,"x_max":0,"o":"m 732 539 l 661 539 l 386 175 l 386 106 l 647 106 l 647 0 l 732 0 l 732 106 l 793 106 l 793 185 l 732 185 z m 56 0 l 164 0 l 357 354 l 249 354 z m 71 803 l 208 804 l 208 449 l 293 449 l 293 988 l 228 988 b 104 864 228 908 185 864 l 71 864 z m 471 631 l 579 631 l 772 986 l 664 986 z m 494 185 l 647 388 l 647 185 z "},"¾":{"ha":833,"x_min":0,"x_max":0,"o":"m 213 776 l 178 776 l 178 697 l 213 697 b 321 599 274 697 321 653 b 219 508 321 549 276 508 b 108 589 161 508 113 544 l 24 585 b 219 429 29 497 113 429 b 408 593 325 429 408 501 b 296 742 408 660 360 722 b 388 864 356 760 388 813 b 218 1008 388 944 314 1008 b 43 875 131 1008 54 950 l 128 869 b 218 929 132 901 169 929 b 303 850 264 929 303 893 b 213 776 303 815 264 776 z m 56 0 l 164 0 l 357 354 l 249 354 z m 386 106 l 647 106 l 647 0 l 732 0 l 732 106 l 793 106 l 793 185 l 732 185 l 732 539 l 661 539 l 386 175 z m 471 631 l 579 631 l 772 986 l 664 986 z m 494 185 l 647 388 l 647 185 z "},"⅕":{"ha":833,"x_min":0,"x_max":0,"o":"m 742 540 l 456 540 l 413 226 l 496 226 b 593 283 526 276 561 283 b 692 169 649 283 692 232 b 593 57 692 104 649 57 b 490 136 543 57 500 89 l 403 132 b 590 -22 411 42 489 -22 b 779 169 701 -22 779 56 b 606 360 779 276 707 360 b 511 319 567 360 539 347 l 529 461 l 742 461 z m 56 0 l 164 0 l 357 354 l 249 354 z m 71 803 l 208 804 l 208 449 l 293 449 l 293 988 l 228 988 b 104 864 228 908 185 864 l 71 864 z m 471 631 l 579 631 l 772 986 l 664 986 z "},"⅛":{"ha":833,"x_min":0,"x_max":0,"o":"m 597 -22 b 793 142 708 -22 793 40 b 688 290 793 210 753 263 b 767 403 738 311 767 347 b 597 554 767 490 693 554 b 428 403 503 554 428 490 b 507 290 428 347 457 311 b 401 142 440 264 401 210 b 597 -22 401 40 486 -22 z m 56 0 l 164 0 l 357 354 l 249 354 z m 71 803 l 208 804 l 208 449 l 293 449 l 293 988 l 228 988 b 104 864 228 908 185 864 l 71 864 z m 471 631 l 579 631 l 772 986 l 664 986 z m 489 147 b 597 247 489 206 533 247 b 706 147 661 247 706 206 b 597 57 706 93 661 57 b 489 147 533 57 489 93 z m 515 403 b 597 475 515 446 549 475 b 679 403 646 475 679 446 b 597 322 679 356 646 322 b 515 403 549 322 515 356 z "},"⅜":{"ha":833,"x_min":0,"x_max":0,"o":"m 597 -22 b 793 142 708 -22 793 40 b 688 290 793 210 753 263 b 767 403 738 311 767 347 b 597 554 767 490 693 554 b 428 403 503 554 428 490 b 507 290 428 347 457 311 b 401 142 440 264 401 210 b 597 -22 401 40 486 -22 z m 28 579 b 215 425 36 489 114 425 b 404 617 326 425 404 503 b 231 807 404 724 332 807 b 136 767 192 807 164 794 l 154 908 l 367 908 l 367 988 l 81 988 l 38 674 l 121 674 b 218 731 151 724 186 731 b 317 617 274 731 317 679 b 218 504 317 551 274 504 b 115 583 168 504 125 536 z m 56 0 l 164 0 l 357 354 l 249 354 z m 471 631 l 579 631 l 772 986 l 664 986 z m 489 147 b 597 247 489 206 533 247 b 706 147 661 247 706 206 b 597 57 706 93 661 57 b 489 147 533 57 489 93 z m 515 403 b 597 475 515 446 549 475 b 679 403 646 475 679 446 b 597 322 679 356 646 322 b 515 403 549 322 515 356 z "},"⅝":{"ha":833,"x_min":0,"x_max":0,"o":"m 597 -22 b 793 142 708 -22 793 40 b 688 290 793 210 753 263 b 767 403 738 311 767 347 b 597 554 767 490 693 554 b 428 403 503 554 428 490 b 507 290 428 347 457 311 b 401 142 440 264 401 210 b 597 -22 401 40 486 -22 z m 24 585 b 219 429 29 497 113 429 b 408 593 325 429 408 501 b 296 742 408 660 360 722 b 388 864 356 760 388 813 b 218 1008 388 944 314 1008 b 43 875 131 1008 54 950 l 128 869 b 218 929 132 901 169 929 b 303 850 264 929 303 893 b 213 776 303 815 264 776 l 178 776 l 178 697 l 213 697 b 321 599 274 697 321 653 b 219 508 321 549 276 508 b 108 589 161 508 113 544 z m 56 0 l 164 0 l 357 354 l 249 354 z m 471 631 l 579 631 l 772 986 l 664 986 z m 489 147 b 597 247 489 206 533 247 b 706 147 661 247 706 206 b 597 57 706 93 661 57 b 489 147 533 57 489 93 z m 515 403 b 597 475 515 446 549 475 b 679 403 646 475 679 446 b 597 322 679 356 646 322 b 515 403 549 322 515 356 z "},"⅞":{"ha":833,"x_min":0,"x_max":0,"o":"m 78 986 l 78 907 l 357 907 b 192 447 254 774 192 615 l 276 447 b 461 925 276 624 353 786 l 461 986 z m 56 0 l 164 0 l 357 354 l 249 354 z m 401 142 b 597 -22 401 40 486 -22 b 793 142 708 -22 793 40 b 688 290 793 210 753 263 b 767 403 738 311 767 347 b 597 554 767 490 693 554 b 428 403 503 554 428 490 b 507 290 428 347 457 311 b 401 142 440 264 401 210 z m 471 631 l 579 631 l 772 986 l 664 986 z m 489 147 b 597 247 489 206 533 247 b 706 147 661 247 706 206 b 597 57 706 93 661 57 b 489 147 533 57 489 93 z m 515 403 b 597 475 515 446 549 475 b 679 403 646 475 679 446 b 597 322 679 356 646 322 b 515 403 549 322 515 356 z "},"₀":{"ha":833,"x_min":0,"x_max":0,"o":"m 417 -21 b 626 267 546 -21 626 90 b 417 557 626 444 546 557 b 207 267 288 557 207 444 b 417 -21 207 90 288 -21 z m 292 267 b 417 475 292 401 338 475 b 485 450 443 475 467 467 l 304 163 b 292 267 296 192 292 226 z m 349 86 l 529 375 b 542 267 538 344 542 308 b 417 61 542 136 496 61 b 349 86 390 61 367 69 z "},"₁":{"ha":833,"x_min":0,"x_max":0,"o":"m 282 415 l 249 415 l 249 354 l 386 356 l 386 0 l 471 0 l 471 539 l 406 539 b 282 415 406 460 363 415 z "},"₂":{"ha":833,"x_min":0,"x_max":0,"o":"m 232 382 l 315 378 b 419 478 328 443 363 478 b 500 401 464 478 500 446 b 431 296 500 361 482 329 l 386 267 b 222 0 249 176 222 86 l 589 0 l 589 79 l 324 79 b 415 190 325 115 364 156 l 454 215 b 585 401 539 269 585 336 b 419 557 585 493 517 557 b 232 382 317 557 244 489 z "},"₃":{"ha":833,"x_min":0,"x_max":0,"o":"m 411 325 l 376 325 l 376 246 l 411 246 b 519 147 472 246 519 201 b 418 57 519 97 475 57 b 307 138 360 57 311 93 l 222 133 b 418 -22 228 46 311 -22 b 607 142 524 -22 607 50 b 494 290 607 208 558 271 b 586 413 554 308 586 361 b 417 557 586 493 513 557 b 242 424 329 557 253 499 l 326 418 b 417 478 331 450 368 478 b 501 399 463 478 501 442 b 411 325 501 364 463 325 z "},"₄":{"ha":833,"x_min":0,"x_max":0,"o":"m 529 539 l 458 539 l 183 175 l 183 106 l 444 106 l 444 0 l 529 0 l 529 106 l 590 106 l 590 185 l 529 185 z m 292 185 l 444 388 l 444 185 z "},"₅":{"ha":833,"x_min":0,"x_max":0,"o":"m 568 540 l 282 540 l 239 226 l 322 226 b 419 283 353 276 388 283 b 518 169 475 283 518 232 b 419 57 518 104 475 57 b 317 136 369 57 326 89 l 229 132 b 417 -22 238 42 315 -22 b 606 169 528 -22 606 56 b 432 360 606 276 533 360 b 338 319 393 360 365 347 l 356 461 l 568 461 z "},"₆":{"ha":833,"x_min":0,"x_max":0,"o":"m 521 415 l 603 424 b 433 554 578 508 510 554 b 229 233 286 554 229 397 b 418 -22 229 99 289 -22 b 604 174 524 -22 604 53 b 433 367 604 290 529 367 b 310 307 379 367 338 343 b 433 475 321 396 360 475 b 521 415 475 475 507 454 z m 322 174 b 421 288 324 240 367 288 b 517 174 483 288 517 240 b 419 57 517 106 481 57 b 322 174 361 57 321 106 z "},"₇":{"ha":833,"x_min":0,"x_max":0,"o":"m 231 538 l 231 458 l 510 458 b 344 -1 407 325 344 167 l 429 -1 b 614 476 429 175 506 338 l 614 538 z "},"₈":{"ha":833,"x_min":0,"x_max":0,"o":"m 417 -22 b 613 142 528 -22 613 40 b 507 290 613 210 572 263 b 586 403 557 311 586 347 b 417 554 586 490 513 554 b 247 403 322 554 247 490 b 326 290 247 347 276 311 b 221 142 260 264 221 210 b 417 -22 221 40 306 -22 z m 308 147 b 417 247 308 206 353 247 b 525 147 481 247 525 206 b 417 57 525 93 481 57 b 308 147 353 57 308 93 z m 335 403 b 417 475 335 446 368 475 b 499 403 465 475 499 446 b 417 322 499 356 465 322 b 335 403 368 322 335 356 z "},"₉":{"ha":833,"x_min":0,"x_max":0,"o":"m 317 117 l 235 108 b 404 -22 260 24 328 -22 b 608 299 529 -22 608 101 b 419 554 608 433 547 554 b 233 358 314 554 233 479 b 404 165 233 242 308 165 b 529 226 458 165 501 189 b 404 57 517 121 471 57 b 317 117 363 57 331 78 z m 321 358 b 418 475 321 426 357 475 b 515 358 475 475 517 426 b 417 244 514 292 469 244 b 321 358 354 244 321 292 z "},"⁰":{"ha":833,"x_min":0,"x_max":0,"o":"m 417 431 b 626 718 546 431 626 542 b 417 1008 626 896 546 1008 b 207 718 288 1008 207 896 b 417 431 207 542 288 431 z m 292 718 b 417 926 292 853 338 926 b 485 901 443 926 467 918 l 304 614 b 292 718 296 643 292 678 z m 349 538 l 529 826 b 542 718 538 796 542 760 b 417 513 542 588 496 513 b 349 538 390 513 367 521 z "},"¹":{"ha":833,"x_min":0,"x_max":0,"o":"m 282 864 l 249 864 l 249 803 l 386 804 l 386 449 l 471 449 l 471 988 l 406 988 b 282 864 406 908 363 864 z "},"²":{"ha":833,"x_min":0,"x_max":0,"o":"m 232 833 l 315 829 b 419 929 328 894 363 929 b 500 853 464 929 500 897 b 431 747 500 813 482 781 l 386 718 b 222 451 249 628 222 538 l 589 451 l 589 531 l 324 531 b 415 642 325 567 364 607 l 454 667 b 585 853 539 721 585 788 b 419 1008 585 944 517 1008 b 232 833 317 1008 244 940 z "},"³":{"ha":833,"x_min":0,"x_max":0,"o":"m 411 776 l 376 776 l 376 697 l 411 697 b 519 599 472 697 519 653 b 418 508 519 549 475 508 b 307 589 360 508 311 544 l 222 585 b 418 429 228 497 311 429 b 607 593 524 429 607 501 b 494 742 607 660 558 722 b 586 864 554 760 586 813 b 417 1008 586 944 513 1008 b 242 875 329 1008 253 950 l 326 869 b 417 929 331 901 368 929 b 501 850 463 929 501 893 b 411 776 501 815 463 776 z "},"⁴":{"ha":833,"x_min":0,"x_max":0,"o":"m 529 988 l 458 988 l 183 624 l 183 554 l 444 554 l 444 449 l 529 449 l 529 554 l 590 554 l 590 633 l 529 633 z m 292 633 l 444 836 l 444 633 z "},"⁵":{"ha":833,"x_min":0,"x_max":0,"o":"m 568 988 l 282 988 l 239 674 l 322 674 b 419 731 353 724 388 731 b 518 617 475 731 518 679 b 419 504 518 551 475 504 b 317 583 369 504 326 536 l 229 579 b 417 425 238 489 315 425 b 606 617 528 425 606 503 b 432 807 606 724 533 807 b 338 767 393 807 365 794 l 356 908 l 568 908 z "},"⁶":{"ha":833,"x_min":0,"x_max":0,"o":"m 521 869 l 603 878 b 433 1008 578 963 510 1008 b 229 688 286 1008 229 851 b 418 432 229 553 289 432 b 604 628 524 432 604 507 b 433 821 604 744 529 821 b 310 761 379 821 338 797 b 433 929 321 850 360 929 b 521 869 475 929 507 908 z m 322 628 b 421 742 324 694 367 742 b 517 628 483 742 517 694 b 419 511 517 560 481 511 b 322 628 361 511 321 560 z "},"⁷":{"ha":833,"x_min":0,"x_max":0,"o":"m 231 986 l 231 907 l 510 907 b 344 447 407 774 344 615 l 429 447 b 614 925 429 624 506 786 l 614 986 z "},"⁸":{"ha":833,"x_min":0,"x_max":0,"o":"m 417 432 b 613 596 528 432 613 494 b 507 744 613 664 572 717 b 586 857 557 765 586 801 b 417 1008 586 944 513 1008 b 247 857 322 1008 247 944 b 326 744 247 801 276 765 b 221 596 260 718 221 664 b 417 432 221 494 306 432 z m 308 601 b 417 701 308 660 353 701 b 525 601 481 701 525 660 b 417 511 525 547 481 511 b 308 601 353 511 308 547 z m 335 857 b 417 929 335 900 368 929 b 499 857 465 929 499 900 b 417 776 499 810 465 776 b 335 857 368 776 335 810 z "},"⁹":{"ha":833,"x_min":0,"x_max":0,"o":"m 317 571 l 235 563 b 404 432 260 478 328 432 b 608 753 529 432 608 556 b 419 1008 608 888 547 1008 b 233 813 314 1008 233 933 b 404 619 233 696 308 619 b 529 681 458 619 501 643 b 404 511 517 575 471 511 b 317 571 363 511 331 532 z m 321 813 b 418 929 321 881 357 929 b 515 813 475 929 517 881 b 417 699 514 746 469 699 b 321 813 354 699 321 746 z "}," ":{"ha":833,"x_min":0,"x_max":0,"o":""},"。":{"ha":833,"x_min":0,"x_max":0,"o":"m 418 -153 b 596 25 517 -153 596 -74 b 418 206 596 125 517 206 b 238 25 318 206 238 125 b 418 -153 238 -74 318 -153 z m 338 25 b 418 107 338 68 375 107 b 496 25 461 107 496 68 b 418 -54 496 -18 461 -54 b 338 25 375 -54 338 -18 z "},".":{"ha":833,"x_min":0,"x_max":0,"o":"m 335 160 l 335 0 l 499 0 l 499 160 z "},",":{"ha":833,"x_min":0,"x_max":0,"o":"m 499 0 l 499 160 l 335 160 l 335 0 l 403 0 l 332 -224 l 403 -224 z "},":":{"ha":833,"x_min":0,"x_max":0,"o":"m 335 160 l 335 0 l 499 0 l 499 160 z m 335 490 l 499 490 l 499 650 l 335 650 z "},";":{"ha":833,"x_min":0,"x_max":0,"o":"m 338 650 l 338 490 l 501 490 l 501 650 z m 336 -224 l 407 -224 l 503 0 l 503 160 l 339 160 l 339 0 l 407 0 z "},"…":{"ha":833,"x_min":0,"x_max":0,"o":"m 78 160 l 78 0 l 242 0 l 242 160 z m 333 0 l 497 0 l 497 160 l 333 160 z m 592 0 l 756 0 l 756 160 l 592 160 z "},"!":{"ha":833,"x_min":0,"x_max":0,"o":"m 357 986 l 357 665 b 379 285 357 538 372 413 l 454 285 b 476 665 461 413 476 538 l 476 986 z m 335 0 l 499 0 l 499 160 l 335 160 z "},"¡":{"ha":833,"x_min":0,"x_max":0,"o":"m 357 96 l 357 -225 l 476 -225 l 476 96 b 454 476 476 224 461 349 l 379 476 b 357 96 372 349 357 224 z m 335 601 l 499 601 l 499 761 l 335 761 z "},"?":{"ha":833,"x_min":0,"x_max":0,"o":"m 346 285 l 460 285 b 556 475 460 361 486 428 b 733 732 681 561 733 636 b 404 1008 733 894 597 1008 b 79 694 229 1008 96 879 l 204 686 b 411 892 219 813 300 892 b 608 732 531 892 610 825 b 465 549 608 640 542 611 b 346 285 378 475 346 386 z m 321 0 l 485 0 l 485 160 l 321 160 z "},"¿":{"ha":833,"x_min":0,"x_max":0,"o":"m 488 499 l 374 499 b 278 308 374 422 347 356 b 100 51 153 222 100 147 b 429 -225 100 -111 236 -225 b 754 89 604 -225 738 -96 l 629 97 b 422 -108 614 -29 533 -108 b 225 51 303 -108 224 -42 b 368 235 225 143 292 172 b 488 499 456 308 488 397 z m 349 624 l 513 624 l 513 783 l 349 783 z "},"·":{"ha":833,"x_min":0,"x_max":0,"o":"m 335 497 l 335 338 l 499 338 l 499 497 z "},"•":{"ha":833,"x_min":0,"x_max":0,"o":"m 417 246 b 563 390 497 246 563 311 b 417 536 563 471 497 536 b 271 390 336 536 271 471 b 417 246 271 311 336 246 z "},"*":{"ha":833,"x_min":0,"x_max":0,"o":"m 715 758 l 493 758 l 601 944 l 525 989 l 417 801 l 308 989 l 232 946 l 340 758 l 118 758 l 118 671 l 340 671 l 232 483 l 308 439 l 417 625 l 525 439 l 601 481 l 493 671 l 715 671 z "},"〃":{"ha":833,"x_min":0,"x_max":0,"o":"m 439 668 l 311 668 l 224 390 l 314 390 z m 394 390 l 485 390 l 610 668 l 481 668 z "},"#":{"ha":833,"x_min":0,"x_max":0,"o":"m 139 0 l 238 0 l 288 274 l 475 274 l 425 0 l 524 0 l 574 274 l 688 274 l 703 371 l 592 371 l 636 611 l 743 611 l 758 708 l 654 708 l 706 986 l 606 985 l 556 708 l 368 708 l 419 986 l 319 985 l 269 708 l 144 708 l 129 611 l 251 611 l 207 371 l 89 371 l 74 274 l 189 274 z m 306 371 l 350 611 l 538 611 l 493 371 z "},"/":{"ha":833,"x_min":0,"x_max":0,"o":"m 150 -125 l 271 -125 l 682 1068 l 561 1068 z "},"\\":{"ha":833,"x_min":0,"x_max":0,"o":"m 683 -125 l 272 1068 l 151 1068 l 563 -125 z "},"＆":{"ha":833,"x_min":0,"x_max":0,"o":"m 385 1008 b 582 728 519 996 629 869 b 400 521 558 654 496 581 l 628 231 b 668 442 661 276 674 365 l 790 431 b 701 143 790 319 754 208 l 819 0 l 678 0 l 628 63 b 390 -17 572 11 486 -17 b 42 261 183 -17 42 81 b 235 546 42 408 118 458 b 142 781 171 631 142 710 b 385 1008 142 925 261 1019 z m 163 261 b 390 92 163 157 251 92 b 547 150 458 92 518 114 l 307 454 b 163 261 244 413 163 353 z m 261 776 b 331 610 261 732 282 678 b 476 776 421 651 476 715 b 378 892 476 840 439 888 b 261 776 311 896 260 842 z "},"＊":{"ha":833,"x_min":0,"x_max":0,"o":"m 715 758 l 493 758 l 601 944 l 525 989 l 417 801 l 308 989 l 232 946 l 340 758 l 118 758 l 118 671 l 340 671 l 232 483 l 308 439 l 417 625 l 525 439 l 601 481 l 493 671 l 715 671 z "},"＠":{"ha":833,"x_min":0,"x_max":0,"o":"m 511 681 l 507 631 b 407 693 492 668 454 693 b 197 403 303 693 215 574 b 353 113 176 232 242 113 b 493 233 410 113 465 161 b 803 458 515 47 789 46 b 467 986 813 768 674 986 b 31 417 222 986 42 751 b 599 -40 14 -25 311 -214 l 557 50 b 132 417 322 -82 118 44 b 464 885 142 692 279 885 b 701 451 613 885 710 707 b 621 203 694 279 669 203 b 588 361 590 203 579 254 l 613 681 z m 306 407 b 419 617 318 531 364 617 b 490 407 476 617 503 531 b 381 200 479 285 436 200 b 306 407 325 200 294 285 z "},"＼":{"ha":833,"x_min":0,"x_max":0,"o":"m 683 -125 l 272 1068 l 151 1068 l 563 -125 z "},"：":{"ha":833,"x_min":0,"x_max":0,"o":"m 335 160 l 335 0 l 499 0 l 499 160 z m 335 490 l 499 490 l 499 650 l 335 650 z "},"，":{"ha":833,"x_min":0,"x_max":0,"o":"m 499 0 l 499 160 l 335 160 l 335 0 l 403 0 l 332 -224 l 403 -224 z "},"！":{"ha":833,"x_min":0,"x_max":0,"o":"m 357 986 l 357 665 b 379 285 357 538 372 413 l 454 285 b 476 665 461 413 476 538 l 476 986 z m 335 0 l 499 0 l 499 160 l 335 160 z "},"＃":{"ha":833,"x_min":0,"x_max":0,"o":"m 140 0 l 239 0 l 289 274 l 476 274 l 426 0 l 525 0 l 575 274 l 689 274 l 704 371 l 593 371 l 638 611 l 744 611 l 760 708 l 656 708 l 707 986 l 607 985 l 557 708 l 369 708 l 421 986 l 321 985 l 271 708 l 146 708 l 131 611 l 253 611 l 208 371 l 90 371 l 75 274 l 190 274 z m 307 371 l 351 611 l 539 611 l 494 371 z "},"％":{"ha":833,"x_min":0,"x_max":0,"o":"m 600 1008 l -25 -17 l 107 -17 l 732 1008 z m -33 747 b 139 508 -33 614 28 508 b 313 747 251 508 313 614 b 139 988 313 882 251 988 b -33 747 28 988 -33 882 z m 71 747 b 139 882 71 833 96 882 b 208 747 183 882 208 833 b 139 614 208 661 183 614 b 71 747 96 614 71 661 z m 418 240 b 592 0 418 106 479 0 b 764 240 703 0 764 106 b 592 479 764 374 703 479 b 418 240 479 479 418 374 z m 524 240 b 592 374 524 326 547 374 b 661 240 635 374 661 326 b 592 106 661 154 635 106 b 524 240 547 106 524 154 z "},"．":{"ha":833,"x_min":0,"x_max":0,"o":"m 335 154 l 335 -6 l 499 -6 l 499 154 z "},"？":{"ha":833,"x_min":0,"x_max":0,"o":"m 357 285 l 471 285 b 567 475 471 361 497 428 b 744 732 692 561 744 636 b 415 1008 744 894 608 1008 b 90 694 240 1008 107 879 l 215 686 b 422 892 231 813 311 892 b 619 732 542 892 621 825 b 476 549 619 640 553 611 b 357 285 389 475 357 386 z m 332 0 l 496 0 l 496 160 l 332 160 z "},"＂":{"ha":833,"x_min":0,"x_max":0,"o":"m 711 986 l 717 532 l 801 532 l 833 875 l 833 986 z m 475 875 l 507 532 l 592 532 l 597 986 l 475 986 z "},"＇":{"ha":833,"x_min":0,"x_max":0,"o":"m 356 986 l 356 881 l 375 532 l 458 532 l 478 881 l 478 986 z "},"；":{"ha":833,"x_min":0,"x_max":0,"o":"m 338 650 l 338 490 l 501 490 l 501 650 z m 336 -224 l 407 -224 l 503 0 l 503 160 l 339 160 l 339 0 l 407 0 z "},"／":{"ha":833,"x_min":0,"x_max":0,"o":"m 150 -125 l 271 -125 l 682 1068 l 561 1068 z "},"＿":{"ha":833,"x_min":0,"x_max":0,"o":"m 92 -61 l 92 -169 l 742 -169 l 742 -61 z "},"-":{"ha":833,"x_min":0,"x_max":0,"o":"m 188 492 l 188 383 l 646 383 l 646 492 z "},"­":{"ha":833,"x_min":0,"x_max":0,"o":"m 188 493 l 188 385 l 646 385 l 646 493 z "},"–":{"ha":833,"x_min":0,"x_max":0,"o":"m 113 474 l 113 365 l 721 365 l 721 474 z "},"—":{"ha":833,"x_min":0,"x_max":0,"o":"m 58 474 l 58 365 l 775 365 l 775 474 z "},"_":{"ha":833,"x_min":0,"x_max":0,"o":"m 92 -61 l 92 -169 l 742 -169 l 742 -61 z "},"〜":{"ha":833,"x_min":0,"x_max":0,"o":"m 417 524 b 586 460 486 481 543 460 b 744 574 640 460 694 501 l 825 493 b 586 343 772 400 679 343 b 417 403 538 343 481 363 b 247 467 347 446 290 467 b 89 353 193 467 139 426 l 8 433 b 247 583 63 526 154 583 b 417 524 296 583 353 564 z "},"－":{"ha":833,"x_min":0,"x_max":0,"o":"m 31 474 l 31 365 l 803 365 l 803 474 z "},"(":{"ha":833,"x_min":0,"x_max":0,"o":"m 624 1069 l 524 1069 b 524 -125 175 717 175 228 l 624 -125 b 624 1069 307 242 307 703 z "},")":{"ha":833,"x_min":0,"x_max":0,"o":"m 310 1069 l 210 1069 b 210 -125 526 703 526 242 l 310 -125 b 310 1069 658 228 658 717 z "},"{":{"ha":833,"x_min":0,"x_max":0,"o":"m 132 526 l 132 411 b 360 222 297 414 360 357 l 360 107 b 608 -132 360 -33 461 -132 l 686 -132 l 686 -24 b 471 104 525 -28 471 8 l 471 232 b 301 469 471 358 403 450 l 301 471 b 471 706 400 490 471 581 l 471 833 b 686 961 471 931 525 967 l 686 1069 l 608 1069 b 360 831 461 1069 360 971 l 360 715 b 132 526 360 581 297 524 z "},"}":{"ha":833,"x_min":0,"x_max":0,"o":"m 701 411 l 701 526 b 474 715 536 524 474 581 l 474 831 b 225 1069 474 971 372 1069 l 147 1069 l 147 961 b 363 833 308 967 363 931 l 363 706 b 532 471 363 581 433 490 l 532 469 b 363 232 431 450 363 358 l 363 104 b 147 -24 363 8 308 -28 l 147 -132 l 225 -132 b 474 107 372 -132 474 -33 l 474 222 b 701 411 474 357 536 414 z "},"[":{"ha":833,"x_min":0,"x_max":0,"o":"m 235 1069 l 235 -125 l 636 -125 l 636 -17 l 346 -17 l 346 961 l 636 961 l 636 1069 z "},"]":{"ha":833,"x_min":0,"x_max":0,"o":"m 599 1069 l 197 1069 l 197 961 l 488 961 l 488 -17 l 197 -17 l 197 -125 l 599 -125 z "},"〈":{"ha":833,"x_min":0,"x_max":0,"o":"m 492 1140 l 238 492 l 492 -158 l 603 -158 l 349 492 l 603 1140 z "},"〉":{"ha":833,"x_min":0,"x_max":0,"o":"m 342 1140 l 231 1140 l 485 492 l 231 -158 l 342 -158 l 596 492 z "},"【":{"ha":833,"x_min":0,"x_max":0,"o":"m 638 1146 l 257 1146 l 257 -87 l 638 -87 b 638 1146 388 311 388 749 z "},"】":{"ha":833,"x_min":0,"x_max":0,"o":"m 576 1146 l 196 1146 b 196 -87 446 749 446 311 l 576 -87 z "},"｛":{"ha":833,"x_min":0,"x_max":0,"o":"m 132 526 l 132 411 b 360 222 297 414 360 357 l 360 107 b 608 -132 360 -33 461 -132 l 686 -132 l 686 -24 b 471 104 525 -28 471 8 l 471 232 b 301 469 471 358 403 450 l 301 471 b 471 706 400 490 471 581 l 471 833 b 686 961 471 931 525 967 l 686 1069 l 608 1069 b 360 831 461 1069 360 971 l 360 715 b 132 526 360 581 297 524 z "},"｝":{"ha":833,"x_min":0,"x_max":0,"o":"m 701 411 l 701 526 b 474 715 536 524 474 581 l 474 831 b 225 1069 474 971 372 1069 l 147 1069 l 147 961 b 363 833 308 967 363 931 l 363 706 b 532 471 363 581 433 490 l 532 469 b 363 232 431 450 363 358 l 363 104 b 147 -24 363 8 308 -28 l 147 -132 l 225 -132 b 474 107 372 -132 474 -33 l 474 222 b 701 411 474 357 536 414 z "},"「":{"ha":833,"x_min":0,"x_max":0,"o":"m 236 326 l 349 326 l 349 1039 l 657 1039 l 657 1147 l 236 1147 z "},"」":{"ha":833,"x_min":0,"x_max":0,"o":"m 597 678 l 485 678 l 485 -35 l 176 -35 l 176 -143 l 597 -143 z "},"《":{"ha":833,"x_min":0,"x_max":0,"o":"m 371 1140 l 117 492 l 371 -158 l 482 -158 l 228 492 l 482 1140 z m 349 492 l 603 -158 l 714 -158 l 460 492 l 714 1140 l 603 1140 z "},"》":{"ha":833,"x_min":0,"x_max":0,"o":"m 463 1140 l 351 1140 l 606 492 l 351 -158 l 463 -158 l 717 492 z m 119 -158 l 231 -158 l 485 492 l 231 1140 l 119 1140 l 374 492 z "},"〔":{"ha":833,"x_min":0,"x_max":0,"o":"m 590 1181 l 244 871 l 244 111 l 593 -203 l 665 -124 l 356 156 l 356 826 l 663 1101 z "},"〕":{"ha":833,"x_min":0,"x_max":0,"o":"m 243 1181 l 171 1101 l 478 826 l 478 156 l 168 -124 l 240 -203 l 589 111 l 589 871 z "},"『":{"ha":833,"x_min":0,"x_max":0,"o":"m 236 324 l 458 324 l 458 925 l 657 925 l 657 1147 l 236 1147 z m 292 379 l 292 1092 l 603 1092 l 603 981 l 404 981 l 404 379 z "},"』":{"ha":833,"x_min":0,"x_max":0,"o":"m 597 681 l 375 681 l 375 79 l 176 79 l 176 -143 l 597 -143 z m 231 -87 l 231 24 l 429 24 l 429 625 l 542 625 l 542 -87 z "},"〖":{"ha":833,"x_min":0,"x_max":0,"o":"m 625 1146 l 257 1146 l 257 -87 l 625 -87 b 625 1146 375 311 375 749 z m 313 -32 l 313 1090 l 528 1090 b 528 -32 335 718 335 342 z "},"〗":{"ha":833,"x_min":0,"x_max":0,"o":"m 576 1146 l 208 1146 b 208 -87 458 749 458 311 l 576 -87 z m 306 -32 b 306 1090 499 342 499 718 l 521 1090 l 521 -32 z "},"［":{"ha":833,"x_min":0,"x_max":0,"o":"m 235 1069 l 235 -125 l 636 -125 l 636 -17 l 346 -17 l 346 961 l 636 961 l 636 1069 z "},"］":{"ha":833,"x_min":0,"x_max":0,"o":"m 599 1069 l 197 1069 l 197 961 l 488 961 l 488 -17 l 197 -17 l 197 -125 l 599 -125 z "},"（":{"ha":833,"x_min":0,"x_max":0,"o":"m 624 1069 l 524 1069 b 524 -125 175 717 175 228 l 624 -125 b 624 1069 307 242 307 703 z "},"）":{"ha":833,"x_min":0,"x_max":0,"o":"m 310 1069 l 210 1069 b 210 -125 526 703 526 242 l 310 -125 b 310 1069 658 228 658 717 z "},"‚":{"ha":833,"x_min":0,"x_max":0,"o":"m 507 0 l 507 160 l 343 160 l 343 0 l 411 0 l 340 -224 l 411 -224 z "},"„":{"ha":833,"x_min":0,"x_max":0,"o":"m 385 0 l 385 160 l 221 160 l 221 0 l 289 0 l 218 -224 l 289 -224 z m 449 -224 l 519 -224 l 615 0 l 615 160 l 451 160 l 451 0 l 519 0 z "},"“":{"ha":833,"x_min":0,"x_max":0,"o":"m 449 763 l 449 603 l 613 603 l 613 763 l 544 763 l 615 986 l 544 986 z m 218 603 l 382 603 l 382 763 l 314 763 l 385 986 l 314 986 l 218 763 z "},"”":{"ha":833,"x_min":0,"x_max":0,"o":"m 385 826 l 385 986 l 221 986 l 221 826 l 289 826 l 218 603 l 289 603 z m 449 603 l 519 603 l 615 826 l 615 986 l 451 986 l 451 826 l 519 826 z "},"‘":{"ha":833,"x_min":0,"x_max":0,"o":"m 325 763 l 325 603 l 489 603 l 489 763 l 421 763 l 492 986 l 421 986 z "},"’":{"ha":833,"x_min":0,"x_max":0,"o":"m 507 826 l 507 986 l 343 986 l 343 826 l 411 826 l 340 603 l 411 603 z "},"«":{"ha":833,"x_min":0,"x_max":0,"o":"m 300 661 l 110 435 l 110 332 l 300 106 l 443 106 l 207 383 l 443 661 z m 390 332 l 581 106 l 724 106 l 488 383 l 724 661 l 581 661 l 390 435 z "},"»":{"ha":833,"x_min":0,"x_max":0,"o":"m 533 661 l 390 661 l 626 383 l 390 106 l 533 106 l 724 332 l 724 435 z m 110 106 l 253 106 l 443 332 l 443 435 l 253 661 l 110 661 l 346 383 z "},"‹":{"ha":833,"x_min":0,"x_max":0,"o":"m 467 661 l 276 435 l 276 332 l 467 106 l 610 106 l 374 383 l 610 661 z "},"›":{"ha":833,"x_min":0,"x_max":0,"o":"m 367 661 l 224 661 l 460 383 l 224 106 l 367 106 l 557 332 l 557 435 z "},"\"":{"ha":833,"x_min":0,"x_max":0,"o":"m 474 986 l 479 532 l 564 532 l 596 875 l 596 986 z m 238 875 l 269 532 l 354 532 l 360 986 l 238 986 z "},"'":{"ha":833,"x_min":0,"x_max":0,"o":"m 356 986 l 356 881 l 375 532 l 458 532 l 478 881 l 478 986 z "},"ƒ":{"ha":833,"x_min":0,"x_max":0,"o":"m 69 0 l 204 -1 b 413 185 329 -3 399 61 l 463 633 l 725 633 l 725 736 l 474 736 l 482 806 b 568 883 488 856 518 883 l 725 883 l 725 986 l 578 986 b 369 800 453 986 383 924 l 363 736 l 172 736 l 172 633 l 351 633 l 301 179 b 215 103 296 129 265 103 l 69 103 z "},"฿":{"ha":833,"x_min":0,"x_max":0,"o":"m 342 1118 l 342 986 l 108 986 l 108 0 l 342 0 l 342 -126 l 446 -126 l 446 0 b 772 279 647 3 772 111 b 556 510 772 407 690 493 b 731 713 661 531 731 608 b 446 983 731 869 629 965 l 446 1118 z m 229 117 l 229 443 l 342 443 l 342 117 z m 229 560 l 229 869 l 342 869 l 342 560 z m 446 117 l 446 443 b 647 279 575 440 647 381 b 446 117 647 181 569 119 z m 446 564 l 446 865 b 606 713 550 850 606 797 b 446 564 606 629 550 578 z "},"@":{"ha":833,"x_min":0,"x_max":0,"o":"m 511 681 l 507 631 b 407 693 492 668 454 693 b 197 403 303 693 215 574 b 353 113 176 232 242 113 b 493 233 410 113 465 161 b 803 458 515 47 789 46 b 467 986 813 768 674 986 b 31 417 222 986 42 751 b 599 -40 14 -25 311 -214 l 557 50 b 132 417 322 -82 118 44 b 464 885 142 692 279 885 b 701 451 613 885 710 707 b 621 203 694 279 669 203 b 588 361 590 203 579 254 l 613 681 z m 306 407 b 419 617 318 531 364 617 b 490 407 476 617 503 531 b 381 200 479 285 436 200 b 306 407 325 200 294 285 z "},"&":{"ha":833,"x_min":0,"x_max":0,"o":"m 385 1008 b 582 728 519 996 629 869 b 400 521 558 654 496 581 l 628 231 b 668 442 661 276 674 365 l 790 431 b 701 143 790 319 754 208 l 819 0 l 678 0 l 628 63 b 390 -17 572 11 486 -17 b 42 261 183 -17 42 81 b 235 546 42 408 118 458 b 142 781 171 631 142 710 b 385 1008 142 925 261 1019 z m 163 261 b 390 92 163 157 251 92 b 547 150 458 92 518 114 l 307 454 b 163 261 244 413 163 353 z m 261 776 b 331 610 261 732 282 678 b 476 776 421 651 476 715 b 378 892 476 840 439 888 b 261 776 311 896 260 842 z "},"¶":{"ha":833,"x_min":0,"x_max":0,"o":"m 700 986 l 396 986 b 58 706 189 986 58 878 b 396 425 58 533 189 425 l 396 0 l 500 0 l 500 881 l 597 881 l 597 0 l 700 0 z "},"§":{"ha":833,"x_min":0,"x_max":0,"o":"m 600 701 l 719 710 b 424 946 699 861 543 946 b 139 728 268 946 139 869 b 267 576 139 661 182 613 b 135 399 175 538 135 475 b 413 190 135 293 210 238 b 596 63 544 157 596 118 b 431 -40 596 0 529 -40 b 233 106 325 -40 247 15 l 111 97 b 431 -151 125 -49 263 -151 b 718 53 574 -151 718 -83 b 604 229 718 126 694 186 b 722 381 682 260 722 311 b 438 618 722 508 651 565 b 261 738 300 654 261 681 b 410 835 261 794 325 835 b 600 701 518 835 586 783 z m 257 410 b 406 506 257 467 321 506 b 600 390 483 506 600 476 b 433 292 600 329 533 292 b 257 410 303 306 257 351 z "},"©":{"ha":833,"x_min":0,"x_max":0,"o":"m 415 -17 b 826 496 657 -17 826 194 b 415 1008 826 797 657 1008 b 6 496 174 1008 6 797 b 415 -17 6 194 174 -17 z m 100 496 b 415 913 100 753 222 913 b 732 496 608 913 732 753 b 415 79 732 240 608 79 b 100 496 222 79 100 240 z m 181 494 b 425 181 181 303 278 181 b 651 401 538 181 635 265 l 556 408 b 425 276 543 321 492 276 b 276 494 325 276 276 356 b 425 714 276 635 325 714 b 551 593 490 714 540 672 l 647 600 b 425 810 633 729 533 810 b 181 494 278 810 181 686 z "},"®":{"ha":833,"x_min":0,"x_max":0,"o":"m 404 846 l 278 846 l 278 465 l 349 465 l 349 613 l 408 613 l 497 465 l 578 465 l 479 622 b 563 728 532 636 563 675 b 404 846 563 801 503 846 z m 67 658 b 417 306 67 464 222 306 b 767 658 611 306 767 464 b 417 1008 767 851 611 1008 b 67 658 222 1008 67 851 z m 144 658 b 417 929 144 807 268 929 b 689 658 565 929 689 807 b 417 385 689 508 565 385 b 144 658 268 385 144 508 z m 349 672 l 349 785 l 415 785 b 493 731 465 785 493 765 b 415 672 493 694 465 672 z "},"℗":{"ha":833,"x_min":0,"x_max":0,"o":"m 425 846 l 299 846 l 299 465 l 369 465 l 369 613 l 428 613 b 583 728 528 613 583 654 b 425 846 583 800 522 846 z m 67 658 b 417 306 67 464 222 306 b 767 658 611 306 767 464 b 417 1008 767 851 611 1008 b 67 658 222 1008 67 851 z m 144 658 b 417 929 144 807 268 929 b 689 658 565 929 689 807 b 417 385 689 508 565 385 b 144 658 268 385 144 508 z m 369 672 l 369 785 l 436 785 b 514 731 485 785 514 765 b 436 672 514 694 485 672 z "},"™":{"ha":833,"x_min":0,"x_max":0,"o":"m 24 986 l 24 908 l 138 908 l 138 499 l 219 499 l 219 908 l 335 908 l 335 986 z m 375 499 l 457 499 l 457 750 l 542 499 l 635 499 l 719 749 l 719 499 l 801 499 l 801 986 l 714 986 l 588 607 l 464 986 l 375 986 z "},"°":{"ha":833,"x_min":0,"x_max":0,"o":"m 417 542 b 625 750 531 542 625 636 b 417 958 625 864 531 958 b 208 750 303 958 208 864 b 417 542 208 636 303 542 z m 311 750 b 417 857 311 808 358 857 b 522 750 475 857 522 808 b 417 643 522 692 475 643 b 311 750 358 643 311 692 z "},"′":{"ha":833,"x_min":0,"x_max":0,"o":"m 525 1026 l 396 1026 l 308 568 l 400 568 z "},"″":{"ha":833,"x_min":0,"x_max":0,"o":"m 414 1026 l 285 1026 l 197 568 l 289 568 z m 421 568 l 513 568 l 638 1026 l 508 1026 z "},"|":{"ha":833,"x_min":0,"x_max":0,"o":"m 360 1069 l 360 -125 l 474 -125 l 474 1069 z "},"¦":{"ha":833,"x_min":0,"x_max":0,"o":"m 363 986 l 363 493 l 471 493 l 471 986 z m 363 -208 l 471 -208 l 471 285 l 363 285 z "},"†":{"ha":833,"x_min":0,"x_max":0,"o":"m 364 986 l 364 736 l 149 736 l 149 633 l 364 633 l 364 0 l 472 0 l 472 633 l 685 633 l 685 736 l 472 736 l 472 986 z "},"‡":{"ha":833,"x_min":0,"x_max":0,"o":"m 363 986 l 363 736 l 149 736 l 149 633 l 363 633 l 363 124 l 149 124 l 149 19 l 363 19 l 363 -208 l 471 -208 l 471 19 l 685 19 l 685 124 l 471 124 l 471 633 l 685 633 l 685 736 l 471 736 l 471 986 z "},"№":{"ha":833,"x_min":0,"x_max":0,"o":"m 7 986 l 7 0 l 124 0 l 124 694 l 297 0 l 451 0 l 451 986 l 335 986 l 335 304 l 167 986 z m 494 436 b 661 196 494 289 565 196 b 828 436 757 196 828 289 b 661 675 828 583 757 675 b 494 436 565 675 494 583 z m 517 0 l 806 0 l 806 108 l 517 108 z m 600 436 b 661 569 600 518 626 569 b 724 436 697 569 724 518 b 661 301 724 354 697 301 b 600 436 626 301 600 354 z "},"␣":{"ha":833,"x_min":0,"x_max":0,"o":"m 53 0 l 53 -264 l 781 -264 l 781 0 l 671 0 l 671 -156 l 163 -156 l 163 0 z "},"␌":{"ha":833,"x_min":0,"x_max":0,"o":"m 461 557 l 461 99 l 531 99 l 531 289 l 732 289 l 732 357 l 531 357 l 531 489 l 744 489 l 744 557 z m 110 417 l 181 417 l 181 607 l 381 607 l 381 675 l 181 675 l 181 807 l 393 807 l 393 875 l 110 875 z "},"⌧":{"ha":833,"x_min":0,"x_max":0,"o":"m 19 986 l 19 0 l 814 0 l 814 986 z m 115 96 l 115 890 l 718 890 l 718 96 z m 213 618 l 340 492 l 214 365 l 290 289 l 417 415 l 543 288 l 621 365 l 494 493 l 619 618 l 543 694 l 418 569 l 290 696 z "},"⌫":{"ha":833,"x_min":0,"x_max":0,"o":"m 219 986 l 6 490 l 219 0 l 822 0 l 822 986 z m 111 492 l 285 890 l 726 890 l 726 96 l 285 96 z m 250 618 l 378 492 l 251 365 l 328 289 l 453 415 l 581 288 l 657 365 l 531 493 l 656 618 l 581 694 l 454 568 l 328 696 z "},"⌦":{"ha":833,"x_min":0,"x_max":0,"o":"m 614 986 l 11 986 l 11 0 l 614 0 l 828 490 z m 107 96 l 107 890 l 549 890 l 722 492 l 549 96 z m 176 365 l 253 288 l 381 415 l 506 289 l 582 365 l 457 492 l 583 618 l 506 696 l 379 568 l 253 694 l 178 618 l 303 493 z "},"⏎":{"ha":833,"x_min":0,"x_max":0,"o":"m 332 367 l 332 229 l 150 418 l 332 608 l 332 472 l 610 472 l 610 878 l 715 878 l 715 367 z m 6 419 l 419 -11 l 419 258 l 824 258 l 824 986 l 501 986 l 501 581 l 419 581 l 419 847 z "},"␋":{"ha":833,"x_min":0,"x_max":0,"o":"m 761 557 l 426 557 l 426 489 l 558 489 l 558 99 l 629 99 l 629 489 l 761 489 z m 72 875 l 213 417 l 288 417 l 428 875 l 354 875 l 250 521 l 146 875 z "},"¢":{"ha":833,"x_min":0,"x_max":0,"o":"m 619 489 l 742 497 b 501 746 724 632 624 722 l 513 874 l 408 874 l 397 751 b 99 368 215 733 99 588 b 332 -3 99 176 188 40 l 321 -126 l 425 -126 l 435 -17 b 749 253 590 -17 724 86 l 625 261 b 444 94 607 160 533 99 l 492 633 b 619 489 556 615 607 564 z m 221 368 b 388 638 221 518 281 615 l 342 114 b 221 368 264 151 221 242 z "},"¤":{"ha":833,"x_min":0,"x_max":0,"o":"m 415 135 b 572 183 474 135 528 153 l 682 75 l 754 147 l 646 257 b 693 413 675 301 693 356 b 644 568 693 471 675 524 l 754 679 l 682 751 l 571 642 b 415 690 526 672 474 690 b 260 643 358 690 304 672 l 150 751 l 78 679 l 186 569 b 138 413 156 525 138 471 b 186 256 138 354 156 301 l 78 147 l 150 75 l 258 183 b 415 135 304 153 357 135 z m 239 413 b 415 589 239 510 318 589 b 592 413 511 589 592 510 b 415 236 592 315 511 236 b 239 413 318 236 239 315 z "},"$":{"ha":833,"x_min":0,"x_max":0,"o":"m 193 324 l 68 315 b 369 -10 82 142 204 18 l 369 -126 l 472 -126 l 472 -15 b 776 261 628 -7 776 88 b 472 549 776 410 636 499 l 472 881 b 631 686 557 854 618 782 l 756 694 b 472 1001 739 853 631 972 l 472 1118 l 369 1118 l 369 1007 b 89 738 208 997 89 896 b 369 464 89 604 174 521 l 369 113 b 193 324 275 142 214 219 z m 214 738 b 369 890 214 824 283 881 l 369 579 b 214 738 283 608 214 650 z m 472 100 l 472 431 b 651 249 593 385 651 331 b 472 100 651 156 575 106 z "},"€":{"ha":833,"x_min":0,"x_max":0,"o":"m 14 643 l 14 540 l 68 540 b 67 492 67 525 67 508 b 68 429 67 471 67 450 l 14 429 l 14 326 l 81 326 b 450 -22 122 108 251 -22 b 801 325 636 -22 765 108 l 675 332 b 450 94 647 175 564 94 b 210 326 325 94 242 176 l 486 326 l 501 429 l 194 429 b 193 492 193 449 193 469 b 194 540 193 508 193 525 l 514 540 l 529 643 l 206 643 b 450 892 236 804 321 892 b 665 676 553 892 633 818 l 793 685 b 450 1008 751 889 624 1008 b 79 643 247 1008 117 871 z "},"₴":{"ha":833,"x_min":0,"x_max":0,"o":"m 31 326 l 85 326 b 68 256 74 306 68 279 b 407 -17 68 96 207 -17 b 764 232 583 -17 719 79 l 628 243 b 400 100 590 156 503 100 b 193 256 278 100 193 164 b 218 326 193 279 201 304 l 803 326 l 803 429 l 31 429 z m 31 540 l 803 540 l 803 643 l 733 643 b 760 732 750 669 760 703 b 415 1008 760 901 626 1008 b 89 742 257 1008 132 906 l 219 729 b 432 892 264 833 340 892 b 635 732 551 892 635 825 b 600 643 635 696 625 668 l 31 643 z "},"₽":{"ha":833,"x_min":0,"x_max":0,"o":"m 451 986 l 153 986 l 153 272 l 46 272 l 46 169 l 153 169 l 153 0 l 274 0 l 274 169 l 396 169 l 396 272 l 274 272 l 274 383 l 451 383 b 800 688 671 383 800 497 b 451 986 800 875 671 986 z m 274 500 l 274 869 l 451 869 b 675 688 601 869 675 808 b 451 500 675 564 601 500 z "},"₹":{"ha":833,"x_min":0,"x_max":0,"o":"m 468 0 l 636 0 l 215 383 l 321 383 b 665 632 518 383 642 475 l 779 632 l 779 736 l 667 736 b 601 883 658 794 636 844 l 779 883 l 779 986 l 51 986 l 51 869 l 321 869 b 540 736 449 869 521 825 l 51 736 l 51 632 l 539 632 b 321 500 518 544 446 500 l 51 500 l 51 383 z "},"₪":{"ha":833,"x_min":0,"x_max":0,"o":"m 378 986 l 28 986 l 28 0 l 149 0 l 149 871 l 381 871 b 465 785 432 871 465 838 l 465 215 l 585 215 l 585 778 b 378 986 585 906 504 986 z m 247 0 l 596 0 b 804 208 724 0 804 81 l 804 986 l 683 986 l 683 201 b 599 115 683 149 651 115 l 367 115 l 367 771 l 247 771 z "},"£":{"ha":833,"x_min":0,"x_max":0,"o":"m 453 1008 b 160 735 290 1008 160 890 b 192 571 160 688 171 635 l 200 543 l 65 543 l 65 440 l 224 440 b 226 386 225 421 226 403 b 67 121 226 269 172 183 l 67 0 l 757 4 l 757 121 l 172 121 b 343 440 304 181 357 308 l 567 440 l 567 543 l 321 543 b 283 715 297 617 283 672 b 458 892 283 818 367 892 b 635 768 540 892 610 846 l 772 778 b 453 1008 751 893 651 1008 z "},"¥":{"ha":833,"x_min":0,"x_max":0,"o":"m 64 986 l 306 507 l 131 507 l 131 399 l 358 399 l 358 307 l 131 307 l 131 199 l 358 199 l 358 0 l 478 0 l 478 199 l 706 199 l 706 307 l 478 307 l 478 399 l 706 399 l 706 507 l 531 507 l 771 986 l 635 986 l 418 542 l 200 986 z "},"+":{"ha":833,"x_min":0,"x_max":0,"o":"m 86 478 l 86 369 l 363 369 l 363 93 l 471 93 l 471 369 l 747 369 l 747 478 l 471 478 l 471 754 l 363 754 l 363 478 z "},"−":{"ha":833,"x_min":0,"x_max":0,"o":"m 86 507 l 86 399 l 747 399 l 747 507 z "},"×":{"ha":833,"x_min":0,"x_max":0,"o":"m 251 660 l 175 583 l 371 389 l 175 193 l 251 117 l 447 313 l 643 117 l 719 193 l 524 389 l 719 583 l 643 660 l 447 464 z "},"÷":{"ha":833,"x_min":0,"x_max":0,"o":"m 86 507 l 86 399 l 747 399 l 747 507 z m 333 200 b 417 117 333 154 371 117 b 500 200 463 117 500 154 b 417 283 500 246 463 283 b 333 200 371 283 333 246 z m 333 718 b 417 635 333 672 371 635 b 500 718 463 635 500 672 b 417 801 500 764 463 801 b 333 718 371 801 333 764 z "},"=":{"ha":833,"x_min":0,"x_max":0,"o":"m 111 628 l 111 519 l 722 519 l 722 628 z m 111 213 l 722 213 l 722 321 l 111 321 z "},"≠":{"ha":833,"x_min":0,"x_max":0,"o":"m 472 768 l 429 628 l 111 628 l 111 519 l 396 519 l 336 321 l 111 321 l 111 213 l 303 213 l 256 60 l 363 60 l 410 213 l 722 213 l 722 321 l 443 321 l 503 519 l 722 519 l 722 628 l 536 628 l 579 768 z "},">":{"ha":833,"x_min":0,"x_max":0,"o":"m 101 785 l 101 665 l 629 429 l 101 193 l 101 74 l 733 356 l 733 503 z "},"<":{"ha":833,"x_min":0,"x_max":0,"o":"m 732 785 l 100 503 l 100 356 l 732 74 l 732 193 l 204 429 l 732 665 z "},"≥":{"ha":833,"x_min":0,"x_max":0,"o":"m 86 108 l 86 0 l 747 0 l 747 108 z m 86 251 l 747 435 l 747 582 l 86 765 l 86 651 l 629 508 l 86 364 z "},"≤":{"ha":833,"x_min":0,"x_max":0,"o":"m 747 108 l 86 108 l 86 0 l 747 0 z m 86 435 l 747 251 l 747 364 l 204 508 l 747 651 l 747 765 l 86 582 z "},"±":{"ha":833,"x_min":0,"x_max":0,"o":"m 86 158 l 86 50 l 747 50 l 747 158 z m 86 460 l 363 460 l 363 278 l 471 278 l 471 460 l 747 460 l 747 568 l 471 568 l 471 750 l 363 750 l 363 568 l 86 568 z "},"≈":{"ha":833,"x_min":0,"x_max":0,"o":"m 110 432 l 218 432 b 294 576 218 519 242 576 b 392 506 340 576 364 542 b 543 419 425 464 463 419 b 724 665 654 419 724 522 l 615 665 b 539 522 615 579 592 522 b 435 601 489 522 465 563 b 290 679 403 640 365 679 b 110 432 181 679 110 576 z m 110 129 l 218 129 b 294 272 218 217 242 272 b 388 207 336 272 360 243 b 543 115 421 164 457 115 b 724 363 654 115 724 219 l 615 363 b 539 218 615 276 592 218 b 418 318 481 218 458 272 b 290 375 390 349 354 375 b 110 129 181 375 110 272 z "},"~":{"ha":833,"x_min":0,"x_max":0,"o":"m 531 436 b 301 597 442 436 451 597 b 108 328 151 597 108 439 l 224 328 b 301 489 224 426 253 489 b 531 328 386 489 368 328 b 724 597 681 328 724 486 l 608 597 b 531 436 608 499 579 436 z "},"¬":{"ha":833,"x_min":0,"x_max":0,"o":"m 125 478 l 125 369 l 560 369 l 560 132 l 668 132 l 668 478 z "},"^":{"ha":833,"x_min":0,"x_max":0,"o":"m 557 463 l 674 463 l 490 986 l 343 986 l 160 463 l 276 463 l 417 875 z "},"∞":{"ha":833,"x_min":0,"x_max":0,"o":"m 367 376 b 210 265 331 311 265 265 b 115 376 154 265 115 311 b 210 488 115 442 154 488 b 367 376 265 486 331 440 z m 10 376 b 210 160 10 257 94 160 b 417 299 285 160 371 210 b 626 160 463 207 551 160 b 822 376 739 160 822 257 b 626 592 822 496 739 593 b 417 454 547 592 464 542 b 210 593 371 539 288 593 b 10 376 94 593 10 496 z m 465 376 b 626 486 506 442 571 488 b 717 376 679 485 717 439 b 626 265 717 313 679 267 b 465 376 571 264 504 310 z "},"∫":{"ha":833,"x_min":0,"x_max":0,"o":"m 153 -207 l 217 -208 b 426 -22 343 -211 413 -146 l 518 806 b 604 883 524 856 554 886 l 669 881 l 679 985 l 615 986 b 406 800 489 989 419 924 l 315 -28 b 229 -106 310 -78 279 -107 l 163 -103 z "},"∆":{"ha":833,"x_min":0,"x_max":0,"o":"m 21 176 l 21 0 l 813 0 l 813 176 l 494 986 l 339 986 z m 110 108 l 417 888 l 724 108 z "},"∏":{"ha":833,"x_min":0,"x_max":0,"o":"m 810 986 l 24 986 l 24 878 l 179 878 l 179 -208 l 288 -208 l 288 878 l 551 878 l 551 -208 l 660 -208 l 660 878 l 810 878 z "},"∑":{"ha":833,"x_min":0,"x_max":0,"o":"m 97 986 l 97 869 l 350 493 l 97 117 l 97 0 l 758 0 l 758 117 l 235 117 l 486 493 l 235 869 l 758 869 l 758 986 z "},"√":{"ha":833,"x_min":0,"x_max":0,"o":"m 811 986 l 421 986 l 232 1 l 136 467 l 24 467 l 164 -208 l 303 -208 l 514 883 l 811 883 z "},"∂":{"ha":833,"x_min":0,"x_max":0,"o":"m 418 658 b 56 346 215 676 74 557 b 369 -17 38 149 167 0 b 597 61 450 -25 525 1 b 272 1046 813 250 876 983 l 244 939 b 638 506 488 917 635 750 b 418 658 597 594 518 649 z m 179 336 b 408 547 189 471 283 558 b 618 368 515 539 600 475 b 368 90 606 194 501 79 b 179 336 243 104 164 196 z "},"µ":{"ha":833,"x_min":0,"x_max":0,"o":"m 708 0 l 708 736 l 590 736 l 590 297 b 400 86 590 168 518 86 b 249 297 299 86 249 157 l 249 736 l 132 736 l 132 -208 l 249 -208 l 249 71 b 400 -17 272 17 331 -17 b 596 122 486 -17 561 36 l 596 0 z "},"%":{"ha":833,"x_min":0,"x_max":0,"o":"m 651 1008 l 26 -17 l 158 -17 l 783 1008 z m 18 747 b 190 508 18 614 79 508 b 364 747 303 508 364 614 b 190 988 364 882 303 988 b 18 747 79 988 18 882 z m 122 747 b 190 882 122 833 147 882 b 260 747 235 882 260 833 b 190 614 260 661 235 614 b 122 747 147 614 122 661 z m 469 240 b 643 0 469 106 531 0 b 815 240 754 0 815 106 b 643 479 815 374 754 479 b 469 240 531 479 469 374 z m 575 240 b 643 374 575 326 599 374 b 713 240 686 374 713 326 b 643 106 713 154 686 106 b 575 240 599 106 575 154 z "},"‰":{"ha":833,"x_min":0,"x_max":0,"o":"m 529 1008 l 6 -17 l 128 -17 l 651 1008 z m 18 769 b 174 551 18 647 74 551 b 332 769 276 551 332 647 b 174 988 332 890 276 988 b 18 769 74 988 18 890 z m 113 769 b 174 890 113 849 135 890 b 238 769 214 890 238 849 b 174 647 238 692 214 647 b 113 769 135 647 113 692 z m 321 217 b 469 0 321 96 376 0 b 575 65 515 0 551 24 b 681 0 599 24 635 0 b 829 217 774 0 829 96 b 681 436 829 339 774 436 b 575 371 635 436 599 413 b 469 436 551 413 515 436 b 321 217 376 436 321 339 z m 415 217 b 476 339 415 296 438 339 b 540 217 517 339 540 296 b 476 96 540 139 517 96 b 415 217 438 96 415 139 z m 611 217 b 672 339 611 296 632 339 b 736 217 711 339 736 296 b 672 96 736 139 711 96 b 611 217 632 96 611 139 z "},"↑":{"ha":833,"x_min":0,"x_max":0,"o":"m 417 964 l 40 589 l 40 442 l 363 764 l 363 25 l 471 25 l 471 761 l 793 440 l 793 588 z "},"↗":{"ha":833,"x_min":0,"x_max":0,"o":"m 736 986 l 204 986 l 100 882 l 556 882 l 33 360 l 110 283 l 631 804 l 632 349 l 736 453 z "},"→":{"ha":833,"x_min":0,"x_max":0,"o":"m 824 438 l 463 800 l 315 800 l 622 492 l 24 492 l 24 383 l 622 383 l 314 75 l 463 76 z "},"↘":{"ha":833,"x_min":0,"x_max":0,"o":"m 754 0 l 754 532 l 650 636 l 650 181 l 128 703 l 51 626 l 572 106 l 117 104 l 221 0 z "},"↓":{"ha":833,"x_min":0,"x_max":0,"o":"m 417 25 l 793 401 l 793 549 l 471 228 l 471 964 l 363 964 l 363 225 l 40 547 l 40 400 z "},"↙":{"ha":833,"x_min":0,"x_max":0,"o":"m 79 0 l 613 0 l 717 104 l 261 106 l 782 626 l 706 703 l 183 181 l 183 636 l 79 532 z "},"←":{"ha":833,"x_min":0,"x_max":0,"o":"m 10 438 l 371 76 l 519 75 l 211 383 l 810 383 l 810 492 l 211 492 l 518 800 l 371 800 z "},"↖":{"ha":833,"x_min":0,"x_max":0,"o":"m 97 986 l 97 453 l 201 349 l 203 804 l 724 283 l 800 360 l 278 882 l 733 882 l 629 986 z "},"↝":{"ha":833,"x_min":0,"x_max":0,"o":"m 25 431 l 140 431 b 268 521 167 510 222 547 b 319 389 314 494 310 443 b 403 257 326 340 343 292 b 683 382 497 203 608 257 l 804 311 l 774 640 l 476 503 l 589 436 b 454 351 546 363 499 326 b 406 464 414 374 410 417 b 318 617 399 518 389 575 b 25 431 208 679 50 578 z "},"⇤":{"ha":833,"x_min":0,"x_max":0,"o":"m 172 436 l 442 213 l 442 382 l 806 382 l 806 490 l 440 490 l 440 660 z m 28 165 l 136 165 l 136 707 l 28 707 z "},"⇥":{"ha":833,"x_min":0,"x_max":0,"o":"m 661 436 l 393 660 l 393 490 l 28 490 l 28 382 l 392 382 l 392 213 z m 697 165 l 806 165 l 806 707 l 697 707 z "},"↩":{"ha":833,"x_min":0,"x_max":0,"o":"m 504 342 b 810 632 675 342 810 468 b 504 924 810 796 675 924 l 94 924 l 94 815 l 504 815 b 700 632 614 815 700 735 b 504 450 700 531 614 450 l 224 450 l 401 626 l 253 626 l 24 396 l 256 164 l 403 164 l 226 342 z "},"↪":{"ha":833,"x_min":0,"x_max":0,"o":"m 329 342 l 607 342 l 431 164 l 578 164 l 810 396 l 581 626 l 432 626 l 610 450 l 329 450 b 133 632 219 450 133 531 b 329 815 133 735 219 815 l 739 815 l 739 924 l 329 924 b 24 632 158 924 24 796 b 329 342 24 468 158 342 z "},"↰":{"ha":833,"x_min":0,"x_max":0,"o":"m 25 618 l 294 394 l 294 564 l 683 564 l 683 0 l 792 0 l 792 672 l 293 672 l 293 842 z "},"↱":{"ha":833,"x_min":0,"x_max":0,"o":"m 808 618 l 540 842 l 540 672 l 42 672 l 42 0 l 150 0 l 150 564 l 539 564 l 539 394 z "},"↳":{"ha":833,"x_min":0,"x_max":0,"o":"m 808 368 l 539 592 l 539 422 l 150 422 l 150 986 l 42 986 l 42 314 l 540 314 l 540 144 z "},"↴":{"ha":833,"x_min":0,"x_max":0,"o":"m 597 0 l 821 268 l 653 268 l 653 985 l 19 985 l 19 876 l 543 876 l 543 269 l 375 269 z "},"↵":{"ha":833,"x_min":0,"x_max":0,"o":"m 25 368 l 293 144 l 293 314 l 792 314 l 792 986 l 683 986 l 683 422 l 294 422 l 294 592 z "},"⇧":{"ha":833,"x_min":0,"x_max":0,"o":"m 531 632 l 531 108 l 306 108 l 306 632 l 228 632 l 418 835 l 607 632 z m 3 550 l 197 550 l 197 0 l 639 0 l 639 550 l 831 550 l 418 985 z "},"●":{"ha":833,"x_min":0,"x_max":0,"o":"m 418 110 b 813 494 640 110 813 271 b 418 882 813 721 640 882 b 22 494 194 882 22 721 b 418 110 22 271 194 110 z "},"○":{"ha":833,"x_min":0,"x_max":0,"o":"m 418 110 b 813 494 640 110 813 272 b 418 882 813 719 640 882 b 22 494 194 882 22 719 b 418 110 22 272 194 110 z m 131 494 b 418 778 131 661 256 778 b 704 494 579 778 704 661 b 418 214 704 331 579 214 b 131 494 256 214 131 331 z "},"◌":{"ha":833,"x_min":0,"x_max":0,"o":"m 415 92 l 415 174 b 489 179 440 174 467 175 l 504 101 b 415 92 476 96 446 92 z m 3 496 l 83 496 b 92 424 83 471 86 447 l 13 407 b 3 496 6 435 3 464 z m 8 567 b 32 653 14 597 21 626 l 108 624 b 89 554 99 601 93 578 z m 33 339 l 108 369 b 143 307 118 346 129 325 l 78 258 b 33 339 60 283 46 310 z m 65 718 b 122 788 82 744 100 767 l 178 729 b 133 675 161 713 146 694 z m 125 206 l 181 263 b 239 221 197 247 218 232 l 197 150 b 125 206 171 165 146 185 z m 178 833 b 258 874 203 850 229 863 l 286 799 b 222 765 264 790 243 779 z m 261 119 l 290 194 b 360 178 311 188 336 181 l 347 97 b 261 119 318 101 289 110 z m 326 894 b 414 904 354 900 383 903 l 415 822 b 342 815 390 822 365 819 z m 474 818 l 486 899 b 572 875 517 894 544 886 l 544 800 b 474 818 522 808 497 814 z m 544 196 b 608 229 568 206 589 215 l 653 161 b 574 121 628 144 601 132 z m 596 775 l 638 844 b 710 790 663 829 688 811 l 653 732 b 596 775 636 749 617 763 z m 653 265 b 699 319 671 282 686 300 l 767 276 b 710 206 751 251 731 226 z m 689 688 l 757 735 b 799 656 772 711 788 685 l 725 625 b 689 688 715 647 704 668 z m 725 371 b 744 440 733 392 740 417 l 824 428 b 800 340 818 397 811 368 z m 740 571 l 819 588 b 829 499 826 558 829 529 l 749 499 b 740 571 749 522 746 547 z "},"◊":{"ha":833,"x_min":0,"x_max":0,"o":"m 344 894 l 110 447 l 344 0 l 488 0 l 722 447 l 488 894 z m 229 447 l 417 801 l 603 447 l 417 93 z "},"▲":{"ha":833,"x_min":0,"x_max":0,"o":"m 415 701 l 821 0 l 11 0 z "},"▶":{"ha":833,"x_min":0,"x_max":0,"o":"m 626 497 l -75 92 l -75 901 z "},"▼":{"ha":833,"x_min":0,"x_max":0,"o":"m 415 285 l 11 986 l 821 986 z "},"◀":{"ha":833,"x_min":0,"x_max":0,"o":"m 207 497 l 908 901 l 908 92 z "},"△":{"ha":833,"x_min":0,"x_max":0,"o":"m 188 239 l 644 239 l 415 635 z m 11 136 l 415 838 l 821 136 z "},"▷":{"ha":833,"x_min":0,"x_max":0,"o":"m 164 725 l 164 268 l 560 497 z m 61 92 l 61 901 l 763 497 z "},"▽":{"ha":833,"x_min":0,"x_max":0,"o":"m 188 758 l 415 363 l 644 758 z m 11 861 l 821 861 l 415 160 z "},"◁":{"ha":833,"x_min":0,"x_max":0,"o":"m 669 725 l 274 497 l 669 268 z m 71 497 l 772 901 l 772 92 z "},"┌":{"ha":833,"x_min":0,"x_max":0,"o":"m 357 563 l 357 -343 l 476 -343 l 476 443 l 833 443 l 833 563 z "},"─":{"ha":833,"x_min":0,"x_max":0,"o":"m -56 563 l -56 443 l 833 443 l 833 563 z "},"│":{"ha":833,"x_min":0,"x_max":0,"o":"m 357 1406 l 357 -343 l 476 -343 l 476 1406 z "},"̈":{"ha":0,"x_min":0,"x_max":0,"o":"m -36 985 l -36 844 l 96 844 l 96 985 z m 218 844 l 350 844 l 350 985 l 218 985 z "},"̇":{"ha":0,"x_min":0,"x_max":0,"o":"m -8 985 l -8 844 l 124 844 l 124 985 z "},"̀":{"ha":0,"x_min":0,"x_max":0,"o":"m 0 1054 l 118 846 l 217 846 l 129 1054 z "},"́":{"ha":0,"x_min":0,"x_max":0,"o":"m 217 1054 l 88 1054 l 0 846 l 99 846 z "},"̋":{"ha":0,"x_min":0,"x_max":0,"o":"m 244 1054 l 115 1054 l 28 846 l 126 846 z m 222 846 l 321 846 l 439 1054 l 310 1054 z "},"̂":{"ha":0,"x_min":0,"x_max":0,"o":"m 264 846 l 382 846 l 261 1013 l 119 1013 l 0 846 l 117 846 l 190 949 z "},"̌":{"ha":0,"x_min":0,"x_max":0,"o":"m 264 1013 l 190 910 l 117 1013 l 0 1013 l 119 846 l 261 846 l 382 1013 z "},"̆":{"ha":0,"x_min":0,"x_max":0,"o":"m 90 1025 l 0 1025 b 196 847 0 925 86 847 b 393 1025 307 847 393 925 l 303 1025 b 196 933 303 974 256 933 b 90 1025 136 933 90 974 z "},"̊":{"ha":0,"x_min":0,"x_max":0,"o":"m 129 814 b 269 954 208 814 269 875 b 129 1097 269 1033 208 1097 b -12 954 50 1097 -12 1033 b 129 814 -12 875 50 814 z m 71 956 b 129 1013 71 988 96 1013 b 186 956 161 1013 186 988 b 129 899 186 924 161 899 b 71 956 96 899 71 924 z "},"̃":{"ha":0,"x_min":0,"x_max":0,"o":"m 143 940 b 218 893 176 940 194 915 b 328 844 240 869 269 844 b 465 1025 411 844 465 917 l 379 1025 b 322 931 379 961 361 931 b 238 988 283 931 267 961 b 136 1026 215 1010 188 1026 b 0 847 54 1026 0 957 l 86 847 b 143 940 86 911 106 940 z "},"̄":{"ha":0,"x_min":0,"x_max":0,"o":"m 0 954 l 0 868 l 354 868 l 354 954 z "},"̒":{"ha":0,"x_min":0,"x_max":0,"o":"m -346 1019 l -346 860 l -182 860 l -182 1019 l -250 1019 l -179 1243 l -250 1243 z "},"̦":{"ha":0,"x_min":0,"x_max":0,"o":"m 217 -83 l 88 -83 l 0 -292 l 99 -292 z "},"̧":{"ha":0,"x_min":0,"x_max":0,"o":"m 78 -67 l 117 -118 b 222 -171 176 -104 222 -126 b 157 -231 222 -207 197 -231 b 57 -160 110 -231 76 -185 l 0 -212 b 163 -306 54 -275 97 -306 b 299 -176 239 -306 299 -249 b 164 -51 299 -103 243 -51 l 224 14 l 151 14 z "},"̨":{"ha":0,"x_min":0,"x_max":0,"o":"m 139 -62 l 181 0 l 103 0 l 50 -58 b 0 -181 15 -96 0 -139 b 125 -297 0 -249 57 -297 b 231 -260 160 -297 196 -286 l 231 -171 b 143 -200 199 -183 167 -200 b 97 -151 115 -200 97 -179 b 139 -62 97 -124 119 -90 z "},"̵":{"ha":0,"x_min":0,"x_max":0,"o":"m 276 447 l 276 344 l 854 344 l 854 447 z "},"¨":{"ha":833,"x_min":0,"x_max":0,"o":"m 222 985 l 222 844 l 354 844 l 354 985 z m 476 844 l 608 844 l 608 985 l 476 985 z "},"˙":{"ha":833,"x_min":0,"x_max":0,"o":"m 350 985 l 350 844 l 482 844 l 482 985 z "},"`":{"ha":833,"x_min":0,"x_max":0,"o":"m 308 1054 l 426 846 l 525 846 l 438 1054 z "},"´":{"ha":833,"x_min":0,"x_max":0,"o":"m 525 1054 l 396 1054 l 308 846 l 407 846 z "},"˝":{"ha":833,"x_min":0,"x_max":0,"o":"m 428 1054 l 299 1054 l 211 846 l 310 846 z m 406 846 l 504 846 l 622 1054 l 493 1054 z "},"ˆ":{"ha":833,"x_min":0,"x_max":0,"o":"m 489 846 l 607 846 l 486 1013 l 344 1013 l 225 846 l 342 846 l 415 949 z "},"ˇ":{"ha":833,"x_min":0,"x_max":0,"o":"m 489 1013 l 415 910 l 342 1013 l 225 1013 l 344 846 l 486 846 l 607 1013 z "},"˘":{"ha":833,"x_min":0,"x_max":0,"o":"m 90 1025 l 0 1025 b 196 847 0 925 86 847 b 393 1025 307 847 393 925 l 303 1025 b 196 933 303 974 256 933 b 90 1025 136 933 90 974 z "},"˚":{"ha":833,"x_min":0,"x_max":0,"o":"m 129 814 b 269 954 208 814 269 875 b 129 1097 269 1033 208 1097 b -12 954 50 1097 -12 1033 b 129 814 -12 875 50 814 z m 71 956 b 129 1013 71 988 96 1013 b 186 956 161 1013 186 988 b 129 899 186 924 161 899 b 71 956 96 899 71 924 z "},"˜":{"ha":833,"x_min":0,"x_max":0,"o":"m 143 940 b 218 893 176 940 194 915 b 328 844 240 869 269 844 b 465 1025 411 844 465 917 l 379 1025 b 322 931 379 961 361 931 b 238 988 283 931 267 961 b 136 1026 215 1010 188 1026 b 0 847 54 1026 0 957 l 86 847 b 143 940 86 911 106 940 z "},"¯":{"ha":833,"x_min":0,"x_max":0,"o":"m 0 954 l 0 868 l 354 868 l 354 954 z "},"¸":{"ha":833,"x_min":0,"x_max":0,"o":"m 78 -67 l 117 -118 b 222 -171 176 -104 222 -126 b 157 -231 222 -207 197 -231 b 57 -160 110 -231 76 -185 l 0 -212 b 163 -306 54 -275 97 -306 b 299 -176 239 -306 299 -249 b 164 -51 299 -103 243 -51 l 224 14 l 151 14 z "},"˛":{"ha":833,"x_min":0,"x_max":0,"o":"m 139 -62 l 181 0 l 103 0 l 50 -58 b 0 -181 15 -96 0 -139 b 125 -297 0 -249 57 -297 b 231 -260 160 -297 196 -286 l 231 -171 b 143 -200 199 -183 167 -200 b 97 -151 115 -200 97 -179 b 139 -62 97 -124 119 -90 z "},"ʼ":{"ha":833,"x_min":0,"x_max":0,"o":"m 507 826 l 507 986 l 343 986 l 343 826 l 411 826 l 340 603 l 411 603 z "},"ʹ":{"ha":833,"x_min":0,"x_max":0,"o":"m 525 1054 l 396 1054 l 308 846 l 407 846 z "},"ˈ":{"ha":833,"x_min":0,"x_max":0,"o":"m 356 986 l 356 881 l 375 593 l 458 593 l 478 881 l 478 986 z "}}}
